<svg width="122" height="115" viewBox="0 0 122 115" fill="none" xmlns="http://www.w3.org/2000/svg">
<path d="M4.67483 17.1702C3.74792 17.3315 3.08584 17.7421 2.72643 18.3873C2.51835 18.7539 2.42377 19.1645 2.42377 19.6044C2.42377 20.4549 2.83993 21.1441 3.65334 21.7014C4.48566 22.2439 5.73415 22.5225 7.3988 22.5225C9.06345 22.5225 10.2552 22.2293 10.9551 21.628C11.655 21.0415 11.9955 20.367 11.9955 19.6044C11.9955 18.8712 11.7118 18.27 11.1632 17.7861C10.6146 17.3169 9.89578 17.0236 9.0067 16.9209L9.0067 19.3551L6.73673 19.3551L6.73673 14.9707L14.0385 14.9707L14.0385 16.4224L12.336 16.6423C12.9792 17.0676 13.4332 17.4488 13.698 17.7861C14.1709 18.3727 14.3979 19.0912 14.3979 19.9417C14.3979 21.3348 13.7737 22.4786 12.5252 23.373C11.2767 24.3115 9.55528 24.7661 7.36097 24.7661C5.16666 24.7661 3.40742 24.2969 2.06436 23.3584C0.740202 22.4199 0.0781252 21.1735 0.0781253 19.6338C0.0781254 18.2993 0.513204 17.2142 1.38336 16.393C2.25352 15.5865 3.36959 15.1173 4.67483 15L4.67483 17.1702Z" fill="#FF4B00"/>
<path d="M9.92905 27.489L0.414063 27.489L0.414063 25.4361L14.0339 25.4361L14.0339 27.6356L4.36761 31.9468L14.0339 31.9468L14.0339 33.9998L0.414062 33.9998L0.414063 31.6975L9.92905 27.489Z" fill="#FF4B00"/>
<path d="M0.414062 37.3479L0.414063 35.1483L14.0339 35.1483L14.0339 37.3479L0.414062 37.3479Z" fill="#FF4B00"/>
<path d="M2.83537 40.7399L14.0339 40.7399L14.0339 42.9688L2.83537 42.9688L2.83537 46.1362L0.414062 46.1362L0.414063 37.5872L2.83537 37.5872L2.83537 40.7399Z" fill="#FF4B00"/>
<path d="M11.5937 48.9071L11.5937 43.6868L14.0339 43.6868L14.0339 51.1213L0.414062 51.1213L0.414063 48.9071L11.5937 48.9071Z" fill="#FF4B00"/>
<path d="M8.79406 58.5804C9.72097 58.5804 10.402 58.4924 10.837 58.3165C11.6126 58.0525 11.9909 57.466 11.9909 56.5715C11.9909 55.677 11.6126 55.1051 10.837 54.8411C10.402 54.6652 9.72097 54.5772 8.79406 54.5772L0.414063 54.5772L0.414063 52.3336L8.79406 52.3336C10.2317 52.3336 11.3667 52.5096 12.1612 52.8615C13.6367 53.5067 14.3933 54.7531 14.3933 56.5715C14.3933 58.4044 13.6367 59.6509 12.1612 60.2961C11.3667 60.648 10.2317 60.824 8.79406 60.824L0.414062 60.824L0.414063 58.5804L8.79406 58.5804Z" fill="#FF4B00"/>
<path d="M9.8489 68.1265C10.4731 68.0678 10.9271 67.9212 11.2487 67.7305C11.7973 67.3786 12.081 66.7627 12.081 65.8975C12.081 65.3696 12.0054 64.9444 11.8541 64.6218C11.5703 64.0059 11.0406 63.698 10.284 63.698C9.82999 63.698 9.48949 63.8446 9.24358 64.1526C8.99766 64.4605 8.78958 64.9444 8.60042 65.6043L8.27884 66.7187C7.95725 67.8039 7.61676 68.5664 7.23843 68.9916C6.59527 69.6955 5.63053 70.0621 4.28746 70.0621C3.05789 70.0621 2.05531 69.7102 1.24191 69.021C0.447413 68.3464 0.0312502 67.3346 0.0312502 66.0002C0.0312503 64.8857 0.409581 63.9326 1.16624 63.1554C1.94182 62.3636 3.03897 61.953 4.49554 61.9236L4.49554 64.0352C3.66321 64.0792 3.0768 64.3578 2.73631 64.8711C2.50931 65.2083 2.39581 65.6483 2.39581 66.1468C2.39581 66.7187 2.54714 67.1733 2.84981 67.5106C3.13355 67.8478 3.54972 68.0238 4.07938 68.0238C4.57121 68.0238 4.93062 67.8478 5.17653 67.5106C5.32786 67.3053 5.51703 66.8507 5.74403 66.1468L6.29261 64.3285C6.55744 63.522 6.87902 62.9208 7.29518 62.5249C7.91942 61.8943 8.86525 61.5717 10.0759 61.5717C11.3055 61.5717 12.3459 61.9383 13.1593 62.6715C13.9916 63.4194 14.4078 64.4605 14.4078 65.8096C14.4078 67.1733 13.9916 68.2584 13.1782 69.0503C12.3837 69.8421 11.2676 70.2234 9.8489 70.2234L9.8489 68.1265Z" fill="#FF4B00"/>
<path d="M9.92905 72.9463L0.414063 72.9463L0.414063 70.8933L14.0339 70.8933L14.0339 73.0929L4.36761 77.4041L14.0339 77.4041L14.0339 79.457L0.414062 79.457L0.414063 77.1548L9.92905 72.9463Z" fill="#FF4B00"/>
<path d="M12.8254 81.8375C13.8847 82.6293 14.4144 83.7731 14.4144 85.2835C14.4144 86.7939 13.8847 87.9523 12.8254 88.7442C11.5201 89.8146 9.66632 90.3572 7.20718 90.3572C4.7102 90.3572 2.83747 89.8146 1.58898 88.7442C0.529662 87.9523 1.55758e-07 86.7939 2.21778e-07 85.2835C2.87799e-07 83.7731 0.529662 82.6293 1.58898 81.8375C2.83747 80.767 4.7102 80.2391 7.20718 80.2391C9.66632 80.2391 11.5201 80.767 12.8254 81.8375ZM10.7635 83.2012C9.93115 82.7026 8.73941 82.4387 7.20718 82.4387C5.69386 82.4387 4.50212 82.7026 3.6698 83.2012C2.83747 83.7291 2.42131 84.4183 2.42131 85.2835C2.42131 86.1633 2.83747 86.8525 3.6698 87.3804C4.50212 87.9083 5.67494 88.1576 7.20718 88.1576C8.73941 88.1576 9.93115 87.9083 10.7635 87.3804C11.5958 86.8525 12.012 86.1633 12.012 85.2835C12.012 84.4183 11.5958 83.7291 10.7635 83.2012Z" fill="#FF4B00"/>
<path d="M1.83653 98.6375C0.720453 97.7723 0.171875 96.6872 0.171875 95.3528C0.171875 93.5784 0.909619 92.288 2.42294 91.4669C3.25526 91.0123 4.1065 90.763 4.95775 90.7337L4.95775 92.9332C4.29567 93.0799 3.80384 93.2705 3.48226 93.4905C2.89585 93.8864 2.59319 94.4876 2.59319 95.2795C2.59318 96.0713 3.00935 96.7019 3.84167 97.1711C4.674 97.6403 5.86574 97.8603 7.37905 97.8603C8.91129 97.8603 10.0652 97.6257 10.8219 97.1271C11.5785 96.6432 11.9568 96.0126 11.9568 95.2648C11.9568 94.4876 11.6353 93.9011 10.9732 93.4905C10.6327 93.2705 10.103 93.0945 9.40312 92.9332L9.40312 90.7483C10.8786 90.9536 12.0893 91.4375 13.0162 92.2147C13.962 93.0066 14.416 94.0184 14.416 95.2355C14.416 96.7605 13.7917 97.9483 12.5243 98.8134C11.2758 99.6786 9.53553 100.119 7.34122 100.119C4.97666 100.119 3.12285 99.62 1.83653 98.6375Z" fill="#FF4B00"/>
<path d="M117.247 96.9528C118.174 96.7915 118.836 96.3809 119.195 95.7357C119.404 95.3691 119.498 94.9585 119.498 94.5186C119.498 93.6681 119.082 92.9789 118.269 92.4217C117.436 91.8791 116.188 91.6005 114.523 91.6005C112.858 91.6005 111.667 91.8938 110.967 92.495C110.267 93.0816 109.926 93.7561 109.926 94.5186C109.926 95.2518 110.21 95.853 110.759 96.3369C111.307 96.8062 112.026 97.0995 112.915 97.2021L112.915 94.7679L115.185 94.7679L115.185 99.1524L107.883 99.1524L107.883 97.7007L109.586 97.4807C108.943 97.0555 108.489 96.6742 108.224 96.3369C107.751 95.7504 107.524 95.0318 107.524 94.1813C107.524 92.7883 108.148 91.6445 109.397 90.75C110.645 89.8115 112.367 89.3569 114.561 89.3569C116.755 89.3569 118.514 89.8262 119.858 90.7647C121.182 91.7032 121.844 92.9496 121.844 94.4893C121.844 95.8237 121.409 96.9088 120.539 97.73C119.668 98.5365 118.552 99.0058 117.247 99.1231L117.247 96.9528Z" fill="#FF4B00"/>
<path d="M111.993 86.634L121.508 86.634L121.508 88.687L107.888 88.687L107.888 86.4874L117.554 82.1762L107.888 82.1762L107.888 80.1233L121.508 80.1233L121.508 82.4255L111.993 86.634Z" fill="#FF4B00"/>
<path d="M121.508 76.7751L121.508 78.9747L107.888 78.9747L107.888 76.7751L121.508 76.7751Z" fill="#FF4B00"/>
<path d="M119.087 73.3831L107.888 73.3831L107.888 71.1542L119.087 71.1542L119.087 67.9868L121.508 67.9868L121.508 76.5359L119.087 76.5359L119.087 73.3831Z" fill="#FF4B00"/>
<path d="M110.328 65.216L110.328 70.4363L107.888 70.4363L107.888 63.0017L121.508 63.0017L121.508 65.216L110.328 65.216Z" fill="#FF4B00"/>
<path d="M113.128 55.5426C112.201 55.5426 111.52 55.6306 111.085 55.8066C110.309 56.0705 109.931 56.6571 109.931 57.5516C109.931 58.4461 110.309 59.018 111.085 59.2819C111.52 59.4579 112.201 59.5459 113.128 59.5459L121.508 59.5459L121.508 61.7894L113.128 61.7894C111.69 61.7894 110.555 61.6135 109.761 61.2615C108.285 60.6163 107.529 59.3699 107.529 57.5516C107.529 55.7186 108.285 54.4722 109.761 53.827C110.555 53.475 111.69 53.2991 113.128 53.2991L121.508 53.2991L121.508 55.5426L113.128 55.5426Z" fill="#FF4B00"/>
<path d="M112.073 45.9966C111.449 46.0552 110.995 46.2019 110.673 46.3925C110.125 46.7444 109.841 47.3603 109.841 48.2255C109.841 48.7534 109.916 49.1786 110.068 49.5013C110.352 50.1171 110.881 50.4251 111.638 50.4251C112.092 50.4251 112.432 50.2784 112.678 49.9705C112.924 49.6626 113.132 49.1786 113.321 48.5188L113.643 47.4043C113.965 46.3192 114.305 45.5567 114.683 45.1314C115.327 44.4276 116.291 44.061 117.634 44.061C118.864 44.061 119.867 44.4129 120.68 45.1021C121.474 45.7766 121.891 46.7884 121.891 48.1228C121.891 49.2373 121.512 50.1905 120.756 50.9676C119.98 51.7595 118.883 52.1701 117.426 52.1994L117.426 50.0878C118.259 50.0438 118.845 49.7652 119.186 49.252C119.413 48.9147 119.526 48.4748 119.526 47.9762C119.526 47.4043 119.375 46.9497 119.072 46.6125C118.788 46.2752 118.372 46.0992 117.842 46.0992C117.351 46.0992 116.991 46.2752 116.745 46.6125C116.594 46.8178 116.405 47.2723 116.178 47.9762L115.629 49.7945C115.364 50.601 115.043 51.2023 114.627 51.5982C114.002 52.2287 113.057 52.5513 111.846 52.5513C110.616 52.5513 109.576 52.1847 108.763 51.4515C107.93 50.7037 107.514 49.6626 107.514 48.3135C107.514 46.9497 107.93 45.8646 108.744 45.0728C109.538 44.2809 110.654 43.8997 112.073 43.8997L112.073 45.9966Z" fill="#FF4B00"/>
<path d="M111.993 41.1768L121.508 41.1768L121.508 43.2297L107.888 43.2297L107.888 41.0301L117.554 36.719L107.888 36.719L107.888 34.666L121.508 34.666L121.508 36.9682L111.993 41.1768Z" fill="#FF4B00"/>
<path d="M109.097 32.2853C108.037 31.4935 107.508 30.3497 107.508 28.8393C107.508 27.3289 108.037 26.1705 109.097 25.3786C110.402 24.3082 112.256 23.7656 114.715 23.7656C117.212 23.7656 119.084 24.3082 120.333 25.3786C121.392 26.1705 121.922 27.3289 121.922 28.8393C121.922 30.3497 121.392 31.4935 120.333 32.2853C119.084 33.3558 117.212 33.8837 114.715 33.8837C112.256 33.8837 110.402 33.3558 109.097 32.2853ZM111.158 30.9216C111.991 31.4202 113.182 31.6841 114.715 31.6841C116.228 31.6841 117.42 31.4202 118.252 30.9216C119.084 30.3937 119.501 29.7045 119.501 28.8393C119.501 27.9595 119.084 27.2703 118.252 26.7424C117.42 26.2145 116.247 25.9652 114.715 25.9652C113.182 25.9652 111.991 26.2145 111.158 26.7424C110.326 27.2703 109.91 27.9595 109.91 28.8393C109.91 29.7045 110.326 30.3937 111.158 30.9216Z" fill="#FF4B00"/>
<path d="M120.085 15.4856C121.201 16.3507 121.75 17.4359 121.75 18.7703C121.75 20.5446 121.012 21.835 119.499 22.6562C118.667 23.1108 117.815 23.3601 116.964 23.3894L116.964 21.1898C117.626 21.0432 118.118 20.8525 118.44 20.6326C119.026 20.2367 119.329 19.6354 119.329 18.8436C119.329 18.0517 118.913 17.4212 118.08 16.952C117.248 16.4827 116.056 16.2628 114.543 16.2628C113.011 16.2628 111.857 16.4974 111.1 16.9959C110.343 17.4799 109.965 18.1104 109.965 18.8583C109.965 19.6354 110.287 20.222 110.949 20.6326C111.289 20.8525 111.819 21.0285 112.519 21.1898L112.519 23.3747C111.043 23.1694 109.833 22.6855 108.906 21.9083C107.96 21.1165 107.506 20.1047 107.506 18.8876C107.506 17.3625 108.13 16.1748 109.398 15.3096C110.646 14.4444 112.386 14.0045 114.581 14.0045C116.945 14.0045 118.799 14.5031 120.085 15.4856Z" fill="#FF4B00"/>
<path d="M91.2641 20.25C93.1442 20.25 94.5936 21.6391 94.5936 23.2643V33.3334C94.5936 34.9586 93.1442 36.3477 91.2641 36.3477L43.0779 36.3477C40.7281 36.3477 38.7484 38.1053 38.7484 40.3619L38.7484 69.8547C38.7484 72.1113 40.7281 73.8689 43.0779 73.8689L91.2641 73.869C93.1442 73.869 94.5936 75.258 94.5936 76.8832V86.9524C94.5936 88.5775 93.1442 89.9666 91.2641 89.9666H41.7092C39.8291 89.9666 38.3797 88.5775 38.3797 86.9524V78.3199C38.3797 76.0633 36.4 74.3056 34.0502 74.3056H24.4467C22.5665 74.3056 21.1172 72.9165 21.1172 71.2914L21.1172 38.9441C21.1172 37.319 22.5665 35.9299 24.4467 35.9299L34.0502 35.9299C36.4 35.9299 38.3797 34.1722 38.3797 31.9156V23.2643C38.3797 21.6391 39.8291 20.25 41.7092 20.25L91.2641 20.25Z" fill="#FF4B00" stroke="#FF4B00"/>
<path d="M95.0586 0.456421H97.5578V6.03387L102.251 0.456421H105.534L100.552 6.03387L105.789 14.0003H102.523L98.7702 8.08291L97.5578 9.47038V14.0003H95.0586V0.456421Z" fill="#FF4B00"/>
<path d="M83.8684 1.67706C84.8777 0.552668 86.1437 0 87.7004 0C89.7704 0 91.2758 0.743245 92.2338 2.26785C92.7641 3.10638 93.0549 3.96397 93.0891 4.82156H90.5231C90.352 4.15455 90.1296 3.65905 89.873 3.33507C89.4111 2.74429 88.7097 2.43937 87.7859 2.43937C86.8622 2.43937 86.1266 2.85863 85.5791 3.69717C85.0317 4.5357 84.7751 5.73633 84.7751 7.26093C84.7751 8.80459 85.0488 9.96711 85.6305 10.7294C86.195 11.4917 86.9306 11.8729 87.8031 11.8729C88.7097 11.8729 89.394 11.5489 89.873 10.8819C90.1296 10.5388 90.3349 10.0052 90.5231 9.30009H93.072C92.8325 10.7866 92.268 12.0063 91.3613 12.9401C90.4375 13.893 89.2572 14.3503 87.8373 14.3503C86.0581 14.3503 84.6725 13.7214 83.6632 12.4446C82.6538 11.1868 82.1406 9.43349 82.1406 7.22282C82.1406 4.84062 82.7223 2.97298 83.8684 1.67706Z" fill="#FF4B00"/>
<path d="M77.7031 0.248047H80.2692V13.9695H77.7031V0.248047Z" fill="#FF4B00"/>
<path d="M73.6521 0.610141C74.114 0.819774 74.5075 1.14375 74.8325 1.56302C75.1062 1.90606 75.3115 2.30626 75.4654 2.72553C75.6365 3.1448 75.7049 3.62124 75.7049 4.15485C75.7049 4.82186 75.551 5.45076 75.2602 6.07966C74.9693 6.70856 74.4732 7.16594 73.8061 7.41369C74.3706 7.66144 74.7641 8.02353 75.0036 8.49997C75.2431 8.97641 75.3628 9.68154 75.3628 10.6535V11.5682C75.3628 12.1971 75.3799 12.6164 75.4312 12.8451C75.4997 13.1881 75.6536 13.4549 75.8931 13.6265V13.9695H73.0705C72.9849 13.6646 72.9336 13.4168 72.8994 13.2262C72.831 12.8451 72.7967 12.4449 72.7967 12.0447L72.7796 10.7869C72.7625 9.91023 72.6257 9.31945 72.352 9.03358C72.0783 8.74772 71.5479 8.59526 70.7952 8.59526H68.1436V13.9695H65.6289V0.248047L71.6677 0.248047C72.523 0.267104 73.1902 0.400508 73.6521 0.610141ZM71.0518 6.32741C71.6335 6.32741 72.0612 6.25118 72.352 6.09872C72.8652 5.83191 73.1218 5.31736 73.1218 4.55506C73.1218 3.71652 72.8652 3.16385 72.3862 2.87799C72.0954 2.72553 71.6848 2.63024 71.1203 2.63024H68.1436V6.32741H71.0518Z" fill="#FF4B00"/>
<path d="M56.753 5.60322H62.7234V7.98542H56.753V11.5111H63.5616V13.9695H54.2383V0.248047L63.2537 0.248047V2.68742H56.753V5.60322Z" fill="#FF4B00"/>
<path d="M48.4143 13.9695H45.9851L41.8281 0.248047L44.5824 0.248047L47.2511 10.6725L49.954 0.248047H52.6227L48.4143 13.9695Z" fill="#FF4B00"/>
<path d="M43.7842 13.9695H40.9957L40.2088 11.149H35.6583L34.8201 13.9695H32.1172L36.5137 0.248047H39.4219L43.7842 13.9695ZM37.9507 3.39254L36.3597 8.78583H39.4903L37.9507 3.39254Z" fill="#FF4B00"/>
<path d="M30.6057 13.9695H28.1936V4.68846C28.1936 4.42165 28.1936 4.0405 28.2107 3.56406V2.45872L25.8842 13.9695H23.3865L21.0771 2.45872V3.56406C21.0942 4.0405 21.0942 4.42165 21.0942 4.68846V13.9695H18.6992V0.248047L22.4286 0.248047L24.6696 11.0346L26.8935 0.248047H30.6057V13.9695Z" fill="#FF4B00"/>
<path d="M95.0586 100.456H97.5578V106.034L102.251 100.456H105.534L100.552 106.034L105.789 114H102.523L98.7702 108.083L97.5578 109.47V114H95.0586V100.456Z" fill="#FF4B00"/>
<path d="M83.8684 101.677C84.8777 100.553 86.1437 100 87.7004 100C89.7704 100 91.2758 100.743 92.2338 102.268C92.7641 103.106 93.0549 103.964 93.0891 104.822H90.5231C90.352 104.155 90.1296 103.659 89.873 103.335C89.4111 102.744 88.7097 102.439 87.7859 102.439C86.8622 102.439 86.1266 102.859 85.5791 103.697C85.0317 104.536 84.7751 105.736 84.7751 107.261C84.7751 108.805 85.0488 109.967 85.6305 110.729C86.195 111.492 86.9306 111.873 87.8031 111.873C88.7097 111.873 89.394 111.549 89.873 110.882C90.1296 110.539 90.3349 110.005 90.5231 109.3H93.072C92.8325 110.787 92.268 112.006 91.3613 112.94C90.4375 113.893 89.2572 114.35 87.8373 114.35C86.0581 114.35 84.6725 113.721 83.6632 112.445C82.6538 111.187 82.1406 109.433 82.1406 107.223C82.1406 104.841 82.7223 102.973 83.8684 101.677Z" fill="#FF4B00"/>
<path d="M77.7031 100.248H80.2692V113.969H77.7031V100.248Z" fill="#FF4B00"/>
<path d="M73.6521 100.61C74.114 100.82 74.5075 101.144 74.8325 101.563C75.1062 101.906 75.3115 102.306 75.4654 102.726C75.6365 103.145 75.7049 103.621 75.7049 104.155C75.7049 104.822 75.551 105.451 75.2602 106.08C74.9693 106.709 74.4732 107.166 73.8061 107.414C74.3706 107.661 74.7641 108.024 75.0036 108.5C75.2431 108.976 75.3628 109.682 75.3628 110.653V111.568C75.3628 112.197 75.3799 112.616 75.4312 112.845C75.4997 113.188 75.6536 113.455 75.8931 113.626V113.969H73.0705C72.9849 113.665 72.9336 113.417 72.8994 113.226C72.831 112.845 72.7967 112.445 72.7967 112.045L72.7796 110.787C72.7625 109.91 72.6257 109.319 72.352 109.034C72.0783 108.748 71.5479 108.595 70.7952 108.595H68.1436V113.969H65.6289V100.248H71.6677C72.523 100.267 73.1902 100.401 73.6521 100.61ZM71.0518 106.327C71.6335 106.327 72.0612 106.251 72.352 106.099C72.8652 105.832 73.1218 105.317 73.1218 104.555C73.1218 103.717 72.8652 103.164 72.3862 102.878C72.0954 102.726 71.6848 102.63 71.1203 102.63H68.1436V106.327H71.0518Z" fill="#FF4B00"/>
<path d="M56.753 105.603H62.7234V107.985H56.753V111.511H63.5616V113.969H54.2383V100.248H63.2537V102.687H56.753V105.603Z" fill="#FF4B00"/>
<path d="M48.4143 113.969H45.9851L41.8281 100.248H44.5824L47.2511 110.673L49.954 100.248H52.6227L48.4143 113.969Z" fill="#FF4B00"/>
<path d="M43.7842 113.969H40.9957L40.2088 111.149H35.6583L34.8201 113.969H32.1172L36.5137 100.248H39.4219L43.7842 113.969ZM37.9507 103.393L36.3597 108.786H39.4903L37.9507 103.393Z" fill="#FF4B00"/>
<path d="M30.6057 113.969H28.1936V104.688C28.1936 104.422 28.1936 104.041 28.2107 103.564V102.459L25.8842 113.969H23.3865L21.0771 102.459V103.564C21.0942 104.041 21.0942 104.422 21.0942 104.688V113.969H18.6992V100.248H22.4286L24.6696 111.035L26.8935 100.248H30.6057V113.969Z" fill="#FF4B00"/>
</svg>
