<svg width="353" height="61" viewBox="0 0 353 61" fill="none" xmlns="http://www.w3.org/2000/svg">
<path d="M121.992 26H117.387V10.9883L109.283 25.2441C109.084 25.6074 108.803 25.8828 108.439 26.0703C108.088 26.2578 107.707 26.3516 107.297 26.3516C106.898 26.3516 106.523 26.2578 106.172 26.0703C105.832 25.8828 105.563 25.6074 105.363 25.2441L97.2246 10.9883V26H92.6543V2.74414C92.6543 2.2168 92.8066 1.74805 93.1113 1.33789C93.4277 0.927734 93.8379 0.652344 94.3418 0.511719C94.5879 0.453125 94.834 0.435547 95.0801 0.458984C95.3262 0.470703 95.5605 0.523437 95.7832 0.617187C96.0176 0.699219 96.2285 0.822266 96.416 0.986328C96.6035 1.13867 96.7617 1.32617 96.8906 1.54883L107.297 19.6367L117.703 1.54883C117.973 1.10352 118.342 0.787109 118.811 0.599609C119.291 0.412109 119.789 0.382812 120.305 0.511719C120.797 0.652344 121.201 0.927734 121.518 1.33789C121.834 1.74805 121.992 2.2168 121.992 2.74414V26ZM149.891 26H145.32V19.8125H129.254V26H124.684V13.3965C124.684 11.5566 125 9.86328 125.633 8.31641C126.266 6.76953 127.145 5.43945 128.27 4.32617C129.395 3.21289 130.725 2.3457 132.26 1.72461C133.795 1.10352 135.471 0.792969 137.287 0.792969H147.588C147.904 0.792969 148.203 0.851562 148.485 0.96875C148.766 1.08594 149.012 1.25 149.223 1.46094C149.434 1.67188 149.598 1.91797 149.715 2.19922C149.832 2.48047 149.891 2.7793 149.891 3.0957V26ZM129.254 15.2422H145.32V5.36328H137.287C137.147 5.36328 136.848 5.38672 136.391 5.43359C135.945 5.46875 135.424 5.56836 134.826 5.73242C134.24 5.89648 133.619 6.14844 132.963 6.48828C132.307 6.82813 131.703 7.29688 131.153 7.89453C130.602 8.49219 130.145 9.24219 129.781 10.1445C129.43 11.0352 129.254 12.1191 129.254 13.3965V15.2422ZM178.282 0.792969L166.346 25.1035C166.159 25.4785 165.877 25.7773 165.502 26C165.139 26.2344 164.735 26.3516 164.289 26.3516C163.856 26.3516 163.451 26.2344 163.076 26C162.713 25.7773 162.432 25.4785 162.233 25.1035L150.315 0.792969L155.43 0.792969L164.289 18.9512L173.184 0.792969H178.282ZM199.43 15.6992H184.999V11.0938H199.43V15.6992ZM201.487 26H184.999C184.366 26 183.674 25.8887 182.924 25.666C182.174 25.4434 181.477 25.0801 180.833 24.5762C180.2 24.0605 179.666 23.3984 179.233 22.5898C178.811 21.7695 178.6 20.7676 178.6 19.584V3.0957C178.6 2.7793 178.659 2.48047 178.776 2.19922C178.893 1.91797 179.051 1.67188 179.25 1.46094C179.461 1.25 179.708 1.08594 179.989 0.96875C180.27 0.851562 180.575 0.792969 180.903 0.792969L201.487 0.792969V5.36328L183.17 5.36328V19.584C183.17 20.1816 183.329 20.6387 183.645 20.9551C183.961 21.2715 184.424 21.4297 185.034 21.4297H201.487V26ZM228.946 9.26563C228.946 10.3086 228.817 11.2402 228.559 12.0605C228.301 12.8809 227.95 13.6074 227.505 14.2402C227.071 14.8613 226.567 15.3945 225.993 15.8398C225.419 16.2852 224.815 16.6543 224.182 16.9473C223.561 17.2285 222.928 17.4336 222.284 17.5625C221.651 17.6914 221.053 17.7559 220.491 17.7559L230.036 26H222.969L213.442 17.7559H210.155V13.1855H220.491C221.065 13.1387 221.587 13.0215 222.055 12.834C222.536 12.6348 222.946 12.3711 223.286 12.043C223.637 11.7148 223.907 11.3223 224.094 10.8652C224.282 10.3965 224.376 9.86328 224.376 9.26563V6.38281C224.376 6.125 224.34 5.93164 224.27 5.80273C224.212 5.66211 224.13 5.5625 224.024 5.50391C223.93 5.43359 223.825 5.39258 223.708 5.38086C223.602 5.36914 223.503 5.36328 223.409 5.36328H208.327V26H203.756V3.0957C203.756 2.7793 203.815 2.48047 203.932 2.19922C204.049 1.91797 204.208 1.67188 204.407 1.46094C204.618 1.25 204.864 1.08594 205.145 0.96875C205.426 0.851562 205.731 0.792969 206.059 0.792969L223.409 0.792969C224.428 0.792969 225.29 0.980469 225.993 1.35547C226.696 1.71875 227.264 2.18164 227.698 2.74414C228.143 3.29492 228.46 3.89258 228.647 4.53711C228.846 5.18164 228.946 5.78516 228.946 6.34766V9.26563ZM235.979 26H231.409V0.792969H235.979V26ZM261.733 26H245.245C244.823 26 244.366 25.9531 243.874 25.8594C243.394 25.7539 242.913 25.5957 242.433 25.3848C241.964 25.1738 241.513 24.9043 241.079 24.5762C240.645 24.2363 240.259 23.832 239.919 23.3633C239.591 22.8828 239.327 22.332 239.128 21.7109C238.929 21.0781 238.829 20.3691 238.829 19.584V7.20899C238.829 6.78711 238.876 6.33594 238.97 5.85547C239.075 5.36328 239.233 4.88281 239.444 4.41406C239.655 3.93359 239.931 3.47656 240.27 3.04297C240.61 2.60938 241.015 2.22852 241.483 1.90039C241.964 1.56055 242.515 1.29102 243.136 1.0918C243.757 0.892578 244.46 0.792969 245.245 0.792969L261.733 0.792969V5.36328H245.245C244.647 5.36328 244.19 5.52148 243.874 5.83789C243.558 6.1543 243.399 6.62305 243.399 7.24414V19.584C243.399 20.1699 243.558 20.627 243.874 20.9551C244.202 21.2715 244.659 21.4297 245.245 21.4297H261.733V26ZM290.318 26H283.831L273.548 15.6992H270.331V11.0938H273.548L283.831 0.792969H290.318L277.362 13.3965L290.318 26ZM268.503 26H263.933V0.792969L268.503 0.792969V26ZM115.225 60H98.7363C98.3145 60 97.8574 59.9531 97.3652 59.8594C96.8848 59.7539 96.4043 59.5957 95.9238 59.3848C95.4551 59.1738 95.0039 58.9043 94.5703 58.5762C94.1367 58.2363 93.75 57.832 93.4102 57.3633C93.082 56.8828 92.8184 56.332 92.6191 55.7109C92.4199 55.0781 92.3203 54.3691 92.3203 53.584V41.209C92.3203 40.7871 92.3672 40.3359 92.4609 39.8555C92.5664 39.3633 92.7246 38.8828 92.9355 38.4141C93.1465 37.9336 93.4219 37.4766 93.7617 37.043C94.1016 36.6094 94.5059 36.2285 94.9746 35.9004C95.4551 35.5606 96.0059 35.291 96.627 35.0918C97.248 34.8926 97.9512 34.793 98.7363 34.793H115.225V39.3633H98.7363C98.1387 39.3633 97.6816 39.5215 97.3652 39.8379C97.0488 40.1543 96.8906 40.6231 96.8906 41.2441V53.584C96.8906 54.1699 97.0488 54.627 97.3652 54.9551C97.6934 55.2715 98.1504 55.4297 98.7363 55.4297H115.225V60ZM143.457 49.8047C143.457 51.3398 143.194 52.752 142.666 54.041C142.139 55.3301 141.406 56.4434 140.469 57.3809C139.531 58.3184 138.418 59.0508 137.129 59.5781C135.852 60.0938 134.457 60.3516 132.945 60.3516H126.758C125.246 60.3516 123.846 60.0938 122.557 59.5781C121.268 59.0508 120.154 58.3184 119.217 57.3809C118.279 56.4434 117.541 55.3301 117.002 54.041C116.475 52.752 116.211 51.3398 116.211 49.8047V44.9883C116.211 43.4648 116.475 42.0586 117.002 40.7695C117.541 39.4688 118.279 38.3555 119.217 37.4297C120.154 36.4922 121.268 35.7598 122.557 35.2324C123.846 34.7051 125.246 34.4414 126.758 34.4414H132.945C134.457 34.4414 135.852 34.7051 137.129 35.2324C138.418 35.7598 139.531 36.4922 140.469 37.4297C141.406 38.3555 142.139 39.4688 142.666 40.7695C143.194 42.0586 143.457 43.4648 143.457 44.9883V49.8047ZM138.887 44.9883C138.887 44.0859 138.74 43.2715 138.447 42.5449C138.166 41.8066 137.762 41.1797 137.235 40.6641C136.719 40.1367 136.092 39.7324 135.354 39.4512C134.627 39.1582 133.824 39.0117 132.945 39.0117H126.758C125.867 39.0117 125.053 39.1582 124.315 39.4512C123.588 39.7324 122.961 40.1367 122.434 40.6641C121.906 41.1797 121.496 41.8066 121.203 42.5449C120.922 43.2715 120.781 44.0859 120.781 44.9883V49.8047C120.781 50.707 120.922 51.5273 121.203 52.2656C121.496 52.9922 121.906 53.6191 122.434 54.1465C122.961 54.6621 123.588 55.0664 124.315 55.3594C125.053 55.6406 125.867 55.7813 126.758 55.7813H132.91C133.801 55.7813 134.61 55.6406 135.336 55.3594C136.074 55.0664 136.707 54.6621 137.235 54.1465C137.762 53.6191 138.166 52.9922 138.447 52.2656C138.74 51.5273 138.887 50.707 138.887 49.8047V44.9883ZM171.004 58.0488C171.004 58.377 170.94 58.6816 170.811 58.9629C170.694 59.2441 170.53 59.4902 170.319 59.7012C170.119 59.9004 169.879 60.0586 169.598 60.1758C169.317 60.293 169.018 60.3516 168.701 60.3516C168.42 60.3516 168.133 60.2988 167.84 60.1934C167.559 60.0879 167.307 59.918 167.084 59.6836L150.385 42.2461V60H145.815V36.7441C145.815 36.2754 145.944 35.8535 146.201 35.4785C146.471 35.0918 146.811 34.8047 147.221 34.6172C147.655 34.4414 148.1 34.4004 148.557 34.4941C149.014 34.5762 149.407 34.7871 149.735 35.127L166.434 52.5469V34.793H171.004V58.0488ZM198.393 52.582C198.393 53.4844 198.276 54.2988 198.041 55.0254C197.819 55.7402 197.52 56.3731 197.145 56.9238C196.77 57.4746 196.331 57.9434 195.827 58.3301C195.323 58.7168 194.801 59.0332 194.262 59.2793C193.723 59.5254 193.172 59.707 192.61 59.8242C192.059 59.9414 191.538 60 191.045 60H173.415V55.4297H191.045C191.924 55.4297 192.604 55.1719 193.084 54.6563C193.577 54.1406 193.823 53.4492 193.823 52.582C193.823 52.1602 193.758 51.7734 193.629 51.4219C193.5 51.0703 193.313 50.7656 193.067 50.5078C192.833 50.25 192.54 50.0508 192.188 49.9102C191.848 49.7695 191.467 49.6992 191.045 49.6992H180.534C179.795 49.6992 178.999 49.5703 178.143 49.3125C177.288 49.043 176.491 48.6152 175.752 48.0293C175.026 47.4434 174.416 46.6758 173.924 45.7266C173.444 44.7773 173.204 43.6172 173.204 42.2461C173.204 40.875 173.444 39.7207 173.924 38.7832C174.416 37.834 175.026 37.0664 175.752 36.4805C176.491 35.8828 177.288 35.4551 178.143 35.1973C178.999 34.9277 179.795 34.793 180.534 34.793H196.09V39.3633H180.534C179.666 39.3633 178.987 39.627 178.495 40.1543C178.014 40.6816 177.774 41.3789 177.774 42.2461C177.774 43.125 178.014 43.8223 178.495 44.3379C178.987 44.8418 179.666 45.0938 180.534 45.0938H191.045H191.081C191.573 45.1055 192.094 45.1758 192.645 45.3047C193.196 45.4219 193.741 45.6094 194.28 45.8672C194.831 46.125 195.352 46.4531 195.844 46.8516C196.336 47.2383 196.77 47.707 197.145 48.2578C197.532 48.8086 197.836 49.4414 198.059 50.1563C198.282 50.8711 198.393 51.6797 198.393 52.582ZM224.727 57.6973C224.727 58.0254 224.669 58.3301 224.551 58.6113C224.434 58.8926 224.27 59.1387 224.059 59.3496C223.848 59.5488 223.602 59.707 223.321 59.8242C223.04 59.9414 222.741 60 222.424 60H212.124C211.151 60 210.167 59.8945 209.171 59.6836C208.174 59.4727 207.208 59.1504 206.27 58.7168C205.344 58.2715 204.471 57.709 203.651 57.0293C202.831 56.3496 202.11 55.5469 201.489 54.6211C200.88 53.6836 200.399 52.6172 200.048 51.4219C199.696 50.2148 199.52 48.8731 199.52 47.3965V34.793H204.09V47.3965C204.09 48.6856 204.266 49.7754 204.618 50.666C204.981 51.5566 205.438 52.3008 205.989 52.8984C206.54 53.4961 207.143 53.9649 207.799 54.3047C208.456 54.6445 209.077 54.8965 209.663 55.0606C210.26 55.2246 210.782 55.3301 211.227 55.377C211.684 55.4121 211.983 55.4297 212.124 55.4297H220.157V34.793H224.727V57.6973ZM251.044 60H230.196C229.868 60 229.563 59.9414 229.282 59.8242C229.001 59.707 228.755 59.5488 228.544 59.3496C228.345 59.1387 228.186 58.8926 228.069 58.6113C227.952 58.3301 227.893 58.0254 227.893 57.6973V34.793H232.464V55.4297H251.044V60ZM271.436 39.3633H261.364V60H256.794V39.3633H246.704V34.793H271.436V39.3633ZM277.257 60H272.687V34.793H277.257V60ZM305.63 58.0488C305.63 58.377 305.566 58.6816 305.437 58.9629C305.32 59.2441 305.156 59.4902 304.945 59.7012C304.745 59.9004 304.505 60.0586 304.224 60.1758C303.943 60.293 303.644 60.3516 303.327 60.3516C303.046 60.3516 302.759 60.2988 302.466 60.1934C302.185 60.0879 301.933 59.918 301.71 59.6836L285.011 42.2461V60H280.441V36.7441C280.441 36.2754 280.57 35.8535 280.827 35.4785C281.097 35.0918 281.437 34.8047 281.847 34.6172C282.281 34.4414 282.726 34.4004 283.183 34.4941C283.64 34.5762 284.033 34.7871 284.361 35.127L301.06 52.5469V34.793H305.63V58.0488ZM333.669 57.6973C333.669 58.0254 333.611 58.3301 333.494 58.6113C333.376 58.8926 333.212 59.1387 333.001 59.3496C332.802 59.5488 332.562 59.707 332.281 59.8242C331.999 59.9414 331.695 60 331.367 60H314.878C314.457 60 313.999 59.9531 313.507 59.8594C313.027 59.7539 312.546 59.5957 312.066 59.3848C311.597 59.1738 311.146 58.9043 310.712 58.5762C310.279 58.2363 309.892 57.832 309.552 57.3633C309.224 56.8828 308.96 56.332 308.761 55.7109C308.562 55.0781 308.462 54.3691 308.462 53.584V41.209C308.462 40.7871 308.509 40.3359 308.603 39.8555C308.708 39.3633 308.867 38.8828 309.078 38.4141C309.289 37.9336 309.564 37.4766 309.904 37.043C310.244 36.6094 310.648 36.2285 311.117 35.9004C311.597 35.5606 312.148 35.291 312.769 35.0918C313.39 34.8926 314.093 34.793 314.878 34.793H333.458V39.3633H314.878C314.281 39.3633 313.824 39.5215 313.507 39.8379C313.191 40.1543 313.033 40.6231 313.033 41.2441V53.584C313.033 54.1699 313.191 54.627 313.507 54.9551C313.835 55.2715 314.292 55.4297 314.878 55.4297H329.099V49.6992H316.935V45.0938H331.367C331.695 45.0938 331.999 45.1582 332.281 45.2871C332.562 45.4043 332.802 45.5684 333.001 45.7793C333.212 45.9902 333.376 46.2363 333.494 46.5176C333.611 46.7871 333.669 47.0801 333.669 47.3965V57.6973Z" fill="black"/>
<path fill-rule="evenodd" clip-rule="evenodd" d="M1.11365 11.7246C0.555542 11.1665 0.260773 10.3976 0.302775 9.60941L0.620284 3.65134C0.696035 2.22987 1.83261 1.0949 3.25419 1.02116L9.19985 0.712725C9.98671 0.671906 10.754 0.966664 11.3111 1.52381L28.8313 19.044C29.9177 20.1304 31.6792 20.1304 32.7656 19.044L50.2858 1.52381C50.8429 0.966665 51.6102 0.671906 52.3971 0.712725L58.3427 1.02116C59.7643 1.0949 60.9009 2.22987 60.9766 3.65135L61.2941 9.60941C61.3361 10.3976 61.0414 11.1665 60.4833 11.7246L50.9948 21.2131C49.2422 22.9656 50.4834 25.9622 52.9619 25.9622H57.6761C59.2125 25.9622 60.4581 27.2077 60.4581 28.7442V57.711C60.4581 59.2474 59.2125 60.4929 57.6761 60.4929H48.8163C47.2798 60.4929 46.0343 59.2474 46.0343 57.711V32.8898C46.0343 30.4114 43.0377 29.1701 41.2852 30.9227L36.2054 36.0025C36.1478 36.0601 36.1154 36.1383 36.1154 36.2198V36.2198C36.1154 36.3896 35.9778 36.5272 35.808 36.5272H35.6807H25.9162H25.7889C25.6192 36.5272 25.4816 36.3896 25.4816 36.2198V36.2198C25.4816 36.1383 25.4492 36.0601 25.3915 36.0025L20.4044 31.0153C18.6518 29.2628 15.6553 30.504 15.6553 32.9825V57.711C15.6553 59.2474 14.4097 60.4929 12.8733 60.4929H4.01349C2.47705 60.4929 1.23152 59.2474 1.23152 57.711V28.7442C1.23152 27.2077 2.47705 25.9622 4.01349 25.9622H8.63501C11.1135 25.9622 12.3547 22.9656 10.6022 21.2131L1.11365 11.7246Z" fill="black"/>
</svg>
