<svg width="204" height="76" viewBox="0 0 204 76" fill="none" xmlns="http://www.w3.org/2000/svg">
<path d="M3.06743 12.315C2.45923 12.4208 2.02481 12.6902 1.78898 13.1136C1.65244 13.3541 1.59038 13.6235 1.59038 13.9122C1.59038 14.4703 1.86345 14.9225 2.39717 15.2881C2.94331 15.6441 3.76252 15.8269 4.85479 15.8269C5.94706 15.8269 6.72903 15.6345 7.18828 15.24C7.64753 14.8551 7.87095 14.4125 7.87095 13.9122C7.87095 13.4311 7.68477 13.0366 7.32482 12.7191C6.96486 12.4112 6.4932 12.2188 5.90983 12.1514L5.90983 13.7486L4.42036 13.7486L4.42036 10.8717L9.21147 10.8717L9.21147 11.8243L8.09437 11.9686C8.51639 12.2476 8.81428 12.4978 8.98805 12.7191C9.29836 13.104 9.4473 13.5754 9.4473 14.1335C9.4473 15.0476 9.0377 15.7981 8.21849 16.385C7.39929 17.0008 6.26978 17.2991 4.82997 17.2991C3.39015 17.2991 2.23582 16.9912 1.35455 16.3754C0.485697 15.7596 0.0512697 14.9417 0.0512697 13.9314C0.0512698 13.0559 0.33675 12.3438 0.907711 11.805C1.47867 11.2758 2.21099 10.9679 3.06743 10.8909L3.06743 12.315Z" fill="black"/>
<path d="M6.51482 19.0858L0.271485 19.0858L0.271485 17.7388L9.20827 17.7388L9.20827 19.182L2.86563 22.0109L9.20827 22.0109L9.20827 23.3579L0.271484 23.3579L0.271484 21.8473L6.51482 19.0858Z" fill="black"/>
<path d="M0.271484 25.5547L0.271484 24.1114L9.20827 24.1114L9.20827 25.5547L0.271484 25.5547Z" fill="black"/>
<path d="M1.86025 27.7805L9.20827 27.7805L9.20827 29.243L1.86025 29.243L1.86025 31.3213L0.271484 31.3213L0.271485 25.7118L1.86025 25.7118L1.86025 27.7805Z" fill="black"/>
<path d="M7.60709 33.1391L7.60709 29.7138L9.20827 29.7138L9.20827 34.592L0.271484 34.592L0.271484 33.1391L7.60709 33.1391Z" fill="black"/>
<path d="M5.77009 39.4868C6.37828 39.4868 6.82512 39.4291 7.1106 39.3137C7.6195 39.1405 7.86775 38.7556 7.86775 38.1687C7.86775 37.5817 7.6195 37.2065 7.1106 37.0333C6.82512 36.9178 6.37828 36.8601 5.77009 36.8601L0.271485 36.8601L0.271485 35.388L5.77009 35.388C6.71341 35.388 7.45815 35.5034 7.97946 35.7343C8.94761 36.1577 9.4441 36.9756 9.4441 38.1687C9.4441 39.3714 8.94761 40.1892 7.97946 40.6126C7.45815 40.8435 6.71341 40.959 5.77009 40.959L0.271484 40.959L0.271484 39.4868L5.77009 39.4868Z" fill="black"/>
<path d="M6.46244 45.7505C6.87204 45.7121 7.16993 45.6158 7.38094 45.4908C7.7409 45.2598 7.92708 44.8557 7.92708 44.288C7.92708 43.9416 7.87743 43.6626 7.77813 43.4509C7.59195 43.0468 7.24441 42.8448 6.74792 42.8448C6.45003 42.8448 6.22661 42.941 6.06525 43.143C5.90389 43.3451 5.76736 43.6626 5.64323 44.0956L5.43223 44.8269C5.22122 45.5389 4.9978 46.0392 4.74955 46.3182C4.32754 46.7801 3.69452 47.0206 2.81325 47.0206C2.00646 47.0206 1.34861 46.7897 0.814889 46.3375C0.293577 45.8949 0.0205079 45.231 0.020508 44.3554C0.020508 43.6241 0.268753 42.9987 0.76524 42.4888C1.27414 41.9692 1.99405 41.6998 2.94979 41.6805L2.94979 43.0661C2.40365 43.0949 2.01887 43.2777 1.79545 43.6145C1.64651 43.8358 1.57203 44.1245 1.57203 44.4516C1.57203 44.8269 1.67133 45.1251 1.86993 45.3464C2.05611 45.5677 2.32918 45.6832 2.67672 45.6832C2.99944 45.6832 3.23527 45.5677 3.39663 45.3464C3.49592 45.2117 3.62004 44.9134 3.76899 44.4516L4.12895 43.2585C4.30272 42.7293 4.51372 42.3348 4.78679 42.075C5.19639 41.6613 5.817 41.4496 6.61138 41.4496C7.41818 41.4496 8.10085 41.6901 8.63457 42.1712C9.18071 42.6619 9.45378 43.3451 9.45378 44.2303C9.45378 45.1251 9.18071 45.8371 8.64698 46.3567C8.12567 46.8763 7.39335 47.1265 6.46244 47.1265L6.46244 45.7505Z" fill="black"/>
<path d="M6.51482 48.913L0.271485 48.913L0.271485 47.5659L9.20827 47.5659L9.20827 49.0092L2.86563 51.838L9.20827 51.838L9.20827 53.1851L0.271484 53.1851L0.271484 51.6744L6.51482 48.913Z" fill="black"/>
<path d="M8.41547 54.7471C9.11055 55.2667 9.45809 56.0172 9.45809 57.0083C9.45809 57.9993 9.11055 58.7594 8.41547 59.279C7.55903 59.9814 6.34263 60.3374 4.72905 60.3374C3.09064 60.3374 1.86183 59.9814 1.04262 59.279C0.347542 58.7594 1.02202e-07 57.9993 1.45522e-07 57.0083C1.88842e-07 56.0172 0.347542 55.2667 1.04262 54.7471C1.86183 54.0447 3.09064 53.6984 4.72905 53.6984C6.34263 53.6984 7.55903 54.0447 8.41547 54.7471ZM7.06254 55.642C6.5164 55.3148 5.73443 55.1416 4.72905 55.1416C3.73607 55.1416 2.9541 55.3148 2.40797 55.642C1.86183 55.9883 1.58876 56.4406 1.58876 57.0083C1.58876 57.5856 1.86183 58.0378 2.40797 58.3842C2.9541 58.7306 3.72366 58.8941 4.72905 58.8941C5.73443 58.8941 6.5164 58.7306 7.06254 58.3842C7.60868 58.0378 7.88175 57.5856 7.88175 57.0083C7.88175 56.4406 7.60868 55.9883 7.06254 55.642Z" fill="black"/>
<path d="M1.20507 65.7704C0.472747 65.2027 0.112793 64.4907 0.112793 63.6151C0.112793 62.4509 0.596869 61.6041 1.58984 61.0653C2.13598 60.767 2.69453 60.6035 3.25308 60.5842L3.25308 62.0275C2.81865 62.1237 2.49594 62.2488 2.28493 62.3931C1.90015 62.6529 1.70155 63.0474 1.70155 63.567C1.70155 64.0866 1.97462 64.5003 2.52076 64.8082C3.0669 65.1161 3.84886 65.2604 4.84184 65.2604C5.84723 65.2604 6.60437 65.1065 7.10086 64.7793C7.59735 64.4618 7.84559 64.0481 7.84559 63.5574C7.84559 63.0474 7.63458 62.6625 7.20016 62.3931C6.97674 62.2488 6.6292 62.1333 6.16995 62.0275L6.16995 60.5939C7.1381 60.7286 7.93248 61.0461 8.54068 61.556C9.16129 62.0756 9.45918 62.7395 9.45918 63.5381C9.45918 64.5388 9.04958 65.3182 8.21796 65.8858C7.39875 66.4535 6.25683 66.7422 4.81702 66.7422C3.26549 66.7422 2.0491 66.415 1.20507 65.7704Z" fill="black"/>
<path d="M76.9326 64.665C77.5408 64.5592 77.9752 64.2898 78.211 63.8664C78.3476 63.6259 78.4096 63.3564 78.4096 63.0678C78.4096 62.5097 78.1365 62.0575 77.6028 61.6919C77.0567 61.3359 76.2375 61.153 75.1452 61.153C74.0529 61.153 73.271 61.3455 72.8117 61.74C72.3525 62.1248 72.129 62.5674 72.129 63.0678C72.129 63.5489 72.3152 63.9434 72.6752 64.2609C73.0351 64.5688 73.5068 64.7612 74.0902 64.8286L74.0902 63.2314L75.5796 63.2314L75.5796 66.1083L70.7885 66.1083L70.7885 65.1557L71.9056 65.0114C71.4836 64.7324 71.1857 64.4822 71.0119 64.2609C70.7016 63.876 70.5527 63.4045 70.5527 62.8465C70.5527 61.9324 70.9623 61.1819 71.7815 60.595C72.6007 59.9792 73.7302 59.6809 75.17 59.6809C76.6098 59.6809 77.7642 59.9888 78.6454 60.6046C79.5143 61.2204 79.9487 62.0383 79.9487 63.0485C79.9487 63.9241 79.6632 64.6361 79.0923 65.175C78.5213 65.7042 77.789 66.0121 76.9326 66.089L76.9326 64.665Z" fill="black"/>
<path d="M73.4852 57.8942L79.7285 57.8942L79.7285 59.2412L70.7917 59.2412L70.7917 57.7979L77.1344 54.9691L70.7917 54.9691L70.7917 53.6221L79.7285 53.6221L79.7285 55.1327L73.4852 57.8942Z" fill="black"/>
<path d="M79.7285 51.425L79.7285 52.8683L70.7917 52.8683L70.7917 51.425L79.7285 51.425Z" fill="black"/>
<path d="M78.1398 49.1995L70.7917 49.1995L70.7917 47.737L78.1398 47.737L78.1398 45.6587L79.7285 45.6587L79.7285 51.2682L78.1398 51.2682L78.1398 49.1995Z" fill="black"/>
<path d="M72.3929 43.8403L72.3929 47.2657L70.7917 47.2657L70.7917 42.3875L79.7285 42.3875L79.7285 43.8403L72.3929 43.8403Z" fill="black"/>
<path d="M74.2299 37.4931C73.6217 37.4931 73.1749 37.5509 72.8894 37.6663C72.3805 37.8395 72.1323 38.2244 72.1323 38.8113C72.1323 39.3982 72.3805 39.7735 72.8894 39.9467C73.1749 40.0622 73.6217 40.1199 74.2299 40.1199L79.7285 40.1199L79.7285 41.592L74.2299 41.592C73.2866 41.592 72.5419 41.4766 72.0205 41.2456C71.0524 40.8223 70.5559 40.0044 70.5559 38.8113C70.5559 37.6086 71.0524 36.7907 72.0205 36.3674C72.5419 36.1365 73.2866 36.021 74.2299 36.021L79.7285 36.021L79.7285 37.4931L74.2299 37.4931Z" fill="black"/>
<path d="M73.5376 31.2294C73.128 31.2679 72.8301 31.3641 72.6191 31.4892C72.2591 31.7201 72.0729 32.1243 72.0729 32.6919C72.0729 33.0383 72.1226 33.3174 72.2219 33.529C72.4081 33.9332 72.7556 34.1352 73.2521 34.1352C73.55 34.1352 73.7734 34.039 73.9348 33.8369C74.0961 33.6349 74.2326 33.3174 74.3568 32.8844L74.5678 32.1531C74.7788 31.4411 75.0022 30.9408 75.2504 30.6617C75.6725 30.1999 76.3055 29.9594 77.1867 29.9594C77.9935 29.9594 78.6514 30.1903 79.1851 30.6425C79.7064 31.0851 79.9795 31.749 79.9795 32.6246C79.9795 33.3559 79.7312 33.9813 79.2348 34.4912C78.7259 35.0108 78.006 35.2802 77.0502 35.2995L77.0502 33.9139C77.5963 33.8851 77.9811 33.7022 78.2045 33.3655C78.3535 33.1442 78.428 32.8555 78.428 32.5284C78.428 32.1531 78.3287 31.8549 78.1301 31.6336C77.9439 31.4122 77.6708 31.2968 77.3233 31.2968C77.0006 31.2968 76.7647 31.4122 76.6034 31.6336C76.5041 31.7683 76.38 32.0665 76.231 32.5284L75.8711 33.7215C75.6973 34.2507 75.4863 34.6452 75.2132 34.905C74.8036 35.3187 74.183 35.5304 73.3886 35.5304C72.5818 35.5304 71.8992 35.2898 71.3654 34.8087C70.8193 34.318 70.5462 33.6349 70.5462 32.7497C70.5462 31.8549 70.8193 31.1428 71.353 30.6233C71.8743 30.1037 72.6066 29.8535 73.5376 29.8535L73.5376 31.2294Z" fill="black"/>
<path d="M73.4852 28.067L79.7285 28.067L79.7285 29.4141L70.7917 29.4141L70.7917 27.9708L77.1344 25.142L70.7917 25.142L70.7917 23.7949L79.7285 23.7949L79.7285 25.3055L73.4852 28.067Z" fill="black"/>
<path d="M71.5845 22.2328C70.8894 21.7133 70.5419 20.9628 70.5419 19.9717C70.5419 18.9807 70.8894 18.2206 71.5845 17.701C72.441 16.9986 73.6574 16.6426 75.271 16.6426C76.9094 16.6426 78.1382 16.9986 78.9574 17.701C79.6525 18.2206 80 18.9807 80 19.9717C80 20.9628 79.6525 21.7133 78.9574 22.2328C78.1382 22.9352 76.9094 23.2816 75.271 23.2816C73.6574 23.2816 72.441 22.9352 71.5845 22.2328ZM72.9375 21.338C73.4836 21.6652 74.2656 21.8384 75.271 21.8384C76.2639 21.8384 77.0459 21.6652 77.592 21.338C78.1382 20.9916 78.4112 20.5394 78.4112 19.9717C78.4112 19.3944 78.1382 18.9422 77.592 18.5958C77.0459 18.2494 76.2763 18.0858 75.271 18.0858C74.2656 18.0858 73.4836 18.2494 72.9375 18.5958C72.3913 18.9422 72.1183 19.3944 72.1183 19.9717C72.1183 20.5394 72.3913 20.9916 72.9375 21.338Z" fill="black"/>
<path d="M78.7949 11.2096C79.5273 11.7773 79.8872 12.4893 79.8872 13.3649C79.8872 14.5291 79.4031 15.3758 78.4102 15.9147C77.864 16.2129 77.3055 16.3765 76.7469 16.3958L76.7469 14.9525C77.1813 14.8563 77.5041 14.7312 77.7151 14.5869C78.0999 14.3271 78.2984 13.9326 78.2984 13.413C78.2984 12.8934 78.0254 12.4797 77.4792 12.1718C76.9331 11.8639 76.1511 11.7196 75.1582 11.7196C74.1528 11.7196 73.3956 11.8735 72.8991 12.2006C72.4027 12.5182 72.1544 12.9319 72.1544 13.4226C72.1544 13.9326 72.3654 14.3174 72.7998 14.5868C73.0233 14.7312 73.3708 14.8466 73.8301 14.9525L73.8301 16.3861C72.8619 16.2514 72.0675 15.9339 71.4593 15.4239C70.8387 14.9044 70.5408 14.2405 70.5408 13.4419C70.5408 12.4412 70.9504 11.6618 71.782 11.0941C72.6012 10.5264 73.7432 10.2378 75.183 10.2378C76.7345 10.2378 77.9509 10.5649 78.7949 11.2096Z" fill="black"/>
<path fill-rule="evenodd" clip-rule="evenodd" d="M17.8926 22.6719C17.4628 22.2421 17.2358 21.65 17.2682 21.0431L17.5127 16.455C17.571 15.3604 18.4462 14.4864 19.541 14.4296L24.1195 14.1921C24.7254 14.1607 25.3163 14.3876 25.7453 14.8167L39.2369 28.3083C40.0736 29.1449 41.43 29.1449 42.2666 28.3083L55.7582 14.8167C56.1873 14.3876 56.7781 14.1607 57.384 14.1921L61.9626 14.4296C63.0573 14.4864 63.9325 15.3604 63.9909 16.455L64.2354 21.0431C64.2677 21.65 64.0407 22.2421 63.6109 22.6719L56.3042 29.9787C54.9546 31.3282 55.9104 33.6358 57.819 33.6358H61.4492C62.6324 33.6358 63.5915 34.5949 63.5915 35.7781V58.0843C63.5915 59.2675 62.6324 60.2266 61.4492 60.2266H54.6266C53.4435 60.2266 52.4843 59.2675 52.4843 58.0843V38.9705C52.4843 37.0619 50.1768 36.1061 48.8272 37.4556L44.9154 41.3674C44.8711 41.4118 44.8461 41.472 44.8461 41.5348V41.5348C44.8461 41.6655 44.7401 41.7715 44.6094 41.7715H44.5114H36.9921H36.8941C36.7634 41.7715 36.6574 41.6655 36.6574 41.5348V41.5348C36.6574 41.472 36.6325 41.4118 36.5881 41.3674L32.7477 37.527C31.3981 36.1774 29.0906 37.1332 29.0906 39.0418V58.0843C29.0906 59.2675 28.1314 60.2266 26.9483 60.2266H20.1257C18.9425 60.2266 17.9834 59.2675 17.9834 58.0843V35.7781C17.9834 34.5949 18.9425 33.6358 20.1257 33.6358H23.6845C25.5931 33.6358 26.5489 31.3282 25.1993 29.9787L17.8926 22.6719Z" fill="black"/>
<path d="M62.8784 1.28027H64.5183V4.93996L67.5977 1.28027H69.7517L66.4828 4.93996L69.9195 10.1672H67.7763L65.3138 6.28446L64.5183 7.19486V10.1672H62.8784V1.28027Z" fill="black"/>
<path d="M55.5356 2.08113C56.1978 1.34335 57.0285 0.980713 58.05 0.980713C59.4082 0.980713 60.396 1.4684 61.0246 2.46878C61.3725 3.01899 61.5634 3.5817 61.5858 4.14442H59.9021C59.7898 3.70675 59.6439 3.38163 59.4755 3.16905C59.1724 2.7814 58.7122 2.58132 58.1061 2.58132C57.4999 2.58132 57.0173 2.85643 56.6581 3.40664C56.2989 3.95685 56.1305 4.74465 56.1305 5.74503C56.1305 6.75792 56.3101 7.52071 56.6917 8.0209C57.0622 8.52109 57.5448 8.77118 58.1173 8.77118C58.7122 8.77118 59.1612 8.5586 59.4755 8.12094C59.6439 7.89585 59.7786 7.54572 59.9021 7.08304H61.5746C61.4174 8.05841 61.047 8.85872 60.4521 9.47145C59.8459 10.0967 59.0714 10.3968 58.1398 10.3968C56.9724 10.3968 56.0631 9.98415 55.4009 9.14633C54.7386 8.32101 54.4019 7.17057 54.4019 5.72002C54.4019 4.15692 54.7835 2.93146 55.5356 2.08113Z" fill="black"/>
<path d="M55.5356 2.08113C56.1978 1.34335 57.0285 0.980713 58.05 0.980713C59.4082 0.980713 60.396 1.4684 61.0246 2.46878C61.3725 3.01899 61.5634 3.5817 61.5858 4.14442H59.9021C59.7898 3.70675 59.6439 3.38163 59.4755 3.16905C59.1724 2.7814 58.7122 2.58132 58.1061 2.58132C57.4999 2.58132 57.0173 2.85643 56.6581 3.40664C56.2989 3.95685 56.1305 4.74465 56.1305 5.74503C56.1305 6.75792 56.3101 7.52071 56.6917 8.0209C57.0622 8.52109 57.5448 8.77118 58.1173 8.77118C58.7122 8.77118 59.1612 8.5586 59.4755 8.12094C59.6439 7.89585 59.7786 7.54572 59.9021 7.08304H61.5746C61.4174 8.05841 61.047 8.85872 60.4521 9.47145C59.8459 10.0967 59.0714 10.3968 58.1398 10.3968C56.9724 10.3968 56.0631 9.98415 55.4009 9.14633C54.7386 8.32101 54.4019 7.17057 54.4019 5.72002C54.4019 4.15692 54.7835 2.93146 55.5356 2.08113Z" stroke="black"/>
<path d="M51.4902 1.14355H53.174V10.147H51.4902V1.14355Z" fill="black"/>
<path d="M51.4902 1.14355H53.174V10.147H51.4902V1.14355Z" stroke="black"/>
<path d="M48.8324 1.38115C49.1354 1.5187 49.3936 1.73128 49.6069 2.00638C49.7865 2.23147 49.9212 2.49407 50.0222 2.76917C50.1344 3.04428 50.1793 3.3569 50.1793 3.70703C50.1793 4.1447 50.0783 4.55736 49.8875 4.97001C49.6967 5.38267 49.3712 5.68279 48.9334 5.84535C49.3038 6.00791 49.562 6.2455 49.7191 6.55812C49.8763 6.87074 49.9548 7.33342 49.9548 7.97116V8.57139C49.9548 8.98405 49.9661 9.25915 49.9997 9.40921C50.0446 9.63429 50.1457 9.80936 50.3028 9.9219V10.147H48.4507C48.3946 9.94691 48.3609 9.78435 48.3385 9.6593C48.2936 9.40921 48.2711 9.14661 48.2711 8.88401L48.2599 8.05869C48.2487 7.48347 48.1589 7.09583 47.9793 6.90825C47.7997 6.72068 47.4517 6.62064 46.9578 6.62064H45.2179V10.147H43.5679V1.14355H47.5303C48.0915 1.15606 48.5293 1.24359 48.8324 1.38115ZM47.1262 5.13258C47.5078 5.13258 47.7884 5.08256 47.9793 4.98252C48.316 4.80745 48.4844 4.46982 48.4844 3.96963C48.4844 3.41942 48.316 3.05678 48.0017 2.86921C47.8109 2.76918 47.5415 2.70665 47.1711 2.70665H45.2179V5.13258H47.1262Z" fill="black"/>
<path d="M48.8324 1.38115C49.1354 1.5187 49.3936 1.73128 49.6069 2.00638C49.7865 2.23147 49.9212 2.49407 50.0222 2.76917C50.1344 3.04428 50.1793 3.3569 50.1793 3.70703C50.1793 4.1447 50.0783 4.55736 49.8875 4.97001C49.6967 5.38267 49.3712 5.68279 48.9334 5.84535C49.3038 6.00791 49.562 6.2455 49.7191 6.55812C49.8763 6.87074 49.9548 7.33342 49.9548 7.97116V8.57139C49.9548 8.98405 49.9661 9.25915 49.9997 9.40921C50.0446 9.63429 50.1457 9.80936 50.3028 9.9219V10.147H48.4507C48.3946 9.94691 48.3609 9.78435 48.3385 9.6593C48.2936 9.40921 48.2711 9.14661 48.2711 8.88401L48.2599 8.05869C48.2487 7.48347 48.1589 7.09583 47.9793 6.90825C47.7997 6.72068 47.4517 6.62064 46.9578 6.62064H45.2179V10.147H43.5679V1.14355H47.5303C48.0915 1.15606 48.5293 1.24359 48.8324 1.38115ZM47.1262 5.13258C47.5078 5.13258 47.7884 5.08256 47.9793 4.98252C48.316 4.80745 48.4844 4.46982 48.4844 3.96963C48.4844 3.41942 48.316 3.05678 48.0017 2.86921C47.8109 2.76918 47.5415 2.70665 47.1711 2.70665H45.2179V5.13258H47.1262Z" stroke="black"/>
<path d="M37.7438 4.6574H41.6613V6.22049H37.7438V8.53387H42.2113V10.147H36.0938V1.14355H42.0093V2.74417H37.7438V4.6574Z" fill="black"/>
<path d="M37.7438 4.6574H41.6613V6.22049H37.7438V8.53387H42.2113V10.147H36.0938V1.14355H42.0093V2.74417H37.7438V4.6574Z" stroke="black"/>
<path d="M32.2723 10.147H30.6783L27.9507 1.14355H29.7579L31.509 7.98366L33.2825 1.14355H35.0336L32.2723 10.147Z" fill="black"/>
<path d="M32.2723 10.147H30.6783L27.9507 1.14355H29.7579L31.509 7.98366L33.2825 1.14355H35.0336L32.2723 10.147Z" stroke="black"/>
<path d="M29.234 10.147H27.4043L26.888 8.29628H23.9022L23.3521 10.147H21.5786L24.4634 1.14355H26.3717L29.234 10.147ZM25.4063 3.20684L24.3624 6.74569H26.4166L25.4063 3.20684Z" fill="black"/>
<path d="M29.234 10.147H27.4043L26.888 8.29628H23.9022L23.3521 10.147H21.5786L24.4634 1.14355H26.3717L29.234 10.147ZM25.4063 3.20684L24.3624 6.74569H26.4166L25.4063 3.20684Z" stroke="black"/>
<path d="M20.587 10.147H19.0042V4.05717V4.05714C19.0042 3.88208 19.0042 3.63199 19.0155 3.31938V2.59411L17.4889 10.147H15.85L14.3347 2.59411V3.31938C14.3459 3.632 14.3459 3.8821 14.3459 4.05717V10.147H12.7744V1.14355H15.2214L16.6919 8.22125L18.1511 1.14355H20.587V10.147Z" fill="black"/>
<path d="M20.587 10.147H19.0042V4.05717V4.05714C19.0042 3.88208 19.0042 3.63199 19.0155 3.31938V2.59411L17.4889 10.147H15.85L14.3347 2.59411V3.31938C14.3459 3.632 14.3459 3.8821 14.3459 4.05717V10.147H12.7744V1.14355H15.2214L16.6919 8.22125L18.1511 1.14355H20.587V10.147Z" stroke="black"/>
<path d="M62.8784 66.2402H64.5183V69.8999L67.5977 66.2402H69.7517L66.4828 69.8999L69.9195 75.1272H67.7763L65.3138 71.2444L64.5183 72.1548V75.1272H62.8784V66.2402Z" fill="black"/>
<path d="M55.5356 67.0411C56.1978 66.3033 57.0285 65.9407 58.05 65.9407C59.4082 65.9407 60.396 66.4284 61.0246 67.4287C61.3725 67.979 61.5634 68.5417 61.5858 69.1044H59.9021C59.7898 68.6667 59.6439 68.3416 59.4755 68.129C59.1724 67.7414 58.7122 67.5413 58.1061 67.5413C57.4999 67.5413 57.0173 67.8164 56.6581 68.3666C56.2989 68.9168 56.1305 69.7046 56.1305 70.705C56.1305 71.7179 56.3101 72.4807 56.6917 72.9809C57.0622 73.481 57.5448 73.7311 58.1173 73.7311C58.7122 73.7311 59.1612 73.5186 59.4755 73.0809C59.6439 72.8558 59.7786 72.5057 59.9021 72.043H61.5746C61.4174 73.0184 61.047 73.8187 60.4521 74.4314C59.8459 75.0567 59.0714 75.3568 58.1398 75.3568C56.9724 75.3568 56.0631 74.9441 55.4009 74.1063C54.7386 73.281 54.4019 72.1305 54.4019 70.68C54.4019 69.1169 54.7835 67.8914 55.5356 67.0411Z" fill="black"/>
<path d="M55.5356 67.0411C56.1978 66.3033 57.0285 65.9407 58.05 65.9407C59.4082 65.9407 60.396 66.4284 61.0246 67.4287C61.3725 67.979 61.5634 68.5417 61.5858 69.1044H59.9021C59.7898 68.6667 59.6439 68.3416 59.4755 68.129C59.1724 67.7414 58.7122 67.5413 58.1061 67.5413C57.4999 67.5413 57.0173 67.8164 56.6581 68.3666C56.2989 68.9168 56.1305 69.7046 56.1305 70.705C56.1305 71.7179 56.3101 72.4807 56.6917 72.9809C57.0622 73.481 57.5448 73.7311 58.1173 73.7311C58.7122 73.7311 59.1612 73.5186 59.4755 73.0809C59.6439 72.8558 59.7786 72.5057 59.9021 72.043H61.5746C61.4174 73.0184 61.047 73.8187 60.4521 74.4314C59.8459 75.0567 59.0714 75.3568 58.1398 75.3568C56.9724 75.3568 56.0631 74.9441 55.4009 74.1063C54.7386 73.281 54.4019 72.1305 54.4019 70.68C54.4019 69.1169 54.7835 67.8914 55.5356 67.0411Z" stroke="black"/>
<path d="M51.4902 66.1033H53.174V75.1067H51.4902V66.1033Z" fill="black"/>
<path d="M51.4902 66.1033H53.174V75.1067H51.4902V66.1033Z" stroke="black"/>
<path d="M48.8324 66.3409C49.1354 66.4784 49.3936 66.691 49.6069 66.9661C49.7865 67.1912 49.9212 67.4538 50.0222 67.7289C50.1344 68.004 50.1793 68.3166 50.1793 68.6667C50.1793 69.1044 50.0783 69.5171 49.8875 69.9297C49.6967 70.3424 49.3712 70.6425 48.9334 70.8051C49.3038 70.9676 49.562 71.2052 49.7191 71.5178C49.8763 71.8305 49.9548 72.2931 49.9548 72.9309V73.5311C49.9548 73.9438 49.9661 74.2189 49.9997 74.3689C50.0446 74.594 50.1457 74.7691 50.3028 74.8816V75.1067H48.4507C48.3946 74.9066 48.3609 74.7441 48.3385 74.619C48.2936 74.3689 48.2711 74.1063 48.2711 73.8437L48.2599 73.0184C48.2487 72.4432 48.1589 72.0555 47.9793 71.868C47.7997 71.6804 47.4517 71.5804 46.9578 71.5804H45.2179V75.1067H43.5679V66.1033H47.5303C48.0915 66.1158 48.5293 66.2033 48.8324 66.3409ZM47.1262 70.0923C47.5078 70.0923 47.7884 70.0423 47.9793 69.9422C48.316 69.7672 48.4844 69.4295 48.4844 68.9293C48.4844 68.3791 48.316 68.0165 48.0017 67.8289C47.8109 67.7289 47.5415 67.6664 47.1711 67.6664H45.2179V70.0923H47.1262Z" fill="black"/>
<path d="M48.8324 66.3409C49.1354 66.4784 49.3936 66.691 49.6069 66.9661C49.7865 67.1912 49.9212 67.4538 50.0222 67.7289C50.1344 68.004 50.1793 68.3166 50.1793 68.6667C50.1793 69.1044 50.0783 69.5171 49.8875 69.9297C49.6967 70.3424 49.3712 70.6425 48.9334 70.8051C49.3038 70.9676 49.562 71.2052 49.7191 71.5178C49.8763 71.8305 49.9548 72.2931 49.9548 72.9309V73.5311C49.9548 73.9438 49.9661 74.2189 49.9997 74.3689C50.0446 74.594 50.1457 74.7691 50.3028 74.8816V75.1067H48.4507C48.3946 74.9066 48.3609 74.7441 48.3385 74.619C48.2936 74.3689 48.2711 74.1063 48.2711 73.8437L48.2599 73.0184C48.2487 72.4432 48.1589 72.0555 47.9793 71.868C47.7997 71.6804 47.4517 71.5804 46.9578 71.5804H45.2179V75.1067H43.5679V66.1033H47.5303C48.0915 66.1158 48.5293 66.2033 48.8324 66.3409ZM47.1262 70.0923C47.5078 70.0923 47.7884 70.0423 47.9793 69.9422C48.316 69.7672 48.4844 69.4295 48.4844 68.9293C48.4844 68.3791 48.316 68.0165 48.0017 67.8289C47.8109 67.7289 47.5415 67.6664 47.1711 67.6664H45.2179V70.0923H47.1262Z" stroke="black"/>
<path d="M37.7438 69.6171H41.6613V71.1802H37.7438V73.4936H42.2113V75.1067H36.0938V66.1033H42.0093V67.7039H37.7438V69.6171Z" fill="black"/>
<path d="M37.7438 69.6171H41.6613V71.1802H37.7438V73.4936H42.2113V75.1067H36.0938V66.1033H42.0093V67.7039H37.7438V69.6171Z" stroke="black"/>
<path d="M32.2723 75.1067H30.6783L27.9507 66.1033H29.7579L31.509 72.9434L33.2825 66.1033H35.0336L32.2723 75.1067Z" fill="black"/>
<path d="M32.2723 75.1067H30.6783L27.9507 66.1033H29.7579L31.509 72.9434L33.2825 66.1033H35.0336L32.2723 75.1067Z" stroke="black"/>
<path d="M29.234 75.1067H27.4043L26.888 73.256H23.9022L23.3521 75.1067H21.5786L24.4634 66.1033H26.3717L29.234 75.1067ZM25.4063 68.1666L24.3624 71.7054H26.4166L25.4063 68.1666Z" fill="black"/>
<path d="M29.234 75.1067H27.4043L26.888 73.256H23.9022L23.3521 75.1067H21.5786L24.4634 66.1033H26.3717L29.234 75.1067ZM25.4063 68.1666L24.3624 71.7054H26.4166L25.4063 68.1666Z" stroke="black"/>
<path d="M20.587 75.1067H19.0042V69.0169V69.0169C19.0042 68.8418 19.0042 68.5917 19.0155 68.2791V67.5538L17.4889 75.1067H15.85L14.3347 67.5538V68.2791C14.3459 68.5917 14.3459 68.8418 14.3459 69.0169V75.1067H12.7744V66.1033H15.2214L16.6919 73.181L18.1511 66.1033H20.587V75.1067Z" fill="black"/>
<path d="M20.587 75.1067H19.0042V69.0169V69.0169C19.0042 68.8418 19.0042 68.5917 19.0155 68.2791V67.5538L17.4889 75.1067H15.85L14.3347 67.5538V68.2791C14.3459 68.5917 14.3459 68.8418 14.3459 69.0169V75.1067H12.7744V66.1033H15.2214L16.6919 73.181L18.1511 66.1033H20.587V75.1067Z" stroke="black"/>
<path d="M127.067 11.919C126.459 12.0248 126.025 12.2942 125.789 12.7176C125.652 12.9581 125.59 13.2275 125.59 13.5162C125.59 14.0743 125.863 14.5265 126.397 14.8921C126.943 15.2481 127.763 15.4309 128.855 15.4309C129.947 15.4309 130.729 15.2385 131.188 14.844C131.648 14.4591 131.871 14.0165 131.871 13.5162C131.871 13.0351 131.685 12.6406 131.325 12.3231C130.965 12.0152 130.493 11.8228 129.91 11.7554L129.91 13.3526L128.42 13.3526L128.42 10.4757L133.211 10.4757L133.211 11.4283L132.094 11.5726C132.516 11.8516 132.814 12.1018 132.988 12.3231C133.298 12.708 133.447 13.1794 133.447 13.7375C133.447 14.6516 133.038 15.4021 132.218 15.989C131.399 16.6048 130.27 16.9031 128.83 16.9031C127.39 16.9031 126.236 16.5952 125.355 15.9794C124.486 15.3636 124.051 14.5457 124.051 13.5354C124.051 12.6599 124.337 11.9478 124.908 11.409C125.479 10.8798 126.211 10.5719 127.067 10.4949L127.067 11.919Z" fill="#FF4B00"/>
<path d="M130.515 18.6898L124.271 18.6898L124.271 17.3428L133.208 17.3428L133.208 18.786L126.866 21.6149L133.208 21.6149L133.208 22.9619L124.271 22.9619L124.271 21.4513L130.515 18.6898Z" fill="#FF4B00"/>
<path d="M124.271 25.1584L124.271 23.7152L133.208 23.7152L133.208 25.1584L124.271 25.1584Z" fill="#FF4B00"/>
<path d="M125.86 27.3845L133.208 27.3845L133.208 28.847L125.86 28.847L125.86 30.9253L124.271 30.9253L124.271 25.3158L125.86 25.3158L125.86 27.3845Z" fill="#FF4B00"/>
<path d="M131.607 32.7432L131.607 29.3178L133.208 29.3178L133.208 34.196L124.271 34.196L124.271 32.7431L131.607 32.7432Z" fill="#FF4B00"/>
<path d="M129.77 39.0909C130.378 39.0909 130.825 39.0331 131.111 38.9177C131.62 38.7445 131.868 38.3596 131.868 37.7727C131.868 37.1857 131.62 36.8105 131.111 36.6373C130.825 36.5218 130.378 36.4641 129.77 36.4641L124.271 36.4641L124.271 34.992L129.77 34.992C130.713 34.992 131.458 35.1074 131.979 35.3383C132.948 35.7617 133.444 36.5796 133.444 37.7727C133.444 38.9754 132.948 39.7932 131.979 40.2166C131.458 40.4475 130.713 40.563 129.77 40.563L124.271 40.563L124.271 39.0909L129.77 39.0909Z" fill="#FF4B00"/>
<path d="M130.462 45.3546C130.872 45.3161 131.17 45.2198 131.381 45.0948C131.741 44.8638 131.927 44.4597 131.927 43.892C131.927 43.5456 131.877 43.2666 131.778 43.0549C131.592 42.6508 131.244 42.4488 130.748 42.4488C130.45 42.4488 130.227 42.545 130.065 42.747C129.904 42.9491 129.767 43.2666 129.643 43.6996L129.432 44.4309C129.221 45.1429 128.998 45.6432 128.75 45.9222C128.328 46.3841 127.695 46.6246 126.813 46.6246C126.006 46.6246 125.349 46.3937 124.815 45.9415C124.294 45.4989 124.021 44.835 124.021 43.9594C124.021 43.2281 124.269 42.6027 124.765 42.0928C125.274 41.5732 125.994 41.3038 126.95 41.2845L126.95 42.6701C126.404 42.6989 126.019 42.8817 125.795 43.2185C125.647 43.4398 125.572 43.7285 125.572 44.0556C125.572 44.4309 125.671 44.7291 125.87 44.9504C126.056 45.1717 126.329 45.2872 126.677 45.2872C126.999 45.2872 127.235 45.1717 127.397 44.9504C127.496 44.8157 127.62 44.5175 127.769 44.0556L128.129 42.8625C128.303 42.3333 128.514 41.9388 128.787 41.679C129.196 41.2653 129.817 41.0536 130.611 41.0536C131.418 41.0536 132.101 41.2941 132.635 41.7752C133.181 42.266 133.454 42.9491 133.454 43.8343C133.454 44.7291 133.181 45.4411 132.647 45.9607C132.126 46.4803 131.393 46.7305 130.462 46.7305L130.462 45.3546Z" fill="#FF4B00"/>
<path d="M130.515 48.517L124.271 48.517L124.271 47.1699L133.208 47.1699L133.208 48.6132L126.866 51.442L133.208 51.442L133.208 52.7891L124.271 52.7891L124.271 51.2784L130.515 48.517Z" fill="#FF4B00"/>
<path d="M132.415 54.3511C133.111 54.8707 133.458 55.6212 133.458 56.6123C133.458 57.6033 133.111 58.3634 132.415 58.883C131.559 59.5854 130.343 59.9414 128.729 59.9414C127.091 59.9414 125.862 59.5854 125.043 58.883C124.348 58.3634 124 57.6033 124 56.6123C124 55.6212 124.348 54.8707 125.043 54.3511C125.862 53.6487 127.091 53.3024 128.729 53.3024C130.343 53.3024 131.559 53.6487 132.415 54.3511ZM131.063 55.246C130.516 54.9188 129.734 54.7456 128.729 54.7456C127.736 54.7456 126.954 54.9188 126.408 55.246C125.862 55.5923 125.589 56.0446 125.589 56.6123C125.589 57.1896 125.862 57.6418 126.408 57.9882C126.954 58.3346 127.724 58.4981 128.729 58.4981C129.734 58.4981 130.516 58.3346 131.063 57.9882C131.609 57.6418 131.882 57.1896 131.882 56.6123C131.882 56.0446 131.609 55.5923 131.063 55.246Z" fill="#FF4B00"/>
<path d="M125.205 65.3744C124.473 64.8067 124.113 64.0947 124.113 63.2191C124.113 62.0549 124.597 61.2081 125.59 60.6693C126.136 60.371 126.695 60.2075 127.253 60.1882L127.253 61.6315C126.819 61.7277 126.496 61.8528 126.285 61.9971C125.9 62.2569 125.702 62.6514 125.702 63.171C125.702 63.6906 125.975 64.1043 126.521 64.4122C127.067 64.7201 127.849 64.8644 128.842 64.8644C129.847 64.8644 130.604 64.7105 131.101 64.3833C131.597 64.0658 131.846 63.6521 131.846 63.1614C131.846 62.6514 131.635 62.2665 131.2 61.9971C130.977 61.8528 130.629 61.7373 130.17 61.6315L130.17 60.1979C131.138 60.3326 131.932 60.6501 132.541 61.16C133.161 61.6796 133.459 62.3435 133.459 63.1421C133.459 64.1428 133.05 64.9222 132.218 65.4899C131.399 66.0575 130.257 66.3462 128.817 66.3462C127.265 66.3462 126.049 66.019 125.205 65.3744Z" fill="#FF4B00"/>
<path d="M200.933 64.269C201.541 64.1632 201.975 63.8938 202.211 63.4704C202.348 63.2299 202.41 62.9604 202.41 62.6718C202.41 62.1137 202.137 61.6615 201.603 61.2959C201.057 60.9399 200.237 60.7571 199.145 60.7571C198.053 60.7571 197.271 60.9495 196.812 61.344C196.352 61.7289 196.129 62.1715 196.129 62.6718C196.129 63.1529 196.315 63.5474 196.675 63.8649C197.035 64.1728 197.507 64.3652 198.09 64.4326L198.09 62.8354L199.58 62.8354L199.58 65.7123L194.789 65.7123L194.789 64.7597L195.906 64.6154C195.484 64.3364 195.186 64.0862 195.012 63.8649C194.702 63.48 194.553 63.0086 194.553 62.4505C194.553 61.5364 194.962 60.7859 195.782 60.199C196.601 59.5832 197.73 59.2849 199.17 59.2849C200.61 59.2849 201.764 59.5928 202.645 60.2086C203.514 60.8244 203.949 61.6423 203.949 62.6525C203.949 63.5281 203.663 64.2401 203.092 64.779C202.521 65.3082 201.789 65.6161 200.933 65.693L200.933 64.269Z" fill="#FF4B00"/>
<path d="M197.485 57.4982L203.729 57.4982L203.729 58.8452L194.792 58.8452L194.792 57.4019L201.134 54.5731L194.792 54.5731L194.792 53.2261L203.729 53.2261L203.729 54.7367L197.485 57.4982Z" fill="#FF4B00"/>
<path d="M203.729 51.0291L203.729 52.4723L194.792 52.4723L194.792 51.0291L203.729 51.0291Z" fill="#FF4B00"/>
<path d="M202.14 48.8035L194.792 48.8035L194.792 47.341L202.14 47.341L202.14 45.2627L203.729 45.2627L203.729 50.8722L202.14 50.8722L202.14 48.8035Z" fill="#FF4B00"/>
<path d="M196.393 43.4443L196.393 46.8697L194.792 46.8697L194.792 41.9915L203.729 41.9915L203.729 43.4444L196.393 43.4443Z" fill="#FF4B00"/>
<path d="M198.23 37.0971C197.622 37.0971 197.175 37.1549 196.889 37.2703C196.38 37.4435 196.132 37.8284 196.132 38.4153C196.132 39.0023 196.38 39.3775 196.889 39.5507C197.175 39.6662 197.622 39.7239 198.23 39.7239L203.729 39.7239L203.729 41.196L198.23 41.196C197.287 41.196 196.542 41.0806 196.021 40.8496C195.052 40.4263 194.556 39.6084 194.556 38.4153C194.556 37.2126 195.052 36.3947 196.021 35.9714C196.542 35.7405 197.287 35.625 198.23 35.625L203.729 35.625L203.729 37.0971L198.23 37.0971Z" fill="#FF4B00"/>
<path d="M197.538 30.8334C197.128 30.8719 196.83 30.9681 196.619 31.0932C196.259 31.3242 196.073 31.7283 196.073 32.296C196.073 32.6423 196.123 32.9214 196.222 33.133C196.408 33.5372 196.756 33.7392 197.252 33.7392C197.55 33.7392 197.773 33.643 197.935 33.4409C198.096 33.2389 198.233 32.9214 198.357 32.4884L198.568 31.7571C198.779 31.0451 199.002 30.5448 199.25 30.2658C199.672 29.8039 200.305 29.5634 201.187 29.5634C201.994 29.5634 202.651 29.7943 203.185 30.2465C203.706 30.6891 203.979 31.353 203.979 32.2286C203.979 32.9599 203.731 33.5853 203.235 34.0952C202.726 34.6148 202.006 34.8842 201.05 34.9035L201.05 33.5179C201.596 33.4891 201.981 33.3062 202.205 32.9695C202.353 32.7482 202.428 32.4595 202.428 32.1324C202.428 31.7571 202.329 31.4589 202.13 31.2376C201.944 31.0163 201.671 30.9008 201.323 30.9008C201.001 30.9008 200.765 31.0163 200.603 31.2376C200.504 31.3723 200.38 31.6705 200.231 32.1324L199.871 33.3255C199.697 33.8547 199.486 34.2492 199.213 34.509C198.804 34.9227 198.183 35.1344 197.389 35.1344C196.582 35.1344 195.899 34.8938 195.365 34.4127C194.819 33.922 194.546 33.2389 194.546 32.3537C194.546 31.4589 194.819 30.7468 195.353 30.2273C195.874 29.7077 196.607 29.4575 197.538 29.4575L197.538 30.8334Z" fill="#FF4B00"/>
<path d="M197.485 27.671L203.729 27.671L203.729 29.0181L194.792 29.0181L194.792 27.5748L201.134 24.746L194.792 24.746L194.792 23.3989L203.729 23.3989L203.729 24.9096L197.485 27.671Z" fill="#FF4B00"/>
<path d="M195.585 21.8369C194.889 21.3173 194.542 20.5668 194.542 19.5757C194.542 18.5847 194.889 17.8246 195.585 17.305C196.441 16.6026 197.657 16.2466 199.271 16.2466C200.909 16.2466 202.138 16.6026 202.957 17.305C203.652 17.8246 204 18.5847 204 19.5757C204 20.5668 203.652 21.3173 202.957 21.8369C202.138 22.5392 200.909 22.8856 199.271 22.8856C197.657 22.8856 196.441 22.5392 195.585 21.8369ZM196.937 20.942C197.484 21.2692 198.266 21.4424 199.271 21.4424C200.264 21.4424 201.046 21.2692 201.592 20.942C202.138 20.5956 202.411 20.1434 202.411 19.5757C202.411 18.9984 202.138 18.5462 201.592 18.1998C201.046 17.8534 200.276 17.6899 199.271 17.6899C198.266 17.6899 197.484 17.8534 196.937 18.1998C196.391 18.5462 196.118 18.9984 196.118 19.5757C196.118 20.1434 196.391 20.5956 196.937 20.942Z" fill="#FF4B00"/>
<path d="M202.795 10.8136C203.527 11.3813 203.887 12.0933 203.887 12.9689C203.887 14.1331 203.403 14.9798 202.41 15.5187C201.864 15.8169 201.305 15.9805 200.747 15.9998L200.747 14.5565C201.181 14.4603 201.504 14.3352 201.715 14.1909C202.1 13.9311 202.298 13.5366 202.298 13.017C202.298 12.4974 202.025 12.0837 201.479 11.7758C200.933 11.4679 200.151 11.3236 199.158 11.3236C198.153 11.3236 197.396 11.4775 196.899 11.8046C196.403 12.1222 196.154 12.5359 196.154 13.0266C196.154 13.5366 196.365 13.9214 196.8 14.1909C197.023 14.3352 197.371 14.4506 197.83 14.5565L197.83 15.9901C196.862 15.8554 196.068 15.5379 195.459 15.028C194.839 14.5084 194.541 13.8445 194.541 13.0459C194.541 12.0452 194.95 11.2658 195.782 10.6981C196.601 10.1305 197.743 9.8418 199.183 9.8418C200.735 9.8418 201.951 10.1689 202.795 10.8136Z" fill="#FF4B00"/>
<path d="M185.897 15.9177V22.5247C185.897 23.4825 185.037 24.3306 183.884 24.3306L152.266 24.3306C150.644 24.3306 149.253 25.5473 149.253 27.1365L149.253 46.4884C149.253 48.0776 150.644 49.2943 152.266 49.2943H183.884C185.037 49.2943 185.897 50.1424 185.897 51.1002V57.7072C185.897 58.665 185.037 59.5131 183.884 59.5131H151.368C150.215 59.5131 149.355 58.665 149.355 57.7072V52.0429C149.355 50.4537 147.965 49.237 146.343 49.237H140.041C138.888 49.237 138.028 48.3889 138.028 47.4311L138.028 26.2062C138.028 25.2484 138.888 24.4003 140.041 24.4003L146.343 24.4003C147.965 24.4003 149.355 23.1836 149.355 21.5944V15.9177C149.355 14.9599 150.215 14.1118 151.368 14.1118L183.884 14.1118C185.037 14.1118 185.897 14.9599 185.897 15.9177Z" fill="#FF4B00" stroke="#FF4B00"/>
<path d="M186.374 0.952148H188.013V4.61183L191.093 0.952148H193.247L189.978 4.61183L193.415 9.83909H191.271L188.809 5.95633L188.013 6.86673V9.83909H186.374V0.952148Z" fill="#FF4B00"/>
<path d="M179.031 1.75301C179.693 1.01523 180.524 0.652588 181.545 0.652588C182.903 0.652588 183.891 1.14027 184.52 2.14066C184.868 2.69086 185.058 3.25358 185.081 3.81629H183.397C183.285 3.37863 183.139 3.0535 182.971 2.84092C182.668 2.45327 182.207 2.2532 181.601 2.2532C180.995 2.2532 180.512 2.5283 180.153 3.07851C179.794 3.62872 179.626 4.41652 179.626 5.4169C179.626 6.42979 179.805 7.19258 180.187 7.69277C180.557 8.19296 181.04 8.44306 181.612 8.44306C182.207 8.44306 182.656 8.23048 182.971 7.79281C183.139 7.56772 183.274 7.21759 183.397 6.75491H185.07C184.913 7.73029 184.542 8.53059 183.947 9.14333C183.341 9.76856 182.567 10.0687 181.635 10.0687C180.467 10.0687 179.558 9.65602 178.896 8.8182C178.234 7.99289 177.897 6.84245 177.897 5.3919C177.897 3.8288 178.279 2.60333 179.031 1.75301Z" fill="#FF4B00"/>
<path d="M174.985 0.81543H176.669V9.81886H174.985V0.81543Z" fill="#FF4B00"/>
<path d="M172.327 1.05302C172.631 1.19057 172.889 1.40315 173.102 1.67826C173.282 1.90334 173.416 2.16594 173.517 2.44105C173.63 2.71615 173.674 3.02877 173.674 3.37891C173.674 3.81657 173.573 4.22923 173.383 4.64189C173.192 5.05455 172.866 5.35466 172.428 5.51722C172.799 5.67978 173.057 5.91738 173.214 6.23C173.371 6.54261 173.45 7.00529 173.45 7.64303V8.24326C173.45 8.65592 173.461 8.93103 173.495 9.08108C173.54 9.30617 173.641 9.48123 173.798 9.59378V9.81886H171.946C171.89 9.61879 171.856 9.45623 171.834 9.33118C171.789 9.08108 171.766 8.81848 171.766 8.55588L171.755 7.73057C171.744 7.15535 171.654 6.7677 171.474 6.58013C171.295 6.39256 170.947 6.29252 170.453 6.29252H168.713V9.81886H167.063V0.81543H171.025C171.587 0.827934 172.024 0.915468 172.327 1.05302ZM170.621 4.80445C171.003 4.80445 171.284 4.75443 171.474 4.65439C171.811 4.47933 171.979 4.1417 171.979 3.64151C171.979 3.0913 171.811 2.72866 171.497 2.54109C171.306 2.44105 171.037 2.37853 170.666 2.37853H168.713V4.80445H170.621Z" fill="#FF4B00"/>
<path d="M161.239 4.32927H165.156V5.89237H161.239V8.20575H165.706V9.81886H159.589V0.81543H165.504V2.41604H161.239V4.32927Z" fill="#FF4B00"/>
<path d="M155.767 9.81886H154.173L151.446 0.81543H153.253L155.004 7.65554L156.778 0.81543H158.529L155.767 9.81886Z" fill="#FF4B00"/>
<path d="M152.729 9.81886H150.899L150.383 7.96816H147.397L146.847 9.81886H145.074L147.959 0.81543H149.867L152.729 9.81886ZM148.901 2.87872L147.858 6.41757H149.912L148.901 2.87872Z" fill="#FF4B00"/>
<path d="M144.082 9.81886H142.499V3.72904C142.499 3.55397 142.499 3.30388 142.511 2.99126V2.26598L140.984 9.81886H139.345L137.83 2.26598V2.99126C137.841 3.30388 137.841 3.55397 137.841 3.72904V9.81886H136.27V0.81543H138.717L140.187 7.89313L141.646 0.81543H144.082V9.81886Z" fill="#FF4B00"/>
<path d="M186.374 66.5679H188.013V70.2276L191.093 66.5679H193.247L189.978 70.2276L193.415 75.4548H191.271L188.809 71.5721L188.013 72.4825V75.4548H186.374V66.5679Z" fill="#FF4B00"/>
<path d="M179.031 67.3687C179.693 66.6309 180.524 66.2683 181.545 66.2683C182.903 66.2683 183.891 66.756 184.52 67.7564C184.868 68.3066 185.058 68.8693 185.081 69.432H183.397C183.285 68.9944 183.139 68.6692 182.971 68.4566C182.668 68.069 182.207 67.8689 181.601 67.8689C180.995 67.8689 180.512 68.144 180.153 68.6942C179.794 69.2444 179.626 70.0322 179.626 71.0326C179.626 72.0455 179.805 72.8083 180.187 73.3085C180.557 73.8087 181.04 74.0588 181.612 74.0588C182.207 74.0588 182.656 73.8462 182.971 73.4085C183.139 73.1834 183.274 72.8333 183.397 72.3706H185.07C184.913 73.346 184.542 74.1463 183.947 74.759C183.341 75.3843 182.567 75.6844 181.635 75.6844C180.467 75.6844 179.558 75.2717 178.896 74.4339C178.234 73.6086 177.897 72.4582 177.897 71.0076C177.897 69.4445 178.279 68.2191 179.031 67.3687Z" fill="#FF4B00"/>
<path d="M174.985 66.4312H176.669V75.4346H174.985V66.4312Z" fill="#FF4B00"/>
<path d="M172.327 66.6687C172.631 66.8063 172.889 67.0189 173.102 67.294C173.282 67.5191 173.416 67.7817 173.517 68.0568C173.63 68.3319 173.674 68.6445 173.674 68.9946C173.674 69.4323 173.573 69.845 173.383 70.2576C173.192 70.6703 172.866 70.9704 172.428 71.1329C172.799 71.2955 173.057 71.5331 173.214 71.8457C173.371 72.1583 173.45 72.621 173.45 73.2588V73.859C173.45 74.2716 173.461 74.5467 173.495 74.6968C173.54 74.9219 173.641 75.097 173.798 75.2095V75.4346H171.946C171.89 75.2345 171.856 75.0719 171.834 74.9469C171.789 74.6968 171.766 74.4342 171.766 74.1716L171.755 73.3463C171.744 72.7711 171.654 72.3834 171.474 72.1959C171.295 72.0083 170.947 71.9082 170.453 71.9082H168.713V75.4346H167.063V66.4312H171.025C171.587 66.4437 172.024 66.5312 172.327 66.6687ZM170.621 70.4202C171.003 70.4202 171.284 70.3702 171.474 70.2701C171.811 70.095 171.979 69.7574 171.979 69.2572C171.979 68.707 171.811 68.3444 171.497 68.1568C171.306 68.0568 171.037 67.9942 170.666 67.9942H168.713V70.4202H170.621Z" fill="#FF4B00"/>
<path d="M161.239 69.945H165.156V71.5081H161.239V73.8215H165.706V75.4346H159.589V66.4312H165.504V68.0318H161.239V69.945Z" fill="#FF4B00"/>
<path d="M155.767 75.4346H154.173L151.446 66.4312H153.253L155.004 73.2713L156.778 66.4312H158.529L155.767 75.4346Z" fill="#FF4B00"/>
<path d="M152.729 75.4346H150.899L150.383 73.5839H147.397L146.847 75.4346H145.074L147.959 66.4312H149.867L152.729 75.4346ZM148.901 68.4944L147.858 72.0333H149.912L148.901 68.4944Z" fill="#FF4B00"/>
<path d="M144.082 75.4346H142.499V69.3448C142.499 69.1697 142.499 68.9196 142.511 68.607V67.8817L140.984 75.4346H139.345L137.83 67.8817V68.607C137.841 68.9196 137.841 69.1697 137.841 69.3448V75.4346H136.27V66.4312H138.717L140.187 73.5089L141.646 66.4312H144.082V75.4346Z" fill="#FF4B00"/>
</svg>
