<svg width="204" height="76" viewBox="0 0 204 76" fill="none" xmlns="http://www.w3.org/2000/svg">
<path d="M3.06743 11.6624C2.45923 11.7682 2.02481 12.0376 1.78898 12.461C1.65244 12.7015 1.59038 12.971 1.59038 13.2596C1.59038 13.8177 1.86345 14.2699 2.39717 14.6355C2.94331 14.9915 3.76252 15.1743 4.85479 15.1743C5.94706 15.1743 6.72903 14.9819 7.18828 14.5874C7.64753 14.2025 7.87095 13.7599 7.87095 13.2596C7.87095 12.7785 7.68477 12.384 7.32482 12.0665C6.96486 11.7586 6.4932 11.5662 5.90983 11.4988L5.90983 13.096L4.42036 13.096L4.42036 10.2191L9.21147 10.2191L9.21147 11.1717L8.09437 11.316C8.51639 11.595 8.81428 11.8452 8.98805 12.0665C9.29836 12.4514 9.4473 12.9228 9.4473 13.4809C9.4473 14.395 9.0377 15.1455 8.21849 15.7324C7.39929 16.3482 6.26978 16.6465 4.82997 16.6465C3.39015 16.6465 2.23582 16.3386 1.35455 15.7228C0.485697 15.107 0.0512697 14.2891 0.0512697 13.2788C0.0512698 12.4033 0.33675 11.6913 0.907711 11.1524C1.47867 10.6232 2.21099 10.3153 3.06743 10.2384L3.06743 11.6624Z" fill="#FF4B00"/>
<path d="M6.51482 18.4332L0.271485 18.4332L0.271485 17.0862L9.20827 17.0862L9.20827 18.5295L2.86563 21.3583L9.20827 21.3583L9.20827 22.7053L0.271484 22.7053L0.271484 21.1947L6.51482 18.4332Z" fill="#FF4B00"/>
<path d="M0.271484 24.9021L0.271484 23.4588L9.20827 23.4588L9.20827 24.9021L0.271484 24.9021Z" fill="#FF4B00"/>
<path d="M1.86025 27.1279L9.20827 27.1279L9.20827 28.5904L1.86025 28.5904L1.86025 30.6687L0.271484 30.6687L0.271485 25.0592L1.86025 25.0592L1.86025 27.1279Z" fill="#FF4B00"/>
<path d="M7.60709 32.4866L7.60709 29.0612L9.20827 29.0612L9.20827 33.9395L0.271484 33.9395L0.271484 32.4866L7.60709 32.4866Z" fill="#FF4B00"/>
<path d="M5.77009 38.8343C6.37828 38.8343 6.82512 38.7765 7.1106 38.6611C7.6195 38.4879 7.86775 38.103 7.86775 37.5161C7.86775 36.9291 7.6195 36.5539 7.1106 36.3807C6.82512 36.2652 6.37828 36.2075 5.77009 36.2075L0.271485 36.2075L0.271485 34.7354L5.77009 34.7354C6.71341 34.7354 7.45815 34.8508 7.97946 35.0818C8.94761 35.5051 9.4441 36.323 9.4441 37.5161C9.4441 38.7188 8.94761 39.5367 7.97946 39.96C7.45815 40.1909 6.71341 40.3064 5.77009 40.3064L0.271484 40.3064L0.271484 38.8343L5.77009 38.8343Z" fill="#FF4B00"/>
<path d="M6.46244 45.098C6.87204 45.0595 7.16993 44.9633 7.38094 44.8382C7.7409 44.6072 7.92708 44.2031 7.92708 43.6354C7.92708 43.2891 7.87743 43.01 7.77813 42.7983C7.59195 42.3942 7.24441 42.1922 6.74792 42.1922C6.45003 42.1922 6.22661 42.2884 6.06525 42.4904C5.90389 42.6925 5.76736 43.01 5.64323 43.443L5.43223 44.1743C5.22122 44.8863 4.9978 45.3866 4.74955 45.6656C4.32754 46.1275 3.69452 46.368 2.81325 46.368C2.00646 46.368 1.34861 46.1371 0.814889 45.6849C0.293577 45.2423 0.0205079 44.5784 0.020508 43.7028C0.020508 42.9715 0.268753 42.3461 0.76524 41.8362C1.27414 41.3166 1.99405 41.0472 2.94979 41.0279L2.94979 42.4135C2.40365 42.4423 2.01887 42.6252 1.79545 42.9619C1.64651 43.1832 1.57203 43.4719 1.57203 43.799C1.57203 44.1743 1.67133 44.4725 1.86993 44.6938C2.05611 44.9151 2.32918 45.0306 2.67672 45.0306C2.99944 45.0306 3.23527 44.9151 3.39663 44.6938C3.49592 44.5591 3.62004 44.2609 3.76899 43.799L4.12895 42.6059C4.30272 42.0767 4.51372 41.6822 4.78679 41.4224C5.19639 41.0087 5.817 40.797 6.61138 40.797C7.41818 40.797 8.10085 41.0376 8.63457 41.5186C9.18071 42.0094 9.45378 42.6925 9.45378 43.5777C9.45378 44.4725 9.18071 45.1846 8.64698 45.7041C8.12567 46.2237 7.39335 46.4739 6.46244 46.4739L6.46244 45.098Z" fill="#FF4B00"/>
<path d="M6.51482 48.2604L0.271485 48.2604L0.271485 46.9133L9.20827 46.9133L9.20827 48.3566L2.86563 51.1854L9.20827 51.1854L9.20827 52.5325L0.271484 52.5325L0.271484 51.0218L6.51482 48.2604Z" fill="#FF4B00"/>
<path d="M8.41547 54.0945C9.11055 54.6141 9.45809 55.3646 9.45809 56.3557C9.45809 57.3467 9.11055 58.1068 8.41547 58.6264C7.55903 59.3288 6.34263 59.6848 4.72905 59.6848C3.09064 59.6848 1.86183 59.3288 1.04262 58.6264C0.347542 58.1068 1.02202e-07 57.3467 1.45522e-07 56.3557C1.88842e-07 55.3646 0.347542 54.6141 1.04262 54.0945C1.86183 53.3922 3.09064 53.0458 4.72905 53.0458C6.34263 53.0458 7.55903 53.3922 8.41547 54.0945ZM7.06254 54.9894C6.5164 54.6622 5.73443 54.489 4.72905 54.489C3.73607 54.489 2.9541 54.6622 2.40797 54.9894C1.86183 55.3358 1.58876 55.788 1.58876 56.3557C1.58876 56.933 1.86183 57.3852 2.40797 57.7316C2.9541 58.078 3.72366 58.2415 4.72905 58.2415C5.73443 58.2415 6.5164 58.078 7.06254 57.7316C7.60868 57.3852 7.88175 56.933 7.88175 56.3557C7.88175 55.788 7.60868 55.3358 7.06254 54.9894Z" fill="#FF4B00"/>
<path d="M1.20507 65.1178C0.472747 64.5501 0.112793 63.8381 0.112793 62.9625C0.112793 61.7983 0.596869 60.9516 1.58984 60.4127C2.13598 60.1145 2.69453 59.9509 3.25308 59.9316L3.25308 61.3749C2.81865 61.4711 2.49594 61.5962 2.28493 61.7405C1.90015 62.0003 1.70155 62.3948 1.70155 62.9144C1.70155 63.434 1.97462 63.8477 2.52076 64.1556C3.0669 64.4635 3.84886 64.6078 4.84184 64.6078C5.84723 64.6078 6.60437 64.4539 7.10086 64.1268C7.59735 63.8092 7.84559 63.3955 7.84559 62.9048C7.84559 62.3948 7.63458 62.01 7.20016 61.7405C6.97674 61.5962 6.6292 61.4808 6.16995 61.3749L6.16995 59.9413C7.1381 60.076 7.93248 60.3935 8.54068 60.9034C9.16129 61.423 9.45918 62.0869 9.45918 62.8855C9.45918 63.8862 9.04958 64.6656 8.21796 65.2333C7.39875 65.8009 6.25683 66.0896 4.81702 66.0896C3.26549 66.0896 2.0491 65.7625 1.20507 65.1178Z" fill="#FF4B00"/>
<path d="M76.9326 64.0124C77.5408 63.9066 77.9752 63.6372 78.211 63.2138C78.3476 62.9733 78.4096 62.7039 78.4096 62.4152C78.4096 61.8571 78.1365 61.4049 77.6028 61.0393C77.0567 60.6833 76.2375 60.5005 75.1452 60.5005C74.0529 60.5005 73.271 60.6929 72.8117 61.0874C72.3525 61.4723 72.129 61.9149 72.129 62.4152C72.129 62.8963 72.3152 63.2908 72.6752 63.6083C73.0351 63.9162 73.5068 64.1086 74.0902 64.176L74.0902 62.5788L75.5796 62.5788L75.5796 65.4557L70.7885 65.4557L70.7885 64.5031L71.9056 64.3588C71.4836 64.0798 71.1857 63.8296 71.0119 63.6083C70.7016 63.2234 70.5527 62.752 70.5527 62.1939C70.5527 61.2798 70.9623 60.5293 71.7815 59.9424C72.6007 59.3266 73.7302 59.0283 75.17 59.0283C76.6098 59.0283 77.7642 59.3362 78.6454 59.952C79.5143 60.5678 79.9487 61.3857 79.9487 62.396C79.9487 63.2715 79.6632 63.9836 79.0923 64.5224C78.5213 65.0516 77.789 65.3595 76.9326 65.4364L76.9326 64.0124Z" fill="#FF4B00"/>
<path d="M73.4852 57.2416L79.7285 57.2416L79.7285 58.5886L70.7917 58.5886L70.7917 57.1453L77.1344 54.3165L70.7917 54.3165L70.7917 52.9695L79.7285 52.9695L79.7285 54.4801L73.4852 57.2416Z" fill="#FF4B00"/>
<path d="M79.7285 50.7725L79.7285 52.2157L70.7917 52.2157L70.7917 50.7725L79.7285 50.7725Z" fill="#FF4B00"/>
<path d="M78.1398 48.5469L70.7917 48.5469L70.7917 47.0844L78.1398 47.0844L78.1398 45.0061L79.7285 45.0061L79.7285 50.6156L78.1398 50.6156L78.1398 48.5469Z" fill="#FF4B00"/>
<path d="M72.3929 43.1878L72.3929 46.6131L70.7917 46.6131L70.7917 41.7349L79.7285 41.7349L79.7285 43.1878L72.3929 43.1878Z" fill="#FF4B00"/>
<path d="M74.2299 36.8405C73.6217 36.8405 73.1749 36.8983 72.8894 37.0137C72.3805 37.1869 72.1323 37.5718 72.1323 38.1587C72.1323 38.7457 72.3805 39.1209 72.8894 39.2941C73.1749 39.4096 73.6217 39.4673 74.2299 39.4673L79.7285 39.4673L79.7285 40.9394L74.2299 40.9394C73.2866 40.9394 72.5419 40.824 72.0205 40.593C71.0524 40.1697 70.5559 39.3518 70.5559 38.1587C70.5559 36.956 71.0524 36.1382 72.0205 35.7148C72.5419 35.4839 73.2866 35.3684 74.2299 35.3684L79.7285 35.3684L79.7285 36.8405L74.2299 36.8405Z" fill="#FF4B00"/>
<path d="M73.5376 30.5768C73.128 30.6153 72.8301 30.7116 72.6191 30.8366C72.2591 31.0676 72.0729 31.4717 72.0729 32.0394C72.0729 32.3857 72.1226 32.6648 72.2219 32.8765C72.4081 33.2806 72.7556 33.4826 73.2521 33.4826C73.55 33.4826 73.7734 33.3864 73.9348 33.1844C74.0961 32.9823 74.2326 32.6648 74.3568 32.2318L74.5678 31.5005C74.7788 30.7885 75.0022 30.2882 75.2504 30.0092C75.6725 29.5473 76.3055 29.3068 77.1867 29.3068C77.9935 29.3068 78.6514 29.5377 79.1851 29.9899C79.7064 30.4325 79.9795 31.0964 79.9795 31.972C79.9795 32.7033 79.7312 33.3287 79.2348 33.8386C78.7259 34.3582 78.006 34.6276 77.0502 34.6469L77.0502 33.2613C77.5963 33.2325 77.9811 33.0497 78.2045 32.7129C78.3535 32.4916 78.428 32.2029 78.428 31.8758C78.428 31.5005 78.3287 31.2023 78.1301 30.981C77.9439 30.7597 77.6708 30.6442 77.3233 30.6442C77.0006 30.6442 76.7647 30.7597 76.6034 30.981C76.5041 31.1157 76.38 31.4139 76.231 31.8758L75.8711 33.0689C75.6973 33.5981 75.4863 33.9926 75.2132 34.2524C74.8036 34.6661 74.183 34.8778 73.3886 34.8778C72.5818 34.8778 71.8992 34.6372 71.3654 34.1562C70.8193 33.6654 70.5462 32.9823 70.5462 32.0971C70.5462 31.2023 70.8193 30.4902 71.353 29.9707C71.8743 29.4511 72.6066 29.2009 73.5376 29.2009L73.5376 30.5768Z" fill="#FF4B00"/>
<path d="M73.4852 27.4144L79.7285 27.4144L79.7285 28.7615L70.7917 28.7615L70.7917 27.3182L77.1344 24.4894L70.7917 24.4894L70.7917 23.1423L79.7285 23.1423L79.7285 24.653L73.4852 27.4144Z" fill="#FF4B00"/>
<path d="M71.5845 21.5803C70.8894 21.0607 70.5419 20.3102 70.5419 19.3191C70.5419 18.3281 70.8894 17.568 71.5845 17.0484C72.441 16.346 73.6574 15.99 75.271 15.99C76.9094 15.99 78.1382 16.346 78.9574 17.0484C79.6525 17.568 80 18.3281 80 19.3191C80 20.3102 79.6525 21.0607 78.9574 21.5803C78.1382 22.2827 76.9094 22.629 75.271 22.629C73.6574 22.629 72.441 22.2827 71.5845 21.5803ZM72.9375 20.6854C73.4836 21.0126 74.2656 21.1858 75.271 21.1858C76.2639 21.1858 77.0459 21.0126 77.592 20.6854C78.1382 20.339 78.4112 19.8868 78.4112 19.3191C78.4112 18.7418 78.1382 18.2896 77.592 17.9432C77.0459 17.5968 76.2763 17.4333 75.271 17.4333C74.2656 17.4333 73.4836 17.5968 72.9375 17.9432C72.3913 18.2896 72.1183 18.7418 72.1183 19.3191C72.1183 19.8868 72.3913 20.339 72.9375 20.6854Z" fill="#FF4B00"/>
<path d="M78.7949 10.557C79.5273 11.1247 79.8872 11.8367 79.8872 12.7123C79.8872 13.8765 79.4031 14.7233 78.4102 15.2621C77.864 15.5603 77.3055 15.7239 76.7469 15.7432L76.7469 14.2999C77.1813 14.2037 77.5041 14.0786 77.7151 13.9343C78.0999 13.6745 78.2984 13.28 78.2984 12.7604C78.2984 12.2408 78.0254 11.8271 77.4792 11.5192C76.9331 11.2113 76.1511 11.067 75.1582 11.067C74.1528 11.067 73.3956 11.2209 72.8991 11.5481C72.4027 11.8656 72.1544 12.2793 72.1544 12.77C72.1544 13.28 72.3654 13.6649 72.7998 13.9343C73.0233 14.0786 73.3708 14.1941 73.8301 14.2999L73.8301 15.7335C72.8619 15.5988 72.0675 15.2813 71.4593 14.7714C70.8387 14.2518 70.5408 13.5879 70.5408 12.7893C70.5408 11.7886 70.9504 11.0092 71.782 10.4415C72.6012 9.87386 73.7432 9.5852 75.183 9.5852C76.7345 9.5852 77.9509 9.91235 78.7949 10.557Z" fill="#FF4B00"/>
<path fill-rule="evenodd" clip-rule="evenodd" d="M17.8926 22.0193C17.4628 21.5896 17.2358 20.9974 17.2682 20.3905L17.5127 15.8024C17.571 14.7078 18.4462 13.8338 19.541 13.777L24.1195 13.5395C24.7254 13.5081 25.3163 13.7351 25.7453 14.1641L39.2369 27.6557C40.0736 28.4924 41.43 28.4924 42.2666 27.6557L55.7582 14.1641C56.1873 13.7351 56.7781 13.5081 57.384 13.5395L61.9626 13.777C63.0573 13.8338 63.9325 14.7078 63.9909 15.8024L64.2354 20.3905C64.2677 20.9974 64.0407 21.5896 63.6109 22.0193L56.3042 29.3261C54.9546 30.6756 55.9104 32.9832 57.819 32.9832H61.4492C62.6324 32.9832 63.5915 33.9423 63.5915 35.1255V57.4317C63.5915 58.6149 62.6324 59.574 61.4492 59.574H54.6266C53.4435 59.574 52.4843 58.6149 52.4843 57.4317V38.3179C52.4843 36.4093 50.1768 35.4535 48.8272 36.8031L44.9154 40.7148C44.8711 40.7592 44.8461 40.8194 44.8461 40.8822V40.8822C44.8461 41.0129 44.7401 41.1189 44.6094 41.1189H44.5114H36.9921H36.8941C36.7634 41.1189 36.6574 41.0129 36.6574 40.8822V40.8822C36.6574 40.8194 36.6325 40.7592 36.5881 40.7148L32.7477 36.8744C31.3981 35.5248 29.0906 36.4807 29.0906 38.3892V57.4317C29.0906 58.6149 28.1314 59.574 26.9483 59.574H20.1257C18.9425 59.574 17.9834 58.6149 17.9834 57.4317V35.1255C17.9834 33.9423 18.9425 32.9832 20.1257 32.9832H23.6845C25.5931 32.9832 26.5489 30.6756 25.1993 29.3261L17.8926 22.0193Z" fill="#FF4B00"/>
<path d="M62.8784 0.627686H64.5183V4.28737L67.5977 0.627686H69.7517L66.4828 4.28737L69.9195 9.51463H67.7763L65.3138 5.63187L64.5183 6.54227V9.51463H62.8784V0.627686Z" fill="#FF4B00"/>
<path d="M55.5356 1.42854C56.1978 0.690763 57.0285 0.328125 58.05 0.328125C59.4082 0.328125 60.396 0.815811 61.0246 1.81619C61.3725 2.3664 61.5634 2.92912 61.5858 3.49183H59.9021C59.7898 3.05416 59.6439 2.72904 59.4755 2.51646C59.1724 2.12881 58.7122 1.92874 58.1061 1.92874C57.4999 1.92874 57.0173 2.20384 56.6581 2.75405C56.2989 3.30426 56.1305 4.09206 56.1305 5.09244C56.1305 6.10533 56.3101 6.86812 56.6917 7.36831C57.0622 7.8685 57.5448 8.1186 58.1173 8.1186C58.7122 8.1186 59.1612 7.90601 59.4755 7.46835C59.6439 7.24326 59.7786 6.89313 59.9021 6.43045H61.5746C61.4174 7.40582 61.047 8.20613 60.4521 8.81886C59.8459 9.4441 59.0714 9.74422 58.1398 9.74422C56.9724 9.74422 56.0631 9.33156 55.4009 8.49374C54.7386 7.66842 54.4019 6.51799 54.4019 5.06743C54.4019 3.50434 54.7835 2.27887 55.5356 1.42854Z" fill="#FF4B00"/>
<path d="M55.5356 1.42854C56.1978 0.690763 57.0285 0.328125 58.05 0.328125C59.4082 0.328125 60.396 0.815811 61.0246 1.81619C61.3725 2.3664 61.5634 2.92912 61.5858 3.49183H59.9021C59.7898 3.05416 59.6439 2.72904 59.4755 2.51646C59.1724 2.12881 58.7122 1.92874 58.1061 1.92874C57.4999 1.92874 57.0173 2.20384 56.6581 2.75405C56.2989 3.30426 56.1305 4.09206 56.1305 5.09244C56.1305 6.10533 56.3101 6.86812 56.6917 7.36831C57.0622 7.8685 57.5448 8.1186 58.1173 8.1186C58.7122 8.1186 59.1612 7.90601 59.4755 7.46835C59.6439 7.24326 59.7786 6.89313 59.9021 6.43045H61.5746C61.4174 7.40582 61.047 8.20613 60.4521 8.81886C59.8459 9.4441 59.0714 9.74422 58.1398 9.74422C56.9724 9.74422 56.0631 9.33156 55.4009 8.49374C54.7386 7.66842 54.4019 6.51799 54.4019 5.06743C54.4019 3.50434 54.7835 2.27887 55.5356 1.42854Z" stroke="#FF4B00"/>
<path d="M51.4902 0.490967H53.174V9.4944H51.4902V0.490967Z" fill="#FF4B00"/>
<path d="M51.4902 0.490967H53.174V9.4944H51.4902V0.490967Z" stroke="#FF4B00"/>
<path d="M48.8324 0.728558C49.1354 0.86611 49.3936 1.07869 49.6069 1.3538C49.7865 1.57888 49.9212 1.84148 50.0222 2.11659C50.1344 2.39169 50.1793 2.70431 50.1793 3.05444C50.1793 3.49211 50.0783 3.90477 49.8875 4.31743C49.6967 4.73008 49.3712 5.0302 48.9334 5.19276C49.3038 5.35532 49.562 5.59291 49.7191 5.90553C49.8763 6.21815 49.9548 6.68083 49.9548 7.31857V7.9188C49.9548 8.33146 49.9661 8.60656 49.9997 8.75662C50.0446 8.98171 50.1457 9.15677 50.3028 9.26931V9.4944H48.4507C48.3946 9.29432 48.3609 9.13176 48.3385 9.00671C48.2936 8.75662 48.2711 8.49402 48.2711 8.23142L48.2599 7.4061C48.2487 6.83088 48.1589 6.44324 47.9793 6.25567C47.7997 6.06809 47.4517 5.96806 46.9578 5.96806H45.2179V9.4944H43.5679V0.490967H47.5303C48.0915 0.503471 48.5293 0.591005 48.8324 0.728558ZM47.1262 4.47999C47.5078 4.47999 47.7884 4.42997 47.9793 4.32993C48.316 4.15486 48.4844 3.81724 48.4844 3.31705C48.4844 2.76684 48.316 2.4042 48.0017 2.21663C47.8109 2.11659 47.5415 2.05406 47.1711 2.05406H45.2179V4.47999H47.1262Z" fill="#FF4B00"/>
<path d="M48.8324 0.728558C49.1354 0.86611 49.3936 1.07869 49.6069 1.3538C49.7865 1.57888 49.9212 1.84148 50.0222 2.11659C50.1344 2.39169 50.1793 2.70431 50.1793 3.05444C50.1793 3.49211 50.0783 3.90477 49.8875 4.31743C49.6967 4.73008 49.3712 5.0302 48.9334 5.19276C49.3038 5.35532 49.562 5.59291 49.7191 5.90553C49.8763 6.21815 49.9548 6.68083 49.9548 7.31857V7.9188C49.9548 8.33146 49.9661 8.60656 49.9997 8.75662C50.0446 8.98171 50.1457 9.15677 50.3028 9.26931V9.4944H48.4507C48.3946 9.29432 48.3609 9.13176 48.3385 9.00671C48.2936 8.75662 48.2711 8.49402 48.2711 8.23142L48.2599 7.4061C48.2487 6.83088 48.1589 6.44324 47.9793 6.25567C47.7997 6.06809 47.4517 5.96806 46.9578 5.96806H45.2179V9.4944H43.5679V0.490967H47.5303C48.0915 0.503471 48.5293 0.591005 48.8324 0.728558ZM47.1262 4.47999C47.5078 4.47999 47.7884 4.42997 47.9793 4.32993C48.316 4.15486 48.4844 3.81724 48.4844 3.31705C48.4844 2.76684 48.316 2.4042 48.0017 2.21663C47.8109 2.11659 47.5415 2.05406 47.1711 2.05406H45.2179V4.47999H47.1262Z" stroke="#FF4B00"/>
<path d="M37.7438 4.00481H41.6613V5.5679H37.7438V7.88129H42.2113V9.4944H36.0938V0.490967L42.0093 0.490967V2.09158H37.7438V4.00481Z" fill="#FF4B00"/>
<path d="M37.7438 4.00481H41.6613V5.5679H37.7438V7.88129H42.2113V9.4944H36.0938V0.490967L42.0093 0.490967V2.09158H37.7438V4.00481Z" stroke="#FF4B00"/>
<path d="M32.2723 9.4944H30.6783L27.9507 0.490967H29.7579L31.509 7.33108L33.2825 0.490967H35.0336L32.2723 9.4944Z" fill="#FF4B00"/>
<path d="M32.2723 9.4944H30.6783L27.9507 0.490967H29.7579L31.509 7.33108L33.2825 0.490967H35.0336L32.2723 9.4944Z" stroke="#FF4B00"/>
<path d="M29.234 9.4944H27.4043L26.888 7.64369H23.9022L23.3521 9.4944H21.5786L24.4634 0.490967H26.3717L29.234 9.4944ZM25.4063 2.55425L24.3624 6.0931H26.4166L25.4063 2.55425Z" fill="#FF4B00"/>
<path d="M29.234 9.4944H27.4043L26.888 7.64369H23.9022L23.3521 9.4944H21.5786L24.4634 0.490967H26.3717L29.234 9.4944ZM25.4063 2.55425L24.3624 6.0931H26.4166L25.4063 2.55425Z" stroke="#FF4B00"/>
<path d="M20.587 9.4944H19.0042V3.40458V3.40456C19.0042 3.22949 19.0042 2.9794 19.0155 2.6668V1.94152L17.4889 9.4944H15.85L14.3347 1.94152V2.6668C14.3459 2.97942 14.3459 3.22951 14.3459 3.40458V9.4944H12.7744V0.490967H15.2214L16.6919 7.56867L18.1511 0.490967H20.587V9.4944Z" fill="#FF4B00"/>
<path d="M20.587 9.4944H19.0042V3.40458V3.40456C19.0042 3.22949 19.0042 2.9794 19.0155 2.6668V1.94152L17.4889 9.4944H15.85L14.3347 1.94152V2.6668C14.3459 2.97942 14.3459 3.22951 14.3459 3.40458V9.4944H12.7744V0.490967H15.2214L16.6919 7.56867L18.1511 0.490967H20.587V9.4944Z" stroke="#FF4B00"/>
<path d="M62.8784 65.5876H64.5183V69.2473L67.5977 65.5876H69.7517L66.4828 69.2473L69.9195 74.4746H67.7763L65.3138 70.5918L64.5183 71.5022V74.4746H62.8784V65.5876Z" fill="#FF4B00"/>
<path d="M55.5356 66.3885C56.1978 65.6507 57.0285 65.2881 58.05 65.2881C59.4082 65.2881 60.396 65.7758 61.0246 66.7762C61.3725 67.3264 61.5634 67.8891 61.5858 68.4518H59.9021C59.7898 68.0141 59.6439 67.689 59.4755 67.4764C59.1724 67.0888 58.7122 66.8887 58.1061 66.8887C57.4999 66.8887 57.0173 67.1638 56.6581 67.714C56.2989 68.2642 56.1305 69.052 56.1305 70.0524C56.1305 71.0653 56.3101 71.8281 56.6917 72.3283C57.0622 72.8285 57.5448 73.0786 58.1173 73.0786C58.7122 73.0786 59.1612 72.866 59.4755 72.4283C59.6439 72.2032 59.7786 71.8531 59.9021 71.3904H61.5746C61.4174 72.3658 61.047 73.1661 60.4521 73.7788C59.8459 74.4041 59.0714 74.7042 58.1398 74.7042C56.9724 74.7042 56.0631 74.2915 55.4009 73.4537C54.7386 72.6284 54.4019 71.4779 54.4019 70.0274C54.4019 68.4643 54.7835 67.2388 55.5356 66.3885Z" fill="#FF4B00"/>
<path d="M55.5356 66.3885C56.1978 65.6507 57.0285 65.2881 58.05 65.2881C59.4082 65.2881 60.396 65.7758 61.0246 66.7762C61.3725 67.3264 61.5634 67.8891 61.5858 68.4518H59.9021C59.7898 68.0141 59.6439 67.689 59.4755 67.4764C59.1724 67.0888 58.7122 66.8887 58.1061 66.8887C57.4999 66.8887 57.0173 67.1638 56.6581 67.714C56.2989 68.2642 56.1305 69.052 56.1305 70.0524C56.1305 71.0653 56.3101 71.8281 56.6917 72.3283C57.0622 72.8285 57.5448 73.0786 58.1173 73.0786C58.7122 73.0786 59.1612 72.866 59.4755 72.4283C59.6439 72.2032 59.7786 71.8531 59.9021 71.3904H61.5746C61.4174 72.3658 61.047 73.1661 60.4521 73.7788C59.8459 74.4041 59.0714 74.7042 58.1398 74.7042C56.9724 74.7042 56.0631 74.2915 55.4009 73.4537C54.7386 72.6284 54.4019 71.4779 54.4019 70.0274C54.4019 68.4643 54.7835 67.2388 55.5356 66.3885Z" stroke="#FF4B00"/>
<path d="M51.4902 65.4507H53.174V74.4541H51.4902V65.4507Z" fill="#FF4B00"/>
<path d="M51.4902 65.4507H53.174V74.4541H51.4902V65.4507Z" stroke="#FF4B00"/>
<path d="M48.8324 65.6883C49.1354 65.8258 49.3936 66.0384 49.6069 66.3135C49.7865 66.5386 49.9212 66.8012 50.0222 67.0763C50.1344 67.3514 50.1793 67.664 50.1793 68.0142C50.1793 68.4518 50.0783 68.8645 49.8875 69.2771C49.6967 69.6898 49.3712 69.9899 48.9334 70.1525C49.3038 70.315 49.562 70.5526 49.7191 70.8652C49.8763 71.1779 49.9548 71.6405 49.9548 72.2783V72.8785C49.9548 73.2912 49.9661 73.5663 49.9997 73.7163C50.0446 73.9414 50.1457 74.1165 50.3028 74.229V74.4541H48.4507C48.3946 74.254 48.3609 74.0915 48.3385 73.9664C48.2936 73.7163 48.2711 73.4537 48.2711 73.1911L48.2599 72.3658C48.2487 71.7906 48.1589 71.403 47.9793 71.2154C47.7997 71.0278 47.4517 70.9278 46.9578 70.9278H45.2179V74.4541H43.5679V65.4507H47.5303C48.0915 65.4632 48.5293 65.5507 48.8324 65.6883ZM47.1262 69.4397C47.5078 69.4397 47.7884 69.3897 47.9793 69.2896C48.316 69.1146 48.4844 68.777 48.4844 68.2768C48.4844 67.7266 48.316 67.3639 48.0017 67.1763C47.8109 67.0763 47.5415 67.0138 47.1711 67.0138H45.2179V69.4397H47.1262Z" fill="#FF4B00"/>
<path d="M48.8324 65.6883C49.1354 65.8258 49.3936 66.0384 49.6069 66.3135C49.7865 66.5386 49.9212 66.8012 50.0222 67.0763C50.1344 67.3514 50.1793 67.664 50.1793 68.0142C50.1793 68.4518 50.0783 68.8645 49.8875 69.2771C49.6967 69.6898 49.3712 69.9899 48.9334 70.1525C49.3038 70.315 49.562 70.5526 49.7191 70.8652C49.8763 71.1779 49.9548 71.6405 49.9548 72.2783V72.8785C49.9548 73.2912 49.9661 73.5663 49.9997 73.7163C50.0446 73.9414 50.1457 74.1165 50.3028 74.229V74.4541H48.4507C48.3946 74.254 48.3609 74.0915 48.3385 73.9664C48.2936 73.7163 48.2711 73.4537 48.2711 73.1911L48.2599 72.3658C48.2487 71.7906 48.1589 71.403 47.9793 71.2154C47.7997 71.0278 47.4517 70.9278 46.9578 70.9278H45.2179V74.4541H43.5679V65.4507H47.5303C48.0915 65.4632 48.5293 65.5507 48.8324 65.6883ZM47.1262 69.4397C47.5078 69.4397 47.7884 69.3897 47.9793 69.2896C48.316 69.1146 48.4844 68.777 48.4844 68.2768C48.4844 67.7266 48.316 67.3639 48.0017 67.1763C47.8109 67.0763 47.5415 67.0138 47.1711 67.0138H45.2179V69.4397H47.1262Z" stroke="#FF4B00"/>
<path d="M37.7438 68.9645H41.6613V70.5276H37.7438V72.841H42.2113V74.4541H36.0938V65.4507H42.0093V67.0513H37.7438V68.9645Z" fill="#FF4B00"/>
<path d="M37.7438 68.9645H41.6613V70.5276H37.7438V72.841H42.2113V74.4541H36.0938V65.4507H42.0093V67.0513H37.7438V68.9645Z" stroke="#FF4B00"/>
<path d="M32.2723 74.4541H30.6783L27.9507 65.4507H29.7579L31.509 72.2908L33.2825 65.4507H35.0336L32.2723 74.4541Z" fill="#FF4B00"/>
<path d="M32.2723 74.4541H30.6783L27.9507 65.4507H29.7579L31.509 72.2908L33.2825 65.4507H35.0336L32.2723 74.4541Z" stroke="#FF4B00"/>
<path d="M29.234 74.4541H27.4043L26.888 72.6034H23.9022L23.3521 74.4541H21.5786L24.4634 65.4507H26.3717L29.234 74.4541ZM25.4063 67.514L24.3624 71.0528H26.4166L25.4063 67.514Z" fill="#FF4B00"/>
<path d="M29.234 74.4541H27.4043L26.888 72.6034H23.9022L23.3521 74.4541H21.5786L24.4634 65.4507H26.3717L29.234 74.4541ZM25.4063 67.514L24.3624 71.0528H26.4166L25.4063 67.514Z" stroke="#FF4B00"/>
<path d="M20.587 74.4541H19.0042V68.3643V68.3643C19.0042 68.1892 19.0042 67.9391 19.0155 67.6265V66.9012L17.4889 74.4541H15.85L14.3347 66.9012V67.6265C14.3459 67.9391 14.3459 68.1892 14.3459 68.3643V74.4541H12.7744V65.4507H15.2214L16.6919 72.5284L18.1511 65.4507H20.587V74.4541Z" fill="#FF4B00"/>
<path d="M20.587 74.4541H19.0042V68.3643V68.3643C19.0042 68.1892 19.0042 67.9391 19.0155 67.6265V66.9012L17.4889 74.4541H15.85L14.3347 66.9012V67.6265C14.3459 67.9391 14.3459 68.1892 14.3459 68.3643V74.4541H12.7744V65.4507H15.2214L16.6919 72.5284L18.1511 65.4507H20.587V74.4541Z" stroke="#FF4B00"/>
<path d="M127.067 11.2664C126.459 11.3722 126.025 11.6416 125.789 12.065C125.652 12.3055 125.59 12.575 125.59 12.8636C125.59 13.4217 125.863 13.8739 126.397 14.2395C126.943 14.5955 127.763 14.7783 128.855 14.7783C129.947 14.7783 130.729 14.5859 131.188 14.1914C131.648 13.8065 131.871 13.3639 131.871 12.8636C131.871 12.3825 131.685 11.988 131.325 11.6705C130.965 11.3626 130.493 11.1702 129.91 11.1028L129.91 12.7L128.42 12.7L128.42 9.82312L133.211 9.82312L133.211 10.7757L132.094 10.92C132.516 11.199 132.814 11.4492 132.988 11.6705C133.298 12.0554 133.447 12.5268 133.447 13.0849C133.447 13.999 133.038 14.7495 132.218 15.3364C131.399 15.9522 130.27 16.2505 128.83 16.2505C127.39 16.2505 126.236 15.9426 125.355 15.3268C124.486 14.711 124.051 13.8931 124.051 12.8829C124.051 12.0073 124.337 11.2953 124.908 10.7564C125.479 10.2272 126.211 9.91933 127.067 9.84236L127.067 11.2664Z" fill="black"/>
<path d="M130.515 18.0372L124.271 18.0372L124.271 16.6902L133.208 16.6902L133.208 18.1335L126.866 20.9623L133.208 20.9623L133.208 22.3093L124.271 22.3093L124.271 20.7987L130.515 18.0372Z" fill="black"/>
<path d="M124.271 24.5059L124.271 23.0626L133.208 23.0626L133.208 24.5059L124.271 24.5059Z" fill="black"/>
<path d="M125.86 26.7319L133.208 26.7319L133.208 28.1944L125.86 28.1944L125.86 30.2727L124.271 30.2727L124.271 24.6632L125.86 24.6632L125.86 26.7319Z" fill="black"/>
<path d="M131.607 32.0906L131.607 28.6652L133.208 28.6652L133.208 33.5435L124.271 33.5435L124.271 32.0906L131.607 32.0906Z" fill="black"/>
<path d="M129.77 38.4383C130.378 38.4383 130.825 38.3805 131.111 38.2651C131.62 38.0919 131.868 37.707 131.868 37.1201C131.868 36.5331 131.62 36.1579 131.111 35.9847C130.825 35.8692 130.378 35.8115 129.77 35.8115L124.271 35.8115L124.271 34.3394L129.77 34.3394C130.713 34.3394 131.458 34.4548 131.979 34.6858C132.948 35.1091 133.444 35.927 133.444 37.1201C133.444 38.3228 132.948 39.1407 131.979 39.564C131.458 39.7949 130.713 39.9104 129.77 39.9104L124.271 39.9104L124.271 38.4383L129.77 38.4383Z" fill="black"/>
<path d="M130.462 44.702C130.872 44.6635 131.17 44.5673 131.381 44.4422C131.741 44.2112 131.927 43.8071 131.927 43.2394C131.927 42.8931 131.877 42.614 131.778 42.4024C131.592 41.9982 131.244 41.7962 130.748 41.7962C130.45 41.7962 130.227 41.8924 130.065 42.0945C129.904 42.2965 129.767 42.614 129.643 43.047L129.432 43.7783C129.221 44.4903 128.998 44.9906 128.75 45.2696C128.328 45.7315 127.695 45.972 126.813 45.972C126.006 45.972 125.349 45.7411 124.815 45.2889C124.294 44.8463 124.021 44.1824 124.021 43.3068C124.021 42.5755 124.269 41.9501 124.765 41.4402C125.274 40.9206 125.994 40.6512 126.95 40.6319L126.95 42.0175C126.404 42.0463 126.019 42.2292 125.795 42.5659C125.647 42.7872 125.572 43.0759 125.572 43.403C125.572 43.7783 125.671 44.0765 125.87 44.2978C126.056 44.5191 126.329 44.6346 126.677 44.6346C126.999 44.6346 127.235 44.5191 127.397 44.2978C127.496 44.1631 127.62 43.8649 127.769 43.403L128.129 42.2099C128.303 41.6807 128.514 41.2862 128.787 41.0264C129.196 40.6127 129.817 40.401 130.611 40.401C131.418 40.401 132.101 40.6416 132.635 41.1227C133.181 41.6134 133.454 42.2965 133.454 43.1817C133.454 44.0765 133.181 44.7886 132.647 45.3081C132.126 45.8277 131.393 46.0779 130.462 46.0779L130.462 44.702Z" fill="black"/>
<path d="M130.515 47.8644L124.271 47.8644L124.271 46.5173L133.208 46.5173L133.208 47.9606L126.866 50.7894L133.208 50.7894L133.208 52.1365L124.271 52.1365L124.271 50.6259L130.515 47.8644Z" fill="black"/>
<path d="M132.415 53.6985C133.111 54.2181 133.458 54.9686 133.458 55.9597C133.458 56.9507 133.111 57.7108 132.415 58.2304C131.559 58.9328 130.343 59.2888 128.729 59.2888C127.091 59.2888 125.862 58.9328 125.043 58.2304C124.348 57.7108 124 56.9507 124 55.9597C124 54.9686 124.348 54.2181 125.043 53.6985C125.862 52.9962 127.091 52.6498 128.729 52.6498C130.343 52.6498 131.559 52.9962 132.415 53.6985ZM131.063 54.5934C130.516 54.2662 129.734 54.093 128.729 54.093C127.736 54.093 126.954 54.2662 126.408 54.5934C125.862 54.9398 125.589 55.392 125.589 55.9597C125.589 56.537 125.862 56.9892 126.408 57.3356C126.954 57.682 127.724 57.8455 128.729 57.8455C129.734 57.8455 130.516 57.682 131.063 57.3356C131.609 56.9892 131.882 56.537 131.882 55.9597C131.882 55.392 131.609 54.9398 131.063 54.5934Z" fill="black"/>
<path d="M125.205 64.7218C124.473 64.1541 124.113 63.4421 124.113 62.5665C124.113 61.4023 124.597 60.5556 125.59 60.0167C126.136 59.7185 126.695 59.5549 127.253 59.5356L127.253 60.9789C126.819 61.0751 126.496 61.2002 126.285 61.3445C125.9 61.6043 125.702 61.9988 125.702 62.5184C125.702 63.038 125.975 63.4517 126.521 63.7596C127.067 64.0675 127.849 64.2118 128.842 64.2118C129.847 64.2118 130.604 64.0579 131.101 63.7308C131.597 63.4132 131.846 62.9995 131.846 62.5088C131.846 61.9988 131.635 61.614 131.2 61.3445C130.977 61.2002 130.629 61.0848 130.17 60.9789L130.17 59.5453C131.138 59.68 131.932 59.9975 132.541 60.5074C133.161 61.027 133.459 61.6909 133.459 62.4895C133.459 63.4902 133.05 64.2696 132.218 64.8373C131.399 65.4049 130.257 65.6936 128.817 65.6936C127.265 65.6936 126.049 65.3665 125.205 64.7218Z" fill="black"/>
<path d="M200.933 63.6164C201.541 63.5106 201.975 63.2412 202.211 62.8178C202.348 62.5773 202.41 62.3079 202.41 62.0192C202.41 61.4611 202.137 61.0089 201.603 60.6433C201.057 60.2873 200.237 60.1045 199.145 60.1045C198.053 60.1045 197.271 60.2969 196.812 60.6914C196.352 61.0763 196.129 61.5189 196.129 62.0192C196.129 62.5003 196.315 62.8948 196.675 63.2123C197.035 63.5202 197.507 63.7126 198.09 63.78L198.09 62.1828L199.58 62.1828L199.58 65.0597L194.789 65.0597L194.789 64.1071L195.906 63.9628C195.484 63.6838 195.186 63.4336 195.012 63.2123C194.702 62.8274 194.553 62.356 194.553 61.7979C194.553 60.8838 194.962 60.1333 195.782 59.5464C196.601 58.9306 197.73 58.6323 199.17 58.6323C200.61 58.6323 201.764 58.9402 202.645 59.556C203.514 60.1718 203.949 60.9897 203.949 62C203.949 62.8755 203.663 63.5876 203.092 64.1264C202.521 64.6556 201.789 64.9635 200.933 65.0405L200.933 63.6164Z" fill="black"/>
<path d="M197.485 56.8456L203.729 56.8456L203.729 58.1926L194.792 58.1926L194.792 56.7494L201.134 53.9205L194.792 53.9205L194.792 52.5735L203.729 52.5735L203.729 54.0841L197.485 56.8456Z" fill="black"/>
<path d="M203.729 50.3765L203.729 51.8197L194.792 51.8197L194.792 50.3765L203.729 50.3765Z" fill="black"/>
<path d="M202.14 48.1509L194.792 48.1509L194.792 46.6884L202.14 46.6884L202.14 44.6101L203.729 44.6101L203.729 50.2196L202.14 50.2196L202.14 48.1509Z" fill="black"/>
<path d="M196.393 42.7918L196.393 46.2171L194.792 46.2171L194.792 41.3389L203.729 41.3389L203.729 42.7918L196.393 42.7918Z" fill="black"/>
<path d="M198.23 36.4445C197.622 36.4445 197.175 36.5023 196.889 36.6177C196.38 36.7909 196.132 37.1758 196.132 37.7627C196.132 38.3497 196.38 38.7249 196.889 38.8981C197.175 39.0136 197.622 39.0713 198.23 39.0713L203.729 39.0713L203.729 40.5434L198.23 40.5434C197.287 40.5434 196.542 40.428 196.021 40.1971C195.052 39.7737 194.556 38.9558 194.556 37.7627C194.556 36.56 195.052 35.7422 196.021 35.3188C196.542 35.0879 197.287 34.9724 198.23 34.9724L203.729 34.9724L203.729 36.4445L198.23 36.4445Z" fill="black"/>
<path d="M197.538 30.1808C197.128 30.2193 196.83 30.3156 196.619 30.4406C196.259 30.6716 196.073 31.0757 196.073 31.6434C196.073 31.9898 196.123 32.2688 196.222 32.4805C196.408 32.8846 196.756 33.0866 197.252 33.0866C197.55 33.0866 197.773 32.9904 197.935 32.7884C198.096 32.5863 198.233 32.2688 198.357 31.8358L198.568 31.1045C198.779 30.3925 199.002 29.8922 199.25 29.6132C199.672 29.1513 200.305 28.9108 201.187 28.9108C201.994 28.9108 202.651 29.1417 203.185 29.5939C203.706 30.0365 203.979 30.7004 203.979 31.576C203.979 32.3073 203.731 32.9327 203.235 33.4426C202.726 33.9622 202.006 34.2316 201.05 34.2509L201.05 32.8653C201.596 32.8365 201.981 32.6537 202.205 32.3169C202.353 32.0956 202.428 31.8069 202.428 31.4798C202.428 31.1045 202.329 30.8063 202.13 30.585C201.944 30.3637 201.671 30.2482 201.323 30.2482C201.001 30.2482 200.765 30.3637 200.603 30.585C200.504 30.7197 200.38 31.0179 200.231 31.4798L199.871 32.6729C199.697 33.2021 199.486 33.5966 199.213 33.8564C198.804 34.2701 198.183 34.4818 197.389 34.4818C196.582 34.4818 195.899 34.2413 195.365 33.7602C194.819 33.2694 194.546 32.5863 194.546 31.7011C194.546 30.8063 194.819 30.0943 195.353 29.5747C195.874 29.0551 196.607 28.8049 197.538 28.8049L197.538 30.1808Z" fill="black"/>
<path d="M197.485 27.0184L203.729 27.0184L203.729 28.3655L194.792 28.3655L194.792 26.9222L201.134 24.0934L194.792 24.0934L194.792 22.7463L203.729 22.7463L203.729 24.257L197.485 27.0184Z" fill="black"/>
<path d="M195.585 21.1843C194.889 20.6647 194.542 19.9142 194.542 18.9231C194.542 17.9321 194.889 17.172 195.585 16.6524C196.441 15.95 197.657 15.594 199.271 15.594C200.909 15.594 202.138 15.95 202.957 16.6524C203.652 17.172 204 17.9321 204 18.9231C204 19.9142 203.652 20.6647 202.957 21.1843C202.138 21.8867 200.909 22.233 199.271 22.233C197.657 22.233 196.441 21.8867 195.585 21.1843ZM196.937 20.2894C197.484 20.6166 198.266 20.7898 199.271 20.7898C200.264 20.7898 201.046 20.6166 201.592 20.2894C202.138 19.9431 202.411 19.4908 202.411 18.9231C202.411 18.3458 202.138 17.8936 201.592 17.5472C201.046 17.2008 200.276 17.0373 199.271 17.0373C198.266 17.0373 197.484 17.2008 196.937 17.5472C196.391 17.8936 196.118 18.3458 196.118 18.9231C196.118 19.4908 196.391 19.9431 196.937 20.2894Z" fill="black"/>
<path d="M202.795 10.161C203.527 10.7287 203.887 11.4407 203.887 12.3163C203.887 13.4805 203.403 14.3273 202.41 14.8661C201.864 15.1644 201.305 15.3279 200.747 15.3472L200.747 13.9039C201.181 13.8077 201.504 13.6826 201.715 13.5383C202.1 13.2785 202.298 12.884 202.298 12.3644C202.298 11.8448 202.025 11.4311 201.479 11.1232C200.933 10.8153 200.151 10.671 199.158 10.671C198.153 10.671 197.396 10.8249 196.899 11.1521C196.403 11.4696 196.154 11.8833 196.154 12.374C196.154 12.884 196.365 13.2689 196.8 13.5383C197.023 13.6826 197.371 13.7981 197.83 13.9039L197.83 15.3375C196.862 15.2028 196.068 14.8853 195.459 14.3754C194.839 13.8558 194.541 13.1919 194.541 12.3933C194.541 11.3926 194.95 10.6132 195.782 10.0455C196.601 9.47786 197.743 9.18921 199.183 9.18921C200.735 9.18921 201.951 9.51635 202.795 10.161Z" fill="black"/>
<path d="M185.897 15.2651V21.8721C185.897 22.8299 185.037 23.678 183.884 23.678L152.266 23.678C150.644 23.678 149.253 24.8947 149.253 26.4839L149.253 45.8358C149.253 47.425 150.644 48.6417 152.266 48.6417H183.884C185.037 48.6417 185.897 49.4898 185.897 50.4476V57.0546C185.897 58.0124 185.037 58.8605 183.884 58.8605H151.368C150.215 58.8605 149.355 58.0124 149.355 57.0546V51.3903C149.355 49.8011 147.965 48.5844 146.343 48.5844H140.041C138.888 48.5844 138.028 47.7363 138.028 46.7785L138.028 25.5536C138.028 24.5958 138.888 23.7477 140.041 23.7477L146.343 23.7477C147.965 23.7477 149.355 22.531 149.355 20.9418V15.2651C149.355 14.3073 150.215 13.4592 151.368 13.4592L183.884 13.4592C185.037 13.4592 185.897 14.3073 185.897 15.2651Z" fill="black" stroke="black"/>
<path d="M186.374 0.299561H188.013V3.95925L191.093 0.299561H193.247L189.978 3.95925L193.415 9.18651H191.271L188.809 5.30374L188.013 6.21414V9.18651H186.374V0.299561Z" fill="black"/>
<path d="M179.031 1.10042C179.693 0.362638 180.524 0 181.545 0C182.903 0 183.891 0.487686 184.52 1.48807C184.868 2.03828 185.058 2.60099 185.081 3.16371H183.397C183.285 2.72604 183.139 2.40092 182.971 2.18833C182.668 1.80069 182.207 1.60061 181.601 1.60061C180.995 1.60061 180.512 1.87572 180.153 2.42592C179.794 2.97613 179.626 3.76394 179.626 4.76432C179.626 5.7772 179.805 6.53999 180.187 7.04018C180.557 7.54038 181.04 7.79047 181.612 7.79047C182.207 7.79047 182.656 7.57789 182.971 7.14022C183.139 6.91514 183.274 6.565 183.397 6.10233H185.07C184.913 7.0777 184.542 7.878 183.947 8.49074C183.341 9.11598 182.567 9.41609 181.635 9.41609C180.467 9.41609 179.558 9.00343 178.896 8.16561C178.234 7.3403 177.897 6.18986 177.897 4.73931C177.897 3.17621 178.279 1.95074 179.031 1.10042Z" fill="black"/>
<path d="M174.985 0.162842H176.669V9.16628H174.985V0.162842Z" fill="black"/>
<path d="M172.327 0.400433C172.631 0.537985 172.889 0.750566 173.102 1.02567C173.282 1.25076 173.416 1.51336 173.517 1.78846C173.63 2.06357 173.674 2.37619 173.674 2.72632C173.674 3.16399 173.573 3.57664 173.383 3.9893C173.192 4.40196 172.866 4.70207 172.428 4.86464C172.799 5.0272 173.057 5.26479 173.214 5.57741C173.371 5.89003 173.45 6.3527 173.45 6.99045V7.59067C173.45 8.00333 173.461 8.27844 173.495 8.42849C173.54 8.65358 173.641 8.82865 173.798 8.94119V9.16628H171.946C171.89 8.9662 171.856 8.80364 171.834 8.67859C171.789 8.42849 171.766 8.16589 171.766 7.90329L171.755 7.07798C171.744 6.50276 171.654 6.11511 171.474 5.92754C171.295 5.73997 170.947 5.63993 170.453 5.63993H168.713V9.16628H167.063V0.162842L171.025 0.162842C171.587 0.175346 172.024 0.26288 172.327 0.400433ZM170.621 4.15186C171.003 4.15186 171.284 4.10184 171.474 4.00181C171.811 3.82674 171.979 3.48911 171.979 2.98892C171.979 2.43871 171.811 2.07607 171.497 1.8885C171.306 1.78846 171.037 1.72594 170.666 1.72594H168.713V4.15186H170.621Z" fill="black"/>
<path d="M161.239 3.67668H165.156V5.23978H161.239V7.55316H165.706V9.16628H159.589V0.162842L165.504 0.162842V1.76345H161.239V3.67668Z" fill="black"/>
<path d="M155.767 9.16628H154.173L151.446 0.162842H153.253L155.004 7.00295L156.778 0.162842H158.529L155.767 9.16628Z" fill="black"/>
<path d="M152.729 9.16628H150.899L150.383 7.31557H147.397L146.847 9.16628H145.074L147.959 0.162842H149.867L152.729 9.16628ZM148.901 2.22613L147.858 5.76498H149.912L148.901 2.22613Z" fill="black"/>
<path d="M144.082 9.16628H142.499V3.07645C142.499 2.90139 142.499 2.65129 142.511 2.33867V1.6134L140.984 9.16628H139.345L137.83 1.6134V2.33867C137.841 2.65129 137.841 2.90139 137.841 3.07645V9.16628H136.27V0.162842H138.717L140.187 7.24054L141.646 0.162842H144.082V9.16628Z" fill="black"/>
<path d="M186.374 65.9153H188.013V69.575L191.093 65.9153H193.247L189.978 69.575L193.415 74.8022H191.271L188.809 70.9195L188.013 71.8299V74.8022H186.374V65.9153Z" fill="black"/>
<path d="M179.031 66.7161C179.693 65.9784 180.524 65.6157 181.545 65.6157C182.903 65.6157 183.891 66.1034 184.52 67.1038C184.868 67.654 185.058 68.2167 185.081 68.7794H183.397C183.285 68.3418 183.139 68.0166 182.971 67.8041C182.668 67.4164 182.207 67.2163 181.601 67.2163C180.995 67.2163 180.512 67.4914 180.153 68.0416C179.794 68.5919 179.626 69.3797 179.626 70.38C179.626 71.3929 179.805 72.1557 180.187 72.6559C180.557 73.1561 181.04 73.4062 181.612 73.4062C182.207 73.4062 182.656 73.1936 182.971 72.7559C183.139 72.5309 183.274 72.1807 183.397 71.718H185.07C184.913 72.6934 184.542 73.4937 183.947 74.1065C183.341 74.7317 182.567 75.0318 181.635 75.0318C180.467 75.0318 179.558 74.6192 178.896 73.7813C178.234 72.956 177.897 71.8056 177.897 70.355C177.897 68.7919 178.279 67.5665 179.031 66.7161Z" fill="black"/>
<path d="M174.985 65.7786H176.669V74.782H174.985V65.7786Z" fill="black"/>
<path d="M172.327 66.0162C172.631 66.1537 172.889 66.3663 173.102 66.6414C173.282 66.8665 173.416 67.1291 173.517 67.4042C173.63 67.6793 173.674 67.9919 173.674 68.342C173.674 68.7797 173.573 69.1924 173.383 69.605C173.192 70.0177 172.866 70.3178 172.428 70.4804C172.799 70.6429 173.057 70.8805 173.214 71.1931C173.371 71.5057 173.45 71.9684 173.45 72.6062V73.2064C173.45 73.6191 173.461 73.8942 173.495 74.0442C173.54 74.2693 173.641 74.4444 173.798 74.5569V74.782H171.946C171.89 74.5819 171.856 74.4194 171.834 74.2943C171.789 74.0442 171.766 73.7816 171.766 73.519L171.755 72.6937C171.744 72.1185 171.654 71.7308 171.474 71.5433C171.295 71.3557 170.947 71.2557 170.453 71.2557H168.713V74.782H167.063V65.7786H171.025C171.587 65.7911 172.024 65.8786 172.327 66.0162ZM170.621 69.7676C171.003 69.7676 171.284 69.7176 171.474 69.6175C171.811 69.4425 171.979 69.1048 171.979 68.6046C171.979 68.0544 171.811 67.6918 171.497 67.5042C171.306 67.4042 171.037 67.3417 170.666 67.3417H168.713V69.7676H170.621Z" fill="black"/>
<path d="M161.239 69.2924H165.156V70.8555H161.239V73.1689H165.706V74.782H159.589V65.7786H165.504V67.3792H161.239V69.2924Z" fill="black"/>
<path d="M155.767 74.782H154.173L151.446 65.7786H153.253L155.004 72.6187L156.778 65.7786H158.529L155.767 74.782Z" fill="black"/>
<path d="M152.729 74.782H150.899L150.383 72.9313H147.397L146.847 74.782H145.074L147.959 65.7786H149.867L152.729 74.782ZM148.901 67.8419L147.858 71.3807H149.912L148.901 67.8419Z" fill="black"/>
<path d="M144.082 74.782H142.499V68.6922C142.499 68.5171 142.499 68.267 142.511 67.9544V67.2291L140.984 74.782H139.345L137.83 67.2291V67.9544C137.841 68.267 137.841 68.5171 137.841 68.6922V74.782H136.27V65.7786H138.717L140.187 72.8563L141.646 65.7786H144.082V74.782Z" fill="black"/>
</svg>
