<svg width="122" height="114" viewBox="0 0 122 114" fill="none" xmlns="http://www.w3.org/2000/svg">
<path d="M4.67483 17.2733C3.74792 17.4346 3.08584 17.8451 2.72643 18.4904C2.51835 18.857 2.42377 19.2675 2.42377 19.7075C2.42377 20.558 2.83993 21.2472 3.65334 21.8044C4.48566 22.347 5.73415 22.6256 7.3988 22.6256C9.06345 22.6256 10.2552 22.3323 10.9551 21.7311C11.655 21.1445 11.9955 20.47 11.9955 19.7075C11.9955 18.9743 11.7118 18.373 11.1632 17.8891C10.6146 17.4199 9.89578 17.1266 9.0067 17.024L9.0067 19.4582L6.73673 19.4582L6.73673 15.0737L14.0385 15.0737L14.0385 16.5254L12.336 16.7454C12.9792 17.1706 13.4332 17.5519 13.698 17.8891C14.1709 18.4757 14.3979 19.1942 14.3979 20.0447C14.3979 21.4378 13.7737 22.5816 12.5252 23.4761C11.2767 24.4146 9.55528 24.8691 7.36097 24.8691C5.16666 24.8691 3.40742 24.3999 2.06436 23.4614C0.740202 22.5229 0.0781252 21.2765 0.0781253 19.7368C0.0781254 18.4024 0.513204 17.3172 1.38336 16.4961C2.25352 15.6896 3.36959 15.2203 4.67483 15.103L4.67483 17.2733Z" fill="black"/>
<path d="M9.92905 27.5928L0.414063 27.5928L0.414063 25.5398L14.0339 25.5398L14.0339 27.7394L4.36761 32.0506L14.0339 32.0506L14.0339 34.1035L0.414062 34.1035L0.414063 31.8013L9.92905 27.5928Z" fill="black"/>
<path d="M0.414062 37.4512L0.414063 35.2516L14.0339 35.2516L14.0339 37.4512L0.414062 37.4512Z" fill="black"/>
<path d="M2.83537 40.8439L14.0339 40.8439L14.0339 43.0728L2.83537 43.0728L2.83537 46.2402L0.414062 46.2402L0.414063 37.6912L2.83537 37.6912L2.83537 40.8439Z" fill="black"/>
<path d="M11.5937 49.0104L11.5937 43.79L14.0339 43.79L14.0339 51.2246L0.414062 51.2246L0.414063 49.0104L11.5937 49.0104Z" fill="black"/>
<path d="M8.79406 58.6842C9.72097 58.6842 10.402 58.5962 10.837 58.4202C11.6126 58.1563 11.9909 57.5697 11.9909 56.6752C11.9909 55.7807 11.6126 55.2088 10.837 54.9449C10.402 54.7689 9.72097 54.6809 8.79406 54.6809L0.414063 54.6809L0.414063 52.4374L8.79406 52.4374C10.2317 52.4374 11.3667 52.6133 12.1612 52.9653C13.6367 53.6105 14.3933 54.8569 14.3933 56.6752C14.3933 58.5082 13.6367 59.7546 12.1612 60.3998C11.3667 60.7518 10.2317 60.9277 8.79406 60.9277L0.414062 60.9277L0.414063 58.6842L8.79406 58.6842Z" fill="black"/>
<path d="M9.8489 68.2302C10.4731 68.1716 10.9271 68.0249 11.2487 67.8343C11.7973 67.4824 12.081 66.8665 12.081 66.0013C12.081 65.4734 12.0054 65.0482 11.8541 64.7256C11.5703 64.1097 11.0406 63.8017 10.284 63.8017C9.82999 63.8017 9.48949 63.9484 9.24358 64.2563C8.99766 64.5643 8.78958 65.0482 8.60042 65.708L8.27884 66.8225C7.95725 67.9076 7.61676 68.6701 7.23843 69.0954C6.59527 69.7992 5.63053 70.1658 4.28746 70.1658C3.05789 70.1658 2.05531 69.8139 1.24191 69.1247C0.447413 68.4502 0.0312502 67.4384 0.0312502 66.104C0.0312503 64.9895 0.409581 64.0364 1.16624 63.2592C1.94182 62.4673 3.03897 62.0567 4.49554 62.0274L4.49554 64.139C3.66321 64.183 3.0768 64.4616 2.73631 64.9748C2.50931 65.3121 2.39581 65.752 2.39581 66.2506C2.39581 66.8225 2.54714 67.2771 2.84981 67.6143C3.13355 67.9516 3.54972 68.1276 4.07938 68.1276C4.57121 68.1276 4.93062 67.9516 5.17653 67.6143C5.32786 67.409 5.51703 66.9545 5.74403 66.2506L6.2926 64.4323C6.55744 63.6258 6.87902 63.0245 7.29518 62.6286C7.91942 61.9981 8.86525 61.6755 10.0759 61.6755C11.3055 61.6755 12.3459 62.0421 13.1593 62.7753C13.9916 63.5231 14.4078 64.5643 14.4078 65.9133C14.4078 67.2771 13.9916 68.3622 13.1782 69.154C12.3837 69.9459 11.2676 70.3271 9.8489 70.3271L9.8489 68.2302Z" fill="black"/>
<path d="M9.92905 73.0498L0.414063 73.0498L0.414063 70.9969L14.0339 70.9969L14.0339 73.1964L4.36761 77.5076L14.0339 77.5076L14.0339 79.5605L0.414062 79.5605L0.414063 77.2583L9.92905 73.0498Z" fill="black"/>
<path d="M12.8254 81.9412C13.8847 82.7331 14.4144 83.8769 14.4144 85.3872C14.4144 86.8976 13.8847 88.0561 12.8254 88.8479C11.5201 89.9184 9.66632 90.4609 7.20718 90.4609C4.7102 90.4609 2.83747 89.9184 1.58898 88.8479C0.529662 88.0561 1.55758e-07 86.8976 2.21778e-07 85.3872C2.87799e-07 83.8769 0.529662 82.7331 1.58898 81.9412C2.83747 80.8708 4.7102 80.3429 7.20718 80.3429C9.66632 80.3429 11.5201 80.8708 12.8254 81.9412ZM10.7635 83.305C9.93115 82.8064 8.73941 82.5425 7.20718 82.5425C5.69386 82.5425 4.50212 82.8064 3.6698 83.305C2.83747 83.8329 2.42131 84.5221 2.42131 85.3872C2.42131 86.2671 2.83747 86.9563 3.6698 87.4842C4.50212 88.0121 5.67494 88.2614 7.20718 88.2614C8.73941 88.2614 9.93115 88.0121 10.7635 87.4842C11.5958 86.9563 12.012 86.2671 12.012 85.3872C12.012 84.5221 11.5958 83.8329 10.7635 83.305Z" fill="black"/>
<path d="M1.83653 98.7406C0.720453 97.8755 0.171875 96.7903 0.171875 95.4559C0.171875 93.6816 0.909619 92.3912 2.42294 91.57C3.25526 91.1154 4.1065 90.8661 4.95775 90.8368L4.95775 93.0364C4.29567 93.183 3.80384 93.3737 3.48226 93.5936C2.89585 93.9895 2.59319 94.5908 2.59319 95.3826C2.59318 96.1745 3.00935 96.805 3.84167 97.2742C4.674 97.7435 5.86574 97.9634 7.37905 97.9634C8.91129 97.9634 10.0652 97.7288 10.8219 97.2303C11.5785 96.7463 11.9568 96.1158 11.9568 95.3679C11.9568 94.5908 11.6353 94.0042 10.9732 93.5936C10.6327 93.3737 10.103 93.1977 9.40312 93.0364L9.40312 90.8515C10.8786 91.0568 12.0893 91.5407 13.0162 92.3179C13.962 93.1097 14.416 94.1215 14.416 95.3386C14.416 96.8637 13.7917 98.0514 12.5243 98.9166C11.2758 99.7818 9.53553 100.222 7.34122 100.222C4.97666 100.222 3.12285 99.7231 1.83653 98.7406Z" fill="black"/>
<path d="M117.247 97.0558C118.174 96.8945 118.836 96.484 119.195 95.8387C119.404 95.4721 119.498 95.0616 119.498 94.6216C119.498 93.7711 119.082 93.0819 118.269 92.5247C117.436 91.9821 116.188 91.7035 114.523 91.7035C112.858 91.7035 111.667 91.9968 110.967 92.598C110.267 93.1846 109.926 93.8591 109.926 94.6216C109.926 95.3548 110.21 95.9561 110.759 96.44C111.307 96.9092 112.026 97.2025 112.915 97.3051L112.915 94.8709L115.185 94.8709L115.185 99.2554L107.883 99.2554L107.883 97.8037L109.586 97.5837C108.943 97.1585 108.489 96.7772 108.224 96.44C107.751 95.8534 107.524 95.1349 107.524 94.2844C107.524 92.8913 108.148 91.7475 109.397 90.853C110.645 89.9145 112.367 89.46 114.561 89.46C116.755 89.46 118.514 89.9292 119.858 90.8677C121.182 91.8062 121.844 93.0526 121.844 94.5923C121.844 95.9267 121.409 97.0119 120.539 97.833C119.668 98.6395 118.552 99.1088 117.247 99.2261L117.247 97.0558Z" fill="black"/>
<path d="M111.993 86.7373L121.508 86.7373L121.508 88.7903L107.888 88.7903L107.888 86.5907L117.554 82.2795L107.888 82.2795L107.888 80.2266L121.508 80.2266L121.508 82.5288L111.993 86.7373Z" fill="black"/>
<path d="M121.508 76.8789L121.508 79.0785L107.888 79.0785L107.888 76.8789L121.508 76.8789Z" fill="black"/>
<path d="M119.087 73.4861L107.888 73.4861L107.888 71.2572L119.087 71.2572L119.087 68.0898L121.508 68.0898L121.508 76.6389L119.087 76.6389L119.087 73.4861Z" fill="black"/>
<path d="M110.328 65.3197L110.328 70.5401L107.888 70.54L107.888 63.1055L121.508 63.1055L121.508 65.3197L110.328 65.3197Z" fill="black"/>
<path d="M113.128 55.6459C112.201 55.6459 111.52 55.7339 111.085 55.9099C110.309 56.1738 109.931 56.7604 109.931 57.6549C109.931 58.5494 110.309 59.1212 111.085 59.3852C111.52 59.5612 112.201 59.6491 113.128 59.6491L121.508 59.6491L121.508 61.8927L113.128 61.8927C111.69 61.8927 110.555 61.7168 109.761 61.3648C108.285 60.7196 107.529 59.4732 107.529 57.6549C107.529 55.8219 108.285 54.5755 109.761 53.9302C110.555 53.5783 111.69 53.4023 113.128 53.4023L121.508 53.4023L121.508 55.6459L113.128 55.6459Z" fill="black"/>
<path d="M112.073 46.0999C111.449 46.1585 110.995 46.3052 110.673 46.4958C110.125 46.8477 109.841 47.4636 109.841 48.3288C109.841 48.8567 109.916 49.2819 110.068 49.6045C110.352 50.2204 110.881 50.5283 111.638 50.5283C112.092 50.5283 112.432 50.3817 112.678 50.0738C112.924 49.7658 113.132 49.2819 113.321 48.622L113.643 47.5076C113.965 46.4225 114.305 45.6599 114.683 45.2347C115.327 44.5308 116.291 44.1642 117.634 44.1642C118.864 44.1642 119.867 44.5162 120.68 45.2054C121.474 45.8799 121.891 46.8917 121.891 48.2261C121.891 49.3406 121.512 50.2937 120.756 51.0709C119.98 51.8628 118.883 52.2733 117.426 52.3027L117.426 50.1911C118.259 50.1471 118.845 49.8685 119.186 49.3552C119.413 49.018 119.526 48.5781 119.526 48.0795C119.526 47.5076 119.375 47.053 119.072 46.7157C118.788 46.3785 118.372 46.2025 117.842 46.2025C117.351 46.2025 116.991 46.3785 116.745 46.7157C116.594 46.921 116.405 47.3756 116.178 48.0795L115.629 49.8978C115.364 50.7043 115.043 51.3055 114.627 51.7015C114.002 52.332 113.057 52.6546 111.846 52.6546C110.616 52.6546 109.576 52.288 108.763 51.5548C107.93 50.807 107.514 49.7658 107.514 48.4168C107.514 47.053 107.93 45.9679 108.744 45.176C109.538 44.3842 110.654 44.0029 112.073 44.0029L112.073 46.0999Z" fill="black"/>
<path d="M111.993 41.2803L121.508 41.2803L121.508 43.3332L107.888 43.3332L107.888 41.1336L117.554 36.8225L107.888 36.8225L107.888 34.7695L121.508 34.7695L121.508 37.0718L111.993 41.2803Z" fill="black"/>
<path d="M109.097 32.3888C108.037 31.597 107.508 30.4532 107.508 28.9428C107.508 27.4325 108.037 26.274 109.097 25.4822C110.402 24.4117 112.256 23.8691 114.715 23.8691C117.212 23.8691 119.084 24.4117 120.333 25.4822C121.392 26.274 121.922 27.4325 121.922 28.9428C121.922 30.4532 121.392 31.597 120.333 32.3888C119.084 33.4593 117.212 33.9872 114.715 33.9872C112.256 33.9872 110.402 33.4593 109.097 32.3888ZM111.158 31.0251C111.991 31.5237 113.182 31.7876 114.715 31.7876C116.228 31.7876 117.42 31.5237 118.252 31.0251C119.084 30.4972 119.501 29.808 119.501 28.9428C119.501 28.063 119.084 27.3738 118.252 26.8459C117.42 26.318 116.247 26.0687 114.715 26.0687C113.182 26.0687 111.991 26.318 111.158 26.8459C110.326 27.3738 109.91 28.063 109.91 28.9428C109.91 29.808 110.326 30.4972 111.158 31.0251Z" fill="black"/>
<path d="M120.085 15.5894C121.201 16.4546 121.75 17.5397 121.75 18.8742C121.75 20.6485 121.012 21.9389 119.499 22.7601C118.667 23.2147 117.815 23.4639 116.964 23.4933L116.964 21.2937C117.626 21.1471 118.118 20.9564 118.44 20.7365C119.026 20.3405 119.329 19.7393 119.329 18.9475C119.329 18.1556 118.913 17.5251 118.08 17.0558C117.248 16.5866 116.056 16.3666 114.543 16.3666C113.011 16.3666 111.857 16.6013 111.1 17.0998C110.343 17.5837 109.965 18.2143 109.965 18.9621C109.965 19.7393 110.287 20.3259 110.949 20.7365C111.289 20.9564 111.819 21.1324 112.519 21.2937L112.519 23.4786C111.043 23.2733 109.833 22.7894 108.906 22.0122C107.96 21.2204 107.506 20.2086 107.506 18.9915C107.506 17.4664 108.13 16.2786 109.398 15.4135C110.646 14.5483 112.386 14.1084 114.581 14.1084C116.945 14.1084 118.799 14.607 120.085 15.5894Z" fill="black"/>
<path fill-rule="evenodd" clip-rule="evenodd" d="M27.2688 33.0577C26.6138 32.4027 26.2678 31.5004 26.3171 30.5754L26.6898 23.583C26.7787 21.9148 28.1125 20.5828 29.7809 20.4962L36.7587 20.1343C37.6821 20.0864 38.5826 20.4323 39.2365 21.0862L59.798 41.6477C61.0731 42.9228 63.1403 42.9228 64.4153 41.6477L84.9769 21.0862C85.6308 20.4323 86.5312 20.0864 87.4547 20.1343L94.4325 20.4962C96.1008 20.5828 97.4347 21.9148 97.5236 23.583L97.8962 30.5754C97.9455 31.5004 97.5996 32.4027 96.9446 33.0577L85.8089 44.1934C83.7522 46.2502 85.2088 49.7669 88.1176 49.7669H93.6501C95.4532 49.7669 96.915 51.2287 96.915 53.0318V87.027C96.915 88.8302 95.4532 90.2919 93.6501 90.2919H83.2523C81.4491 90.2919 79.9874 88.8302 79.9874 87.027V57.8971C79.9874 54.9884 76.4706 53.5317 74.4138 55.5885L68.4522 61.5501C68.3846 61.6177 68.3466 61.7095 68.3466 61.8052V61.8052C68.3466 62.0044 68.1851 62.1659 67.9858 62.1659H67.8364H56.3769H56.2275C56.0283 62.1659 55.8668 62.0044 55.8668 61.8052V61.8052C55.8668 61.7095 55.8288 61.6177 55.7611 61.5501L49.9082 55.6972C47.8515 53.6404 44.3347 55.0971 44.3347 58.0058V87.027C44.3347 88.8302 42.873 90.2919 41.0698 90.2919H30.672C28.8688 90.2919 27.4071 88.8302 27.4071 87.027V53.0318C27.4071 51.2287 28.8688 49.7669 30.672 49.7669H36.0958C39.0045 49.7669 40.4612 46.2502 38.4044 44.1934L27.2688 33.0577Z" fill="black"/>
<path d="M95.8281 0.456055H98.3273V6.0335L103.02 0.456055H106.303L101.321 6.0335L106.559 14H103.293L99.5398 8.08255L98.3273 9.47002V14H95.8281V0.456055Z" fill="black"/>
<path d="M84.638 1.67706C85.6473 0.552668 86.9132 0 88.4699 0C90.5399 0 92.0453 0.743245 93.0033 2.26785C93.5336 3.10638 93.8244 3.96397 93.8587 4.82156H91.2926C91.1215 4.15455 90.8991 3.65905 90.6425 3.33507C90.1806 2.74429 89.4793 2.43937 88.5555 2.43937C87.6317 2.43937 86.8961 2.85863 86.3487 3.69717C85.8012 4.5357 85.5446 5.73633 85.5446 7.26093C85.5446 8.80459 85.8184 9.96711 86.4 10.7294C86.9645 11.4917 87.7001 11.8729 88.5726 11.8729C89.4793 11.8729 90.1635 11.5489 90.6425 10.8819C90.8991 10.5388 91.1044 10.0052 91.2926 9.30009H93.8415C93.602 10.7866 93.0375 12.0063 92.1308 12.9401C91.2071 13.893 90.0267 14.3503 88.6068 14.3503C86.8277 14.3503 85.442 13.7214 84.4327 12.4446C83.4234 11.1868 82.9102 9.43349 82.9102 7.22282C82.9102 4.84062 83.4918 2.97298 84.638 1.67706Z" fill="black"/>
<path d="M84.638 1.67706C85.6473 0.552668 86.9132 0 88.4699 0C90.5399 0 92.0453 0.743245 93.0033 2.26785C93.5336 3.10638 93.8244 3.96397 93.8587 4.82156H91.2926C91.1215 4.15455 90.8991 3.65905 90.6425 3.33507C90.1806 2.74429 89.4793 2.43937 88.5555 2.43937C87.6317 2.43937 86.8961 2.85863 86.3487 3.69717C85.8012 4.5357 85.5446 5.73633 85.5446 7.26093C85.5446 8.80459 85.8184 9.96711 86.4 10.7294C86.9645 11.4917 87.7001 11.8729 88.5726 11.8729C89.4793 11.8729 90.1635 11.5489 90.6425 10.8819C90.8991 10.5388 91.1044 10.0052 91.2926 9.30009H93.8415C93.602 10.7866 93.0375 12.0063 92.1308 12.9401C91.2071 13.893 90.0267 14.3503 88.6068 14.3503C86.8277 14.3503 85.442 13.7214 84.4327 12.4446C83.4234 11.1868 82.9102 9.43349 82.9102 7.22282C82.9102 4.84062 83.4918 2.97298 84.638 1.67706Z" stroke="black"/>
<path d="M78.4727 0.248047H81.0387V13.9695H78.4727V0.248047Z" fill="black"/>
<path d="M78.4727 0.248047H81.0387V13.9695H78.4727V0.248047Z" stroke="black"/>
<path d="M74.4216 0.610141C74.8835 0.819774 75.277 1.14375 75.602 1.56302C75.8757 1.90606 76.081 2.30626 76.235 2.72553C76.406 3.1448 76.4745 3.62124 76.4745 4.15485C76.4745 4.82186 76.3205 5.45076 76.0297 6.07966C75.7389 6.70856 75.2428 7.16594 74.5756 7.41369C75.1401 7.66144 75.5336 8.02353 75.7731 8.49997C76.0126 8.97641 76.1323 9.68154 76.1323 10.6535V11.5682C76.1323 12.1971 76.1494 12.6164 76.2008 12.8451C76.2692 13.1881 76.4232 13.4549 76.6627 13.6265V13.9695H73.84C73.7545 13.6646 73.7031 13.4168 73.6689 13.2262C73.6005 12.8451 73.5663 12.4449 73.5663 12.0447L73.5492 10.7869C73.5321 9.91023 73.3952 9.31945 73.1215 9.03358C72.8478 8.74772 72.3175 8.59526 71.5648 8.59526H68.9132V13.9695H66.3984V0.248047L72.4372 0.248047C73.2926 0.267104 73.9597 0.400508 74.4216 0.610141ZM71.8214 6.32741C72.403 6.32741 72.8307 6.25118 73.1215 6.09872C73.6347 5.83191 73.8913 5.31736 73.8913 4.55506C73.8913 3.71652 73.6347 3.16385 73.1557 2.87799C72.8649 2.72553 72.4543 2.63024 71.8898 2.63024H68.9132V6.32741H71.8214Z" fill="black"/>
<path d="M74.4216 0.610141C74.8835 0.819774 75.277 1.14375 75.602 1.56302C75.8757 1.90606 76.081 2.30626 76.235 2.72553C76.406 3.1448 76.4745 3.62124 76.4745 4.15485C76.4745 4.82186 76.3205 5.45076 76.0297 6.07966C75.7389 6.70856 75.2428 7.16594 74.5756 7.41369C75.1401 7.66144 75.5336 8.02353 75.7731 8.49997C76.0126 8.97641 76.1323 9.68154 76.1323 10.6535V11.5682C76.1323 12.1971 76.1494 12.6164 76.2008 12.8451C76.2692 13.1881 76.4232 13.4549 76.6627 13.6265V13.9695H73.84C73.7545 13.6646 73.7031 13.4168 73.6689 13.2262C73.6005 12.8451 73.5663 12.4449 73.5663 12.0447L73.5492 10.7869C73.5321 9.91023 73.3952 9.31945 73.1215 9.03358C72.8478 8.74772 72.3175 8.59526 71.5648 8.59526H68.9132V13.9695H66.3984V0.248047L72.4372 0.248047C73.2926 0.267104 73.9597 0.400508 74.4216 0.610141ZM71.8214 6.32741C72.403 6.32741 72.8307 6.25118 73.1215 6.09872C73.6347 5.83191 73.8913 5.31736 73.8913 4.55506C73.8913 3.71652 73.6347 3.16385 73.1557 2.87799C72.8649 2.72553 72.4543 2.63024 71.8898 2.63024H68.9132V6.32741H71.8214Z" stroke="black"/>
<path d="M57.5225 5.60322H63.4929V7.98542H57.5225V11.5111H64.3311V13.9695H55.0078V0.248047L64.0232 0.248047V2.68742H57.5225V5.60322Z" fill="black"/>
<path d="M57.5225 5.60322H63.4929V7.98542H57.5225V11.5111H64.3311V13.9695H55.0078V0.248047L64.0232 0.248047V2.68742H57.5225V5.60322Z" stroke="black"/>
<path d="M49.1839 13.9695H46.7547L42.5977 0.248047L45.3519 0.248047L48.0206 10.6725L50.7235 0.248047H53.3922L49.1839 13.9695Z" fill="black"/>
<path d="M49.1839 13.9695H46.7547L42.5977 0.248047L45.3519 0.248047L48.0206 10.6725L50.7235 0.248047H53.3922L49.1839 13.9695Z" stroke="black"/>
<path d="M44.5537 13.9695H41.7653L40.9783 11.149H36.4279L35.5896 13.9695H32.8867L37.2832 0.248047H40.1914L44.5537 13.9695ZM38.7202 3.39254L37.1293 8.78583H40.2598L38.7202 3.39254Z" fill="black"/>
<path d="M44.5537 13.9695H41.7653L40.9783 11.149H36.4279L35.5896 13.9695H32.8867L37.2832 0.248047H40.1914L44.5537 13.9695ZM38.7202 3.39254L37.1293 8.78583H40.2598L38.7202 3.39254Z" stroke="black"/>
<path d="M31.3752 13.9695H28.9632V4.68846C28.9632 4.42165 28.9632 4.0405 28.9803 3.56406V2.45872L26.6537 13.9695H24.1561L21.8466 2.45872V3.56406C21.8637 4.0405 21.8637 4.42165 21.8637 4.68846V13.9695H19.4688V0.248047L23.1981 0.248047L25.4391 11.0346L27.663 0.248047H31.3752V13.9695Z" fill="black"/>
<path d="M31.3752 13.9695H28.9632V4.68846C28.9632 4.42165 28.9632 4.0405 28.9803 3.56406V2.45872L26.6537 13.9695H24.1561L21.8466 2.45872V3.56406C21.8637 4.0405 21.8637 4.42165 21.8637 4.68846V13.9695H19.4688V0.248047L23.1981 0.248047L25.4391 11.0346L27.663 0.248047H31.3752V13.9695Z" stroke="black"/>
<path d="M95.8281 99.4561H98.3273V105.034L103.02 99.4561H106.303L101.321 105.034L106.559 113H103.293L99.5398 107.083L98.3273 108.47V113H95.8281V99.4561Z" fill="black"/>
<path d="M84.638 100.677C85.6473 99.5527 86.9132 99 88.4699 99C90.5399 99 92.0453 99.7432 93.0033 101.268C93.5336 102.106 93.8244 102.964 93.8587 103.822H91.2926C91.1215 103.155 90.8991 102.659 90.6425 102.335C90.1806 101.744 89.4793 101.439 88.5555 101.439C87.6317 101.439 86.8961 101.859 86.3487 102.697C85.8012 103.536 85.5446 104.736 85.5446 106.261C85.5446 107.805 85.8184 108.967 86.4 109.729C86.9645 110.492 87.7001 110.873 88.5726 110.873C89.4793 110.873 90.1635 110.549 90.6425 109.882C90.8991 109.539 91.1044 109.005 91.2926 108.3H93.8415C93.602 109.787 93.0375 111.006 92.1308 111.94C91.2071 112.893 90.0267 113.35 88.6068 113.35C86.8277 113.35 85.442 112.721 84.4327 111.445C83.4234 110.187 82.9102 108.433 82.9102 106.223C82.9102 103.841 83.4918 101.973 84.638 100.677Z" fill="black"/>
<path d="M84.638 100.677C85.6473 99.5527 86.9132 99 88.4699 99C90.5399 99 92.0453 99.7432 93.0033 101.268C93.5336 102.106 93.8244 102.964 93.8587 103.822H91.2926C91.1215 103.155 90.8991 102.659 90.6425 102.335C90.1806 101.744 89.4793 101.439 88.5555 101.439C87.6317 101.439 86.8961 101.859 86.3487 102.697C85.8012 103.536 85.5446 104.736 85.5446 106.261C85.5446 107.805 85.8184 108.967 86.4 109.729C86.9645 110.492 87.7001 110.873 88.5726 110.873C89.4793 110.873 90.1635 110.549 90.6425 109.882C90.8991 109.539 91.1044 109.005 91.2926 108.3H93.8415C93.602 109.787 93.0375 111.006 92.1308 111.94C91.2071 112.893 90.0267 113.35 88.6068 113.35C86.8277 113.35 85.442 112.721 84.4327 111.445C83.4234 110.187 82.9102 108.433 82.9102 106.223C82.9102 103.841 83.4918 101.973 84.638 100.677Z" stroke="black"/>
<path d="M78.4727 99.248H81.0387V112.969H78.4727V99.248Z" fill="black"/>
<path d="M78.4727 99.248H81.0387V112.969H78.4727V99.248Z" stroke="black"/>
<path d="M74.4216 99.6101C74.8835 99.8198 75.277 100.144 75.602 100.563C75.8757 100.906 76.081 101.306 76.235 101.726C76.406 102.145 76.4745 102.621 76.4745 103.155C76.4745 103.822 76.3205 104.451 76.0297 105.08C75.7389 105.709 75.2428 106.166 74.5756 106.414C75.1401 106.661 75.5336 107.024 75.7731 107.5C76.0126 107.976 76.1323 108.682 76.1323 109.653V110.568C76.1323 111.197 76.1494 111.616 76.2008 111.845C76.2692 112.188 76.4232 112.455 76.6627 112.626V112.969H73.84C73.7545 112.665 73.7031 112.417 73.6689 112.226C73.6005 111.845 73.5663 111.445 73.5663 111.045L73.5492 109.787C73.5321 108.91 73.3952 108.319 73.1215 108.034C72.8478 107.748 72.3175 107.595 71.5648 107.595H68.9132V112.969H66.3984V99.248H72.4372C73.2926 99.2671 73.9597 99.4005 74.4216 99.6101ZM71.8214 105.327C72.403 105.327 72.8307 105.251 73.1215 105.099C73.6347 104.832 73.8913 104.317 73.8913 103.555C73.8913 102.717 73.6347 102.164 73.1557 101.878C72.8649 101.726 72.4543 101.63 71.8898 101.63H68.9132V105.327H71.8214Z" fill="black"/>
<path d="M74.4216 99.6101C74.8835 99.8198 75.277 100.144 75.602 100.563C75.8757 100.906 76.081 101.306 76.235 101.726C76.406 102.145 76.4745 102.621 76.4745 103.155C76.4745 103.822 76.3205 104.451 76.0297 105.08C75.7389 105.709 75.2428 106.166 74.5756 106.414C75.1401 106.661 75.5336 107.024 75.7731 107.5C76.0126 107.976 76.1323 108.682 76.1323 109.653V110.568C76.1323 111.197 76.1494 111.616 76.2008 111.845C76.2692 112.188 76.4232 112.455 76.6627 112.626V112.969H73.84C73.7545 112.665 73.7031 112.417 73.6689 112.226C73.6005 111.845 73.5663 111.445 73.5663 111.045L73.5492 109.787C73.5321 108.91 73.3952 108.319 73.1215 108.034C72.8478 107.748 72.3175 107.595 71.5648 107.595H68.9132V112.969H66.3984V99.248H72.4372C73.2926 99.2671 73.9597 99.4005 74.4216 99.6101ZM71.8214 105.327C72.403 105.327 72.8307 105.251 73.1215 105.099C73.6347 104.832 73.8913 104.317 73.8913 103.555C73.8913 102.717 73.6347 102.164 73.1557 101.878C72.8649 101.726 72.4543 101.63 71.8898 101.63H68.9132V105.327H71.8214Z" stroke="black"/>
<path d="M57.5225 104.603H63.4929V106.985H57.5225V110.511H64.3311V112.969H55.0078V99.248H64.0232V101.687H57.5225V104.603Z" fill="black"/>
<path d="M57.5225 104.603H63.4929V106.985H57.5225V110.511H64.3311V112.969H55.0078V99.248H64.0232V101.687H57.5225V104.603Z" stroke="black"/>
<path d="M49.1839 112.969H46.7547L42.5977 99.248H45.3519L48.0206 109.673L50.7235 99.248H53.3922L49.1839 112.969Z" fill="black"/>
<path d="M49.1839 112.969H46.7547L42.5977 99.248H45.3519L48.0206 109.673L50.7235 99.248H53.3922L49.1839 112.969Z" stroke="black"/>
<path d="M44.5537 112.969H41.7653L40.9783 110.149H36.4279L35.5896 112.969H32.8867L37.2832 99.248H40.1914L44.5537 112.969ZM38.7202 102.393L37.1293 107.786H40.2598L38.7202 102.393Z" fill="black"/>
<path d="M44.5537 112.969H41.7653L40.9783 110.149H36.4279L35.5896 112.969H32.8867L37.2832 99.248H40.1914L44.5537 112.969ZM38.7202 102.393L37.1293 107.786H40.2598L38.7202 102.393Z" stroke="black"/>
<path d="M31.3752 112.969H28.9632V103.688C28.9632 103.422 28.9632 103.041 28.9803 102.564V101.459L26.6537 112.969H24.1561L21.8466 101.459V102.564C21.8637 103.041 21.8637 103.422 21.8637 103.688V112.969H19.4688V99.248H23.1981L25.4391 110.035L27.663 99.248H31.3752V112.969Z" fill="black"/>
<path d="M31.3752 112.969H28.9632V103.688C28.9632 103.422 28.9632 103.041 28.9803 102.564V101.459L26.6537 112.969H24.1561L21.8466 101.459V102.564C21.8637 103.041 21.8637 103.422 21.8637 103.688V112.969H19.4688V99.248H23.1981L25.4391 110.035L27.663 99.248H31.3752V112.969Z" stroke="black"/>
</svg>
