<svg width="310" height="526" viewBox="0 0 310 526" fill="none" xmlns="http://www.w3.org/2000/svg">
<path d="M85.9321 525.165H309.54V0H0V525.165H85.8928L85.9277 525.175V525.165H85.9321ZM307.995 520.957L286.944 485.304H287.542V420.107L307.602 443.652L307.995 443.222V520.952V520.957ZM195.102 332.882H182.431L168.682 297.105C168.215 297.348 167.744 297.575 167.264 297.793L180.746 332.882H170.376L163.226 299.301C162.729 299.449 162.231 299.578 161.725 299.702L168.787 332.882H159.207L157.461 300.404C156.95 300.449 156.439 300.483 155.92 300.503L157.661 332.887H148.138L151.533 300.355C151.018 300.3 150.508 300.231 150.001 300.147L146.588 332.887H137.034L145.986 299.207C145.488 299.054 144.995 298.891 144.506 298.713L135.423 332.887H124.503L140.534 296.942C140.067 296.695 139.609 296.433 139.155 296.161L122.774 332.887H114.425L136.977 294.736C136.541 294.425 136.113 294.103 135.69 293.772L113.521 331.269V313.01L132.355 290.78C131.975 290.389 131.6 289.989 131.233 289.583L113.521 310.488V298.144L128.352 285.918C128.038 285.458 127.728 284.994 127.432 284.519L113.521 295.988V286.586L125.114 280.246C124.874 279.732 124.647 279.212 124.429 278.683L113.521 284.647V276.967L122.822 274.034C122.67 273.48 122.526 272.921 122.395 272.358L113.521 275.157V268.075L121.526 267.269C121.465 266.695 121.413 266.116 121.373 265.533L113.521 266.324V259.371L121.343 260.157C121.373 259.573 121.421 258.995 121.474 258.416L113.517 257.615V250.533L122.281 253.297C122.408 252.729 122.543 252.17 122.691 251.616L113.513 248.723V241.042L124.25 246.918C124.464 246.388 124.686 245.864 124.917 245.345L113.508 239.104V229.702L127.213 241.003C127.506 240.523 127.807 240.053 128.121 239.588L113.508 227.541V215.197L131.002 235.844C131.364 235.434 131.735 235.028 132.115 234.633L113.508 212.67V194.41L135.471 231.562C135.89 231.225 136.318 230.899 136.75 230.587L114.111 192.289H122.534L138.963 229.123C139.417 228.847 139.875 228.584 140.338 228.332L124.263 192.289H135.271L144.367 226.507C144.855 226.329 145.344 226.161 145.842 226.003L136.881 192.284H146.518L149.936 225.033C150.442 224.949 150.953 224.88 151.468 224.821L148.072 192.284H157.674L155.933 224.667C156.448 224.687 156.963 224.722 157.474 224.766L159.22 192.284H168.883L161.817 225.488C162.319 225.612 162.82 225.746 163.318 225.894L170.472 192.284H180.93L167.416 227.447C167.892 227.669 168.364 227.902 168.831 228.144L182.61 192.284H195.385L172.768 230.592C173.2 230.904 173.627 231.23 174.046 231.567L195.997 194.386V212.996L177.486 234.722C177.861 235.117 178.232 235.523 178.594 235.938L195.997 215.513V227.833L181.475 239.712C181.785 240.177 182.086 240.647 182.379 241.126L195.997 229.984V239.326L184.653 245.473C184.884 245.993 185.107 246.517 185.316 247.051L195.997 241.265V248.921L186.861 251.759C187.005 252.318 187.141 252.877 187.267 253.446L196.001 250.731V257.615L188.048 258.411C188.105 258.99 188.149 259.568 188.179 260.152L196.001 259.366V266.289L188.149 265.503C188.109 266.087 188.057 266.665 187.996 267.239L196.001 268.04V274.924L187.167 272.18C187.036 272.743 186.896 273.307 186.743 273.861L196.001 276.739V284.395L185.155 278.52C184.936 279.049 184.709 279.573 184.474 280.088L196.001 286.334V295.676L182.178 284.365C181.881 284.84 181.576 285.31 181.261 285.77L195.997 297.827V310.147L178.381 289.469C178.018 289.88 177.643 290.28 177.263 290.671L195.997 312.659V331.269L173.846 293.752C173.422 294.084 172.995 294.405 172.558 294.717L195.089 332.877L195.102 332.882ZM197.55 311.962V299.093L218.261 316.037V336.269L197.55 311.962ZM197.55 296.942V287.175L218.261 298.396V313.886L197.55 296.942ZM197.55 285.236V277.224L218.261 283.658V296.462L197.55 285.241V285.236ZM197.55 275.414V268.203L218.261 270.281V281.848L197.55 275.414ZM197.55 266.448V259.212L218.261 257.135V268.525L197.55 266.448ZM197.55 257.462V250.251L218.261 243.817V255.384L197.55 257.462ZM197.55 248.441V240.429L218.261 229.208V242.012L197.55 248.446V248.441ZM197.55 238.49V228.723L218.261 211.779V227.269L197.55 238.49ZM197.55 226.567V213.698L218.261 189.391V209.623L197.55 226.567ZM197.55 211.186V191.774L218.261 156.696V186.878L197.55 211.186ZM196.429 190.533H183.291L197.219 154.282H217.829L196.424 190.533H196.429ZM181.61 190.533H170.856L178.573 154.282H195.543L181.615 190.533H181.61ZM169.267 190.533H159.329L161.275 154.282H176.984L169.267 190.533ZM157.784 190.533H147.906L144.126 154.282H159.735L157.788 190.533H157.784ZM146.352 190.533H136.436L126.803 154.282H142.573L146.352 190.533ZM134.825 190.533H123.499L107.332 154.282H125.188L134.821 190.533H134.825ZM121.775 190.533H113.098L91.6673 154.282H105.608L121.775 190.533ZM111.989 191.794V210.84L91.2788 186.394V156.765L111.989 191.794ZM111.989 213.362V226.255L91.2788 209.178V188.916L111.989 213.362ZM111.989 228.411V238.243L91.2788 226.913V211.334L111.989 228.411ZM111.989 240.182V248.218L91.2788 241.685V228.851L111.989 240.182ZM111.989 250.033V257.447L91.2788 255.365V243.505L111.989 250.038V250.033ZM111.989 259.197V266.463L91.2788 268.545V257.11L111.989 259.193V259.197ZM111.989 268.218V275.632L91.2788 282.165V270.305L111.989 268.223V268.218ZM111.989 277.442V285.483L91.2788 296.814V283.975L111.989 277.442ZM111.989 287.422V297.254L91.2788 314.331V298.752L111.989 287.422ZM111.989 299.41V312.303L91.2788 336.749V316.482L111.989 299.405V299.41ZM111.989 314.83V333.876L91.2788 368.905V339.276L111.989 314.83ZM113.395 334.632H121.998L105.831 370.883H91.9641L113.395 334.632ZM123.726 334.632H134.961L125.328 370.883H107.559L123.726 334.632ZM136.571 334.632H146.409L142.629 370.883H126.938L136.571 334.632ZM147.959 334.632H157.757L159.704 370.883H144.175L147.954 334.632H147.959ZM159.303 334.632H169.162L176.879 370.883H161.249L159.303 334.632ZM170.751 334.632H181.423L195.351 370.883H178.468L170.751 334.632ZM183.103 334.632H196.136L217.541 370.883H197.035L183.108 334.632H183.103ZM197.55 333.886V314.474L218.261 338.782V368.96L197.55 333.881V333.886ZM219.802 338.079V317.298L241.756 335.26V363.846L219.802 338.074V338.079ZM219.802 315.147V299.232L241.756 311.131V333.114L219.802 315.152V315.147ZM219.802 297.293V284.133L241.756 290.953V309.187L219.802 297.288V297.293ZM219.802 282.323V270.434L241.756 272.635V289.143L219.802 282.323ZM219.802 268.683V256.982L241.756 254.781V270.889L219.802 268.688V268.683ZM219.802 255.226V243.337L241.756 236.517V253.025L219.802 255.226ZM219.802 241.527V228.367L241.756 216.468V234.702L219.802 241.522V241.527ZM219.802 226.433V210.518L241.756 192.556V214.539L219.802 226.438V226.433ZM219.802 208.362V187.581L241.756 161.809V190.395L219.802 208.357V208.362ZM219.802 185.063V154.079L241.756 116.889V159.292L219.802 185.063ZM218.859 152.536H197.891L211.792 116.364H240.22L218.863 152.536H218.859ZM196.21 152.536H178.944L186.643 116.364H210.112L196.21 152.536ZM177.355 152.536H161.367L163.309 116.364H185.05L177.351 152.536H177.355ZM159.826 152.536H143.943L140.168 116.364H161.769L159.826 152.536ZM142.389 152.536H126.336L116.721 116.364H138.614L142.389 152.536ZM124.73 152.536H106.56L90.4277 116.364H115.119L124.734 152.536H124.73ZM104.827 152.536H90.6328L69.2458 116.364H88.6905L104.822 152.536H104.827ZM89.7337 154.153V184.569L67.7793 158.649V117.012L89.7337 154.149V154.153ZM89.7337 187.091V207.902L67.7793 189.796V161.171L89.7337 187.091ZM89.7337 210.068V226.072L67.7793 214.059V191.962L89.7337 210.068ZM89.7337 228.011V241.205L67.7793 234.282V216.003L89.7337 228.016V228.011ZM89.7337 243.016V255.206L67.7793 252.996V236.087L89.7337 243.011V243.016ZM89.7337 256.962V268.703L67.7793 270.914V254.756L89.7337 256.967V256.962ZM89.7337 270.459V282.649L67.7793 289.573V272.664L89.7337 270.454V270.459ZM89.7337 284.46V297.654L67.7793 309.667V291.388L89.7337 284.464V284.46ZM89.7337 299.593V315.597L67.7793 333.703V311.606L89.7337 299.593ZM89.7337 317.758V338.574L67.7793 364.494V335.864L89.7337 317.758ZM89.7337 341.096V371.511L67.7793 408.648V367.011L89.7337 341.091V341.096ZM90.934 372.629H105.054L88.9219 408.801H69.547L90.934 372.629ZM106.782 372.629H124.865L115.25 408.801H90.6459L106.778 372.629H106.782ZM126.471 372.629H142.442L138.666 408.801H116.852L126.467 372.629H126.471ZM143.996 372.629H159.8L161.742 408.801H140.22L143.991 372.629H143.996ZM161.345 372.629H177.25L184.949 408.801H163.287L161.345 372.629ZM178.839 372.629H196.023L209.924 408.801H186.543L178.843 372.629H178.839ZM197.703 372.629H218.571L239.927 408.801H211.605L197.703 372.629ZM219.802 371.576V340.592L241.756 366.363V408.762L219.802 371.571V371.576ZM243.301 365.661V336.526L263.252 352.847V389.073L243.301 365.656V365.661ZM243.301 334.375V311.967L263.252 322.778V350.7L243.301 334.38V334.375ZM243.301 310.028V291.438L263.252 297.634V320.839L243.301 310.028ZM243.301 289.623V272.793L263.252 274.796V295.824L243.301 289.628V289.623ZM243.301 271.037V254.623L263.252 252.62V273.04L243.301 271.037ZM243.301 252.872V236.037L263.252 229.841V250.869L243.301 252.872ZM243.301 234.227V215.632L263.252 204.821V228.025L243.301 234.222V234.227ZM243.301 213.698V191.29L263.252 174.969V202.892L243.301 213.703V213.698ZM243.301 189.134V159.999L263.252 136.582V172.808L243.301 189.129V189.134ZM243.301 157.487V114.619H243.105L263.252 80.4941V134.07L243.301 157.487ZM241.25 114.619H212.464L225.947 79.5298H261.964L241.25 114.619ZM210.78 114.619H187.014L194.482 79.5298H224.262L210.78 114.619ZM185.43 114.619H163.41L165.295 79.5298H192.898L185.43 114.619ZM161.865 114.619H139.984L136.322 79.5298H163.746L161.86 114.619H161.865ZM138.435 114.619H116.258L106.931 79.5298H134.773L138.435 114.619ZM114.647 114.619H89.642L73.9946 79.5298H105.324L114.652 114.619H114.647ZM87.918 114.619H68.2201L47.4748 79.5298H72.2706L87.918 114.619ZM66.3608 114.619H66.2386V156.834L46.0955 133.056V80.3359L66.3608 114.614V114.619ZM66.2386 159.356V188.53L46.0955 171.923V135.578L66.2386 159.356ZM66.2386 190.691V213.218L46.0955 202.2V174.084L66.2386 190.691ZM66.2386 215.157V233.792L46.0955 227.442V204.138L66.2386 215.157ZM66.2386 235.607V252.847L46.0955 250.82V229.257L66.2386 235.607ZM66.2386 254.598V271.067L46.0955 273.095V252.575L66.2386 254.603V254.598ZM66.2386 272.818V290.058L46.0955 296.408V274.84L66.2386 272.813V272.818ZM66.2386 291.873V310.508L46.0955 321.527V298.223L66.2386 291.873ZM66.2386 312.446V334.974L46.0955 351.581V323.465L66.2386 312.446ZM66.2386 337.135V366.314L46.0955 390.092V353.747L66.2386 337.14V337.135ZM66.2386 368.831V410.547H66.6576L46.0955 445.329V392.609L66.2386 368.831ZM68.5126 410.547H88.1406L72.2662 446.14H47.4704L68.5126 410.547ZM89.869 410.547H114.787L105.329 446.14H73.999L89.8734 410.547H89.869ZM116.393 410.547H138.487L134.773 446.14H106.931L116.389 410.547H116.393ZM140.041 410.547H161.838L163.75 446.14H136.327L140.041 410.547ZM163.384 410.547H185.325L192.902 446.14H165.295L163.384 410.547ZM186.909 410.547H210.592L224.267 446.14H194.486L186.909 410.547ZM212.272 410.547H240.957L261.969 446.14H225.947L212.272 410.547ZM242.812 410.547H243.301V368.173L263.252 391.59V445.166L242.812 410.547ZM264.788 390.883V354.108L286.001 371.462V415.779L264.788 390.883ZM264.788 351.957V323.609L286.001 335.102V369.311L264.788 351.957ZM264.788 321.675V298.114L286.001 304.702V333.168L264.788 321.675ZM264.788 296.299V274.949L286.001 277.076V302.887L264.788 296.299ZM264.788 273.193V252.467L286.001 250.34V275.325L264.788 273.198V273.193ZM264.788 250.716V229.361L286.001 222.773V248.589L264.788 250.716ZM264.788 227.551V203.99L286.001 192.497V220.963L264.788 227.551ZM264.788 202.051V173.703L286.001 156.349V190.558L264.788 202.051ZM264.788 171.552V134.777L286.001 109.881V154.198L264.788 171.552ZM264.788 132.259V77.8829L286.001 41.9533V107.363L264.788 132.259ZM262.995 77.784H226.615L240.516 41.6071H284.351L262.995 77.784ZM224.934 77.784H194.857L202.557 41.6071H238.836L224.934 77.784ZM193.269 77.784H165.387L167.329 41.6071H200.968L193.269 77.784ZM163.846 77.784H136.148L132.372 41.6071H165.788L163.846 77.784ZM134.594 77.784H106.472L96.8569 41.6071H130.819L134.594 77.784ZM104.862 77.784H73.2177L57.0858 41.6071H95.2507L104.866 77.784H104.862ZM71.4893 77.784H46.4403L25.0533 41.6071H55.353L71.4849 77.784H71.4893ZM44.5853 77.784H44.5548V131.241L23.5344 106.429V42.1808L44.5853 77.784ZM44.5548 133.758V170.652L23.5344 153.318V108.941L44.5548 133.753V133.758ZM44.5548 172.813V201.359L23.5344 189.861V155.484L44.5548 172.818V172.813ZM44.5548 203.298V226.957L23.5344 220.33V191.804L44.5548 203.303V203.298ZM44.5548 228.767V250.661L23.5344 248.545V222.135L44.5548 228.767ZM44.5548 252.417V273.248L23.5344 275.365V250.305L44.5548 252.422V252.417ZM44.5548 274.999V296.893L23.5344 303.52V277.11L44.5548 274.994V274.999ZM44.5548 298.708V322.367L23.5344 333.866V305.34L44.5548 298.713V298.708ZM44.5548 324.306V352.852L23.5344 370.186V335.809L44.5548 324.311V324.306ZM44.5548 355.013V391.907L23.5344 416.719V372.342L44.5548 355.008V355.013ZM44.5548 394.429V447.886H44.5853L23.5344 483.489V419.241L44.5548 394.429ZM46.4403 447.886H71.4893L55.58 483.558H25.3545L46.4447 447.886H46.4403ZM73.2134 447.886H104.857L95.3773 483.558H57.304L73.2134 447.886ZM106.472 447.886H134.594L130.875 483.558H96.9922L106.472 447.886ZM136.148 447.886H163.851L165.767 483.558H132.429L136.148 447.886ZM165.391 447.886H193.273L200.867 483.558H167.307L165.391 447.886ZM194.862 447.886H224.943L238.648 483.558H202.456L194.862 447.886ZM226.619 447.886H262.999L284.059 483.558H240.324L226.619 447.886ZM264.788 447.777V393.401L286.001 418.297V483.558H285.914L264.788 447.777ZM307.995 441.595L287.542 417.589V372.723L307.995 389.459V441.595ZM307.995 387.308L287.542 370.572V335.938L307.837 346.937L307.99 346.571V387.308H307.995ZM307.995 345.087L287.542 334.004V305.181L307.938 311.517L307.99 311.294V345.087H307.995ZM307.995 309.721L287.542 303.366V277.229L307.995 279.281V309.721ZM307.995 277.531L287.542 275.478V250.187L307.995 248.134V277.531ZM307.995 246.379L287.542 248.431V222.294L307.995 215.939V246.379ZM307.995 214.381L307.938 214.148L287.542 220.484V191.661L307.995 180.578V214.386V214.381ZM307.995 179.099L307.837 178.728L287.542 189.727V155.093L307.995 138.357V179.099ZM307.995 136.201L287.542 152.937V108.071L307.995 84.0648V136.201ZM307.995 82.4427L307.602 82.0124L287.542 105.553V39.8613H287.236L307.995 4.70324V82.4427ZM307.89 1.74577L285.385 39.8613H241.188L255.836 1.74577H307.89ZM254.152 1.74577L239.504 39.8613H202.928L211.042 1.74577H254.152ZM209.457 1.74577L201.343 39.8613H167.425L169.472 1.74577H209.453H209.457ZM167.932 1.74577L165.884 39.8613H132.189L128.213 1.74577H167.932ZM126.659 1.74577L130.635 39.8613H96.3899L86.2594 1.74577H126.659ZM84.6532 1.74577L94.7837 39.8613H56.3045L39.3041 1.74577H84.6532ZM1.54074 1.74577H37.5756L54.5761 39.8613H24.0233L1.5451 1.83974V1.74577H1.54074ZM1.54074 4.97524L22.1639 39.8613H21.9937V104.604L1.54074 80.4595V4.97029V4.97524ZM1.54074 82.9867L21.9937 107.131V152.052L1.54074 135.187V82.9867ZM1.54074 137.348L21.9937 154.213V189.02L1.54074 177.833V137.353V137.348ZM1.54074 179.767L21.9937 190.954V219.836L1.54074 213.387V179.767ZM1.54074 215.202L21.9937 221.651V248.391L1.54074 246.334V215.197V215.202ZM1.54074 248.09L21.9937 250.147V275.518L1.54074 277.575V248.09ZM1.54074 279.326L21.9937 277.269V304.009L1.54074 310.458V279.321V279.326ZM1.54074 312.278L21.9937 305.829V334.716L1.54074 345.903V312.283V312.278ZM1.54074 347.837L21.9937 336.65V371.457L1.54074 388.321V347.842V347.837ZM1.54074 390.478L21.9937 373.613V418.539L1.54074 442.683V390.483V390.478ZM1.54074 445.205L21.9937 421.061V485.304H22.4651L1.5451 520.695V445.205H1.54074ZM1.78516 523.42L24.3201 485.304H54.8031L37.8026 523.42H1.78516ZM39.5267 523.42L56.5271 485.304H94.9146L84.7841 523.42H39.5267ZM86.3947 523.42L96.5252 485.304H130.692L126.716 523.42H86.3947ZM128.265 523.42L132.241 485.304H165.858L167.905 523.42H128.265ZM169.45 523.42L167.403 485.304H201.238L209.352 523.42H169.45ZM210.941 523.42L202.827 485.304H239.32L253.968 523.42H210.946H210.941ZM255.644 523.42L240.996 485.304H285.089L307.593 523.42H255.64H255.644Z" fill="black"/>
<path d="M155.35 266.507V263.243H158.231V261.933H155.35V258.668H154.193V261.933H151.312V263.243H154.193V266.507H155.35Z" fill="black"/>
</svg>
