<svg width="261" height="139" viewBox="0 0 261 139" fill="none" xmlns="http://www.w3.org/2000/svg">
<path d="M0.0419891 70.3384L-3.07459e-06 70.3384L0.0581024 70.8715C0.34863 73.4821 0.965176 77.6566 1.74636 80.8197L1.76577 80.8811C1.88519 81.1913 2.0111 81.5111 2.14346 81.8374C2.24676 82.0959 2.3533 82.3545 2.46627 82.6226C2.54052 82.8036 2.61798 82.9845 2.69546 83.1686C3.48309 85.0265 4.41278 87.0361 5.33923 88.9004C5.33923 88.9004 5.33923 88.9069 5.34246 88.9069C5.35537 88.9295 5.36505 88.9553 5.37796 88.9779C5.38765 88.9973 5.39735 89.0135 5.4038 89.0328C5.41995 89.0652 5.43609 89.0942 5.44902 89.1266C5.44902 89.1298 5.45221 89.1363 5.45543 89.1395C5.46189 89.1556 5.4716 89.1686 5.47805 89.1848C5.48127 89.1945 5.48774 89.2009 5.49098 89.2106C5.49098 89.2138 5.49417 89.2203 5.4974 89.2235C5.50062 89.2332 5.50709 89.2429 5.51033 89.2494C5.51355 89.2558 5.5168 89.2655 5.52002 89.2719C5.53938 89.3075 5.55554 89.3463 5.57492 89.3818C5.57492 89.3818 5.57492 89.385 5.57492 89.3883C5.96228 90.1573 6.34962 90.8972 6.72409 91.5821C6.72731 91.5886 6.73379 91.5983 6.74025 91.6048C6.84677 91.776 6.95652 91.9472 7.06628 92.1184C7.06628 92.1184 7.06625 92.1217 7.06947 92.1249L7.05983 92.1249L7.56015 92.8713C9.1871 95.301 11.0852 97.7048 13.2287 100.041C13.2287 100.041 13.2319 100.044 13.2319 100.047C13.2351 100.051 13.2384 100.054 13.2416 100.057C13.2448 100.06 13.248 100.063 13.2513 100.07C13.7161 100.577 14.1939 101.078 14.6813 101.579C14.7297 101.624 14.7749 101.666 14.8233 101.711C14.8524 101.737 14.8814 101.766 14.9105 101.792C17.8739 104.542 22.0058 108.07 25.2985 110.658C25.4276 110.752 25.5599 110.845 25.6891 110.939L25.5664 110.939L26.948 111.824C30.0341 113.802 34.647 116.655 38.3657 118.742C38.4529 118.784 38.5368 118.826 38.624 118.868C38.6724 118.89 38.7208 118.916 38.7693 118.939C43.1046 121.058 48.9441 123.714 53.4925 125.63L53.2084 125.63L55.9459 126.564C60.0261 127.957 66.0272 129.927 70.6465 131.284C70.7272 131.304 70.8079 131.323 70.8887 131.346C70.9661 131.365 71.0468 131.385 71.1243 131.404C71.1985 131.423 71.2728 131.439 71.3471 131.459C76.7476 132.79 83.8655 134.383 89.3371 135.478L91.1319 135.788L91.445 135.795C91.7614 135.84 92.0842 135.889 92.4103 135.934L92.4103 135.995C94.7442 136.322 102.876 137.433 109.396 138.099C109.403 138.099 109.409 138.099 109.416 138.099C110.704 138.183 112.063 138.263 113.461 138.341C118.651 138.745 123.897 138.964 129.175 138.997C129.181 138.997 129.191 138.997 129.197 138.997L129.272 138.997L129.824 138.997C129.824 138.997 129.837 138.997 129.84 138.997L130.253 138.997C130.253 138.997 130.263 138.997 130.266 138.997L130.356 138.997C130.411 138.997 130.466 138.997 130.521 139L131.15 139C158.922 138.929 185.347 134.273 207.346 125.711L207.578 125.624L207.569 125.624C212.953 123.52 218.073 121.181 222.876 118.616C247.461 105.504 261 88.0603 261 69.4984C261 50.9364 247.461 33.4891 222.876 20.381C218.832 18.2227 214.564 16.2259 210.106 14.3907L210.119 14.3907L209.848 14.2842C187.364 5.08878 159.984 0.0710772 131.154 -5.67576e-06L130.511 -5.70384e-06C130.453 -5.70638e-06 130.395 -5.70892e-06 130.337 -5.71146e-06L129.275 -5.75788e-06L129.188 -5.7617e-06C129.188 -5.7617e-06 129.178 -5.76212e-06 129.172 -5.7624e-06C123.955 0.0323038 118.771 0.245545 113.648 0.642956C112.134 0.726961 110.697 0.814138 109.38 0.904605C99.5992 1.9676 93.8597 2.67522 87.9942 3.76729L87.9329 3.77699C87.9135 3.78022 87.8974 3.78346 87.878 3.78669C83.5008 4.60413 79.0395 5.63805 72.7609 7.18892C72.0152 7.36986 71.3018 7.54753 70.6272 7.71877C70.5497 7.74139 70.4722 7.76399 70.3947 7.78984C70.3721 7.7963 70.3496 7.80279 70.327 7.80925C65.133 9.38273 58.4411 11.5895 53.5538 13.3439L50.8649 14.3876L51.0295 14.3876C46.6103 16.3229 41.752 18.5717 38.3367 20.2744C38.0074 20.465 37.6685 20.6588 37.3231 20.8591C37.2133 20.9238 37.1036 20.9852 36.9938 21.0498C36.9648 21.066 36.9357 21.0821 36.9066 21.1015C36.5096 21.3341 36.1061 21.5733 35.6961 21.8156C35.6735 21.8285 35.6542 21.8414 35.6348 21.8543C35.5928 21.8802 35.5509 21.906 35.5057 21.9286L35.4992 21.9319C32.0677 23.9771 28.2877 26.3453 25.3856 28.2839C25.3566 28.3033 25.3275 28.3228 25.2985 28.3421L25.2985 28.3454C25.2049 28.41 25.1145 28.4746 25.0241 28.5392L23.7619 29.4568L23.7845 29.4568C20.4176 31.9996 17.3509 34.6813 14.6458 37.4535C14.6103 37.4923 14.5748 37.5342 14.5393 37.573C14.5296 37.5827 14.5199 37.5957 14.5102 37.6053C14.4973 37.6183 14.4844 37.6345 14.4747 37.6474C11.9278 40.5423 8.83848 44.4324 6.73054 47.3952L6.01393 48.5583L6.02681 48.5583C4.77756 51.0042 2.91498 54.9622 1.73996 58.1512C0.597196 61.8733 0.0161409 65.6858 0.0161408 69.4886C0.0161408 69.6825 0.0161407 69.8764 0.0193451 70.067L0.0193451 70.3093L0.0419891 70.3384ZM251.493 49.2498C253.517 52.4808 255.067 55.8184 256.093 59.1657C257.139 62.5647 257.669 66.0477 257.669 69.5145C257.669 69.5436 257.669 69.5759 257.669 69.605L252.145 69.605L252.145 69.5145C252.145 62.6067 250.383 55.7926 246.906 49.2498L251.497 49.2498L251.493 49.2498ZM168.26 6.38118C174.575 8.27454 180.589 10.6363 186.222 13.4473L168.654 13.4473C164.116 9.85768 159.186 6.94012 153.97 4.74629L156.236 4.74629C160.294 5.1857 164.309 5.73822 168.26 6.38118ZM194.505 126.599C192.862 127.104 191.199 127.588 189.521 128.05C185.059 129.278 180.434 130.37 175.721 131.31C179.552 129.918 183.261 128.344 186.825 126.599L194.508 126.599L194.505 126.599ZM3.41208 69.5145C3.41208 62.5808 5.49096 55.7861 9.59062 49.2498L12.6379 49.2498C9.11607 55.7925 7.33096 62.6067 7.33096 69.5145L7.33096 69.605L3.41531 69.605C3.41531 69.5759 3.41531 69.5436 3.41531 69.5145L3.41208 69.5145ZM12.9995 94.5837C12.6057 94.0861 12.2215 93.5885 11.8503 93.091L14.5845 93.091C18.5195 99.2589 23.9814 105.071 30.8378 110.383C23.5198 105.569 17.5382 100.28 12.9995 94.5837ZM45.1867 20.6362C49.6576 18.5102 54.3641 16.5684 59.2805 14.8172L67.8478 14.8172C60.5071 18.759 53.9993 23.3632 48.4858 28.5231L32.9361 28.5231C36.6645 25.7186 40.7578 23.0853 45.1834 20.6362L45.1867 20.6362ZM90.354 132.267C85.118 130.683 80.0822 128.79 75.295 126.599L91.4806 126.599C96.016 129.805 100.894 132.419 106.023 134.418C100.7 133.876 95.4672 133.158 90.354 132.27L90.354 132.267ZM45.1802 118.393C41.5034 116.361 38.0526 114.196 34.8504 111.911L50.0256 111.911C55.7134 116.961 62.3633 121.44 69.8201 125.249L62.2632 125.249C56.2622 123.239 50.5517 120.949 45.1834 118.396L45.1802 118.393ZM104.751 4.74629L105.662 4.74629C100.125 6.94012 94.8959 9.85767 90.0796 13.4473L73.1354 13.4473C78.5682 10.8173 84.353 8.58468 90.4056 6.75595C95.096 5.94174 99.8833 5.2697 104.751 4.74629ZM192.933 71.298C192.771 78.1994 191.68 84.9812 189.682 91.4723L151.6 91.4723C152.285 84.9812 152.656 78.1994 152.711 71.298L192.929 71.298L192.933 71.298ZM192.952 69.605L152.72 69.605L152.72 69.5145C152.72 62.6099 152.401 55.7958 151.771 49.2498L190.179 49.2498C192.019 55.7893 192.952 62.6035 192.952 69.5145L192.952 69.605ZM108.541 30.0352C107.108 35.4665 105.981 41.3759 105.193 47.6246L67.6089 47.6246C69.6491 41.3662 72.5608 35.4535 76.2634 30.0352L108.544 30.0352L108.541 30.0352ZM150.435 71.298C150.383 78.1962 150.032 84.978 149.386 91.4723L107.411 91.4723C106.624 84.9812 106.194 78.1994 106.13 71.298L150.432 71.298L150.435 71.298ZM66.124 93.0877C68.3159 99.2621 71.36 105.081 75.1788 110.403L50.442 110.403C44.6863 105.094 40.0992 99.2718 36.7969 93.0877L66.1208 93.0877L66.124 93.0877ZM67.6283 91.4723C65.5042 84.9812 64.3421 78.1994 64.171 71.298L103.86 71.298C103.925 78.1929 104.377 84.9747 105.203 91.4723L67.6315 91.4723L67.6283 91.4723ZM103.851 69.5145L103.851 69.605L64.1484 69.605L64.1484 69.5145C64.1484 62.6034 65.1394 55.7893 67.0957 49.2498L104.993 49.2498C104.235 55.7925 103.851 62.6099 103.851 69.5145ZM105.416 93.0877C106.265 99.2621 107.443 105.084 108.925 110.403L77.2544 110.403C73.4259 105.094 70.3786 99.2751 68.1835 93.0877L105.416 93.0877ZM35.9705 91.4722C32.7747 84.9812 31.0251 78.1994 30.7668 71.298L62.1082 71.298C62.2793 78.1962 63.4447 84.9747 65.572 91.4723L35.9705 91.4722ZM76.2892 111.908C80.121 116.958 84.6047 121.436 89.6276 125.246L72.4381 125.246C64.7811 121.472 57.9505 116.991 52.1206 111.908L76.2892 111.908ZM150.441 69.605L106.123 69.605L106.123 69.5145C106.123 62.6067 106.491 55.7893 107.214 49.2498L149.544 49.2498C150.138 55.7893 150.438 62.6034 150.438 69.5145L150.438 69.605L150.441 69.605ZM75.2563 28.5199L50.5582 28.5199C56.2074 23.3309 62.8766 18.7235 70.4044 14.814L88.3041 14.814C83.3555 18.7558 78.9718 23.36 75.2563 28.5199ZM34.9472 93.0877C38.1979 99.2654 42.7107 105.081 48.3793 110.403L32.8038 110.403C25.7762 105.094 20.1755 99.2718 16.1436 93.0877L34.9504 93.0877L34.9472 93.0877ZM78.3681 111.908L109.354 111.908C110.843 116.961 112.583 121.443 114.532 125.246L91.8841 125.246C86.7902 121.472 82.2482 116.991 78.3713 111.908L78.3681 111.908ZM149.218 93.0877C148.553 99.2718 147.627 105.094 146.468 110.403L110.975 110.403C109.558 105.094 108.428 99.2718 107.618 93.0877L149.218 93.0877ZM108.954 28.5199L77.3287 28.5199C81.0829 23.3309 85.5215 18.7235 90.5283 14.814L114.019 14.814C112.098 18.7526 110.397 23.3568 108.954 28.5199ZM74.1942 30.0352C70.4948 35.4665 67.5928 41.3759 65.5526 47.6246L35.9382 47.6246C39.0081 41.3694 43.3822 35.4568 48.9538 30.0352L74.191 30.0352L74.1942 30.0352ZM65.0426 49.2498C63.0799 55.7925 62.0889 62.6067 62.0889 69.5145L62.0889 69.605L30.7378 69.605L30.7378 69.5145C30.7378 62.6067 32.2292 55.7893 35.1764 49.2498L65.0458 49.2498L65.0426 49.2498ZM28.9914 71.298C29.2464 78.1962 30.9734 84.978 34.1273 91.4722L15.1268 91.4722C11.2208 84.9812 9.0838 78.1994 8.77067 71.298L28.9914 71.298ZM72.564 126.599C75.7211 128.102 78.9911 129.469 82.358 130.709C76.9026 129.54 71.6053 128.166 66.4985 126.599L72.564 126.599ZM148.514 110.406C149.741 105.088 150.719 99.2686 151.423 93.091L189.162 93.091C187.1 99.2783 184.23 105.101 180.63 110.406L148.514 110.406ZM151.607 47.6246C150.951 41.3759 150.019 35.4632 148.831 30.0352L181.563 30.0352C185.046 35.4535 187.781 41.3662 189.701 47.6246L151.607 47.6246ZM107.405 47.6246C108.16 41.3694 109.238 35.4568 110.61 30.0352L146.768 30.0352C147.891 35.4535 148.773 41.3662 149.392 47.6246L107.405 47.6246ZM92.3425 13.4473C97.4073 9.76075 102.924 6.83996 108.764 4.74629L120.775 4.74629C118.616 6.93689 116.579 9.85768 114.707 13.4473L92.3425 13.4473ZM82.3354 8.323C78.2293 9.83833 74.2684 11.5475 70.4819 13.4473L63.293 13.4473C69.3714 11.4538 75.7372 9.7414 82.3354 8.323ZM15.0848 47.6246C18.8359 41.3694 24.1783 35.4568 30.9799 30.0352L46.9105 30.0352C41.4259 35.4632 37.1165 41.3759 34.0918 47.6246L15.0816 47.6246L15.0848 47.6246ZM28.9591 69.5145L28.9591 69.605L8.72871 69.605L8.72871 69.5145C8.72871 62.6067 10.5526 55.7893 14.1519 49.2498L33.3396 49.2498C30.4311 55.7925 28.9591 62.6067 28.9591 69.5145ZM148.159 111.908L179.585 111.908C175.937 116.991 171.666 121.472 166.876 125.246L143.863 125.246C145.48 121.443 146.926 116.961 148.159 111.908ZM181.654 111.908L206.61 111.908C200.951 116.991 194.324 121.472 186.896 125.246L169.084 125.246C173.819 121.436 178.045 116.958 181.654 111.908ZM191.754 91.4723C193.759 84.978 194.857 78.1962 195.018 71.298L227.325 71.298C227.076 78.1962 225.378 84.9812 222.279 91.4723L191.754 91.4723ZM227.357 69.605L195.037 69.605L195.037 69.5145C195.037 62.6067 194.101 55.7926 192.252 49.2498L223.051 49.2498C225.908 55.7893 227.354 62.6035 227.354 69.5145L227.354 69.605L227.357 69.605ZM111.004 28.5199C112.392 23.3341 114.032 18.7267 115.882 14.814L142.452 14.814C143.966 18.7299 145.309 23.3374 146.445 28.5199L111.004 28.5199ZM3.46374 71.298L7.3697 71.298C7.67637 78.1962 9.76817 84.978 13.5935 91.4722L10.7011 91.4722C6.24632 84.978 3.82205 78.2123 3.46374 71.298ZM110.307 134.813C104.457 132.884 98.9052 130.124 93.7822 126.599L115.255 126.599C117.147 130.034 119.194 132.803 121.353 134.845L110.688 134.845C110.562 134.835 110.436 134.822 110.31 134.813L110.307 134.813ZM111.388 111.908L146.129 111.908C144.954 116.987 143.582 121.469 142.042 125.246L116.379 125.246C114.497 121.469 112.818 116.987 111.385 111.908L111.388 111.908ZM182.7 110.406C186.299 105.084 189.169 99.2654 191.235 93.091L221.475 93.091C218.273 99.2783 213.825 105.097 208.237 110.406L182.7 110.406ZM191.774 47.6246C189.85 41.3759 187.112 35.4665 183.629 30.0352L209.683 30.0352C215.087 35.4535 219.335 41.3662 222.311 47.6246L191.774 47.6246ZM188.872 14.814C196.177 18.7235 202.649 23.3309 208.127 28.5199L182.629 28.5199C179.126 23.36 174.994 18.7558 170.333 14.814L188.872 14.814ZM148.492 28.5199C147.297 23.3568 145.883 18.7526 144.292 14.814L168.151 14.814C172.86 18.7235 177.031 23.3309 180.563 28.5199L148.492 28.5199ZM116.553 13.4473C118.419 9.76398 120.449 6.84319 122.593 4.74629L136.974 4.74629C138.724 6.84642 140.383 9.77044 141.906 13.4473L116.553 13.4473ZM121.069 3.56054C121.405 3.54762 121.744 3.53789 122.08 3.5282C122.067 3.54112 122.054 3.55085 122.041 3.56054L121.069 3.56054ZM117.082 126.599L141.474 126.599C139.924 130.134 138.249 132.906 136.486 134.845L123.193 134.845C121.034 132.91 118.984 130.141 117.086 126.599L117.082 126.599ZM223.354 93.0877L243.391 93.0877C239.414 99.2718 233.887 105.094 226.953 110.403L210.309 110.403C215.813 105.081 220.197 99.2622 223.354 93.0877ZM224.148 91.4723C227.215 84.978 228.89 78.1962 229.136 71.298L250.66 71.298C250.351 78.1962 248.243 84.9812 244.388 91.4723L224.145 91.4723L224.148 91.4723ZM250.702 69.605L229.168 69.605L229.168 69.5145C229.168 62.6067 227.738 55.7926 224.913 49.2498L245.353 49.2498C248.904 55.7893 250.702 62.6067 250.702 69.5145L250.702 69.605ZM224.181 47.6246C221.243 41.3759 217.056 35.4665 211.73 30.0352L228.745 30.0352C235.456 35.4535 240.728 41.3662 244.427 47.6246L224.177 47.6246L224.181 47.6246ZM175.698 7.71554C180.417 8.65899 185.05 9.75109 189.521 10.9789C192.303 11.7446 195.041 12.5685 197.72 13.4473L188.843 13.4473C184.669 11.289 180.272 9.37626 175.698 7.71554ZM143.717 13.4473C142.161 9.85445 140.47 6.93366 138.675 4.74629L151 4.74629C156.491 6.83673 161.678 9.76075 166.443 13.4473L143.717 13.4473ZM29.0915 30.0352C22.4416 35.4632 17.2186 41.3759 13.5515 47.6246L10.6527 47.6246C11.3822 46.5584 12.1602 45.4986 12.9995 44.4485C17.1056 39.2951 22.3932 34.4745 28.7848 30.0384L29.0915 30.0384L29.0915 30.0352ZM143.265 126.599L165.09 126.599C160.248 130.141 155 132.913 149.463 134.845L138.197 134.845C139.992 132.803 141.693 130.037 143.262 126.599L143.265 126.599ZM153.243 134.577C158.221 132.561 162.95 129.889 167.337 126.599L184.126 126.599C179.087 128.974 173.761 130.997 168.212 132.658C163.309 133.456 158.295 134.099 153.243 134.577ZM206.274 122.532C203.831 123.482 201.313 124.386 198.74 125.246L189.488 125.246C196.729 121.44 203.188 116.958 208.708 111.908L224.929 111.908C220.055 115.433 214.603 118.671 208.644 121.582C207.859 121.902 207.072 122.218 206.274 122.528L206.274 122.532ZM210.203 28.5199C204.848 23.3632 198.53 18.7558 191.399 14.814L201.736 14.814C203.272 15.36 204.789 15.919 206.274 16.4973C207.062 16.8043 207.84 17.1177 208.615 17.4311C215.374 20.7332 221.475 24.4456 226.815 28.5166L210.2 28.5166L210.203 28.5199ZM222.295 115.136C223.893 114.086 225.449 113.013 226.937 111.908L227.848 111.908C226.062 113.016 224.206 114.092 222.295 115.136ZM244.982 93.0877L249.224 93.0877C247.674 95.1717 245.922 97.2234 243.978 99.2169C241.025 102.241 237.593 105.175 233.778 107.941C232.625 108.774 231.431 109.595 230.201 110.403L228.913 110.403C235.695 105.084 241.096 99.2654 244.985 93.0877L244.982 93.0877ZM250.376 91.4723L245.96 91.4723C249.734 84.978 251.8 78.1994 252.103 71.298L257.614 71.298C257.465 74.1704 256.958 77.046 256.09 79.8634C255.06 83.2171 253.508 86.5612 251.477 89.7986C251.125 90.3576 250.754 90.9165 250.373 91.4723L250.376 91.4723ZM233.774 31.0885C237.59 33.851 241.025 36.7879 243.975 39.8121C246.441 42.3388 248.601 44.9591 250.422 47.6246L245.999 47.6246C242.38 41.3759 237.225 35.4665 230.659 30.0352L232.289 30.0352C232.79 30.3841 233.287 30.7363 233.774 31.0885ZM222.386 23.9448C225.062 25.4052 227.618 26.9367 230.036 28.5231L228.774 28.5231C226.753 26.9432 224.623 25.4181 222.386 23.9448ZM137.623 3.56054C137.597 3.53146 137.568 3.50885 137.542 3.483C138.317 3.50562 139.088 3.53146 139.863 3.56054L137.623 3.56054ZM135.883 3.56054L123.929 3.56054C123.971 3.525 124.016 3.49914 124.058 3.4636C126.208 3.40867 128.365 3.37959 130.534 3.37959C132.271 3.37959 134.011 3.39895 135.75 3.43449C135.796 3.47649 135.841 3.51531 135.886 3.56054L135.883 3.56054Z" fill="black"/>
</svg>
