<svg width="598" height="131" viewBox="0 0 598 131" fill="none" xmlns="http://www.w3.org/2000/svg">
<path d="M15.6942 56.3548L0 1.16992H14.0436C17.2845 13.9084 22.8359 34.3439 24.0812 44.3066H24.1563C25.9718 34.1338 31.6583 14.0134 35.3943 1.16992H48.1478C51.6137 13.3082 57.7506 35.8293 59.251 43.8865H59.4008C61.0062 33.8337 66.3928 13.5333 69.5886 1.16992H83.0622L66.3779 56.3548H51.8838C48.3428 44.1865 42.7166 23.1808 40.9161 15.2437H40.841C39.1755 24.6362 33.9989 42.8212 30.0828 56.3548H15.6942Z" fill="black"/>
<path d="M443.983 35.0941V56.3548H430.734V1.16992H460.788C473.511 1.16992 480.803 7.45659 480.803 16.9391C480.803 24.0661 476.662 28.2672 471.2 29.9927C473.451 30.8779 479.378 33.0535 479.378 42.9562V45.717C479.378 49.498 479.303 53.7441 480.068 56.3548H466.324C465.409 53.9242 465.289 50.6683 465.289 44.8017V42.9862C465.289 37.4047 463.248 35.079 455.206 35.079H443.998L443.983 35.0941ZM443.983 25.0414H457.787C464.283 25.0414 467.104 22.7007 467.104 18.0495C467.104 13.6833 464.224 11.2226 457.907 11.2226H443.983V25.0563V25.0414Z" fill="black"/>
<path d="M492.086 1.16992H505.469V45.6269H536.363L534.607 56.3548H492.086V1.16992Z" fill="black"/>
<path d="M543.805 1.16992H568.756C587.346 1.16992 597.519 13.2332 597.519 27.8021C597.519 45.4619 584.526 56.3548 568.471 56.3548H543.82V1.16992H543.805ZM557.188 45.972H566.686C577.474 45.972 583.31 39.8954 583.31 28.1622C583.31 17.9594 577.969 11.6277 566.851 11.4777H557.173V45.972H557.188Z" fill="black"/>
<path d="M380.866 130.535L365.172 75.3501H379.216C382.457 88.0885 388.008 108.524 389.253 118.487H389.329C391.144 108.314 396.831 88.1936 400.567 75.3501H413.32C416.786 87.4884 422.922 110.009 424.423 118.067H424.573C426.178 108.014 431.58 87.7134 434.761 75.3501H448.234L431.55 130.535H417.056C413.515 118.367 407.888 97.361 406.088 89.4239H406.013C404.347 98.8164 399.171 117.001 395.255 130.535H380.866Z" fill="black"/>
<path d="M469.555 75.3501V130.535H456.172V75.3501H469.555Z" fill="black"/>
<path d="M484.039 75.3501H508.991C527.581 75.3501 537.754 87.4134 537.754 101.982C537.754 119.642 524.76 130.535 508.706 130.535H484.054V75.3501H484.039ZM497.438 120.167H506.935C517.723 120.167 523.56 114.091 523.56 102.357C523.56 92.1546 518.218 85.8229 507.1 85.6728H497.423V120.167H497.438Z" fill="black"/>
<path d="M592.96 107.264H562.172V119.822H596.411L594.866 130.55H548.773V75.3652H594.626V86.0931H562.172V96.5509H592.96V107.279V107.264Z" fill="black"/>
<path d="M391.303 0H115.693C100.134 0 87.5156 12.6184 87.5156 28.1776C87.5156 43.7368 100.134 56.3552 115.693 56.3552H391.303C406.862 56.3552 419.48 43.7368 419.48 28.1776C419.48 12.6184 406.862 0 391.303 0ZM391.303 46.5426H115.693C105.566 46.5426 97.3283 38.3053 97.3283 28.1776C97.3283 18.0499 105.566 9.81262 115.693 9.81262H391.303C401.43 9.81262 409.668 18.0499 409.668 28.1776C409.668 38.3053 401.43 46.5426 391.303 46.5426Z" fill="black"/>
</svg>
